<!DOCTYPE svg PUBLIC "-//W3C//DTD SVG 1.1//EN" "http://www.w3.org/Graphics/SVG/1.1/DTD/svg11.dtd">
<svg xmlns="http://www.w3.org/2000/svg" version="1.1" width="3.5999999999999996mm" height="4.8999999999999995mm" viewBox="0 0 3.5999999999999996 4.8999999999999995">
            <title>Picture generated by PcbDraw </title>
            <desc>Picture generated by PcbDraw</desc>
        <g id="body"><rect fill="black" width="1.8" height="3.1" rx="0.2" ry="0.2" x="0.8999999999999998" y="0.8999999999999997"/><circle fill="#554747" stroke="#99abb0" stroke-width="0.03" r="0.09" cx="1.1999999999999997" cy="1.1999999999999997"/></g><g><g id="leg_$left-0" transform="translate(0.8999999999999998 1.5) rotate(90)"><rect fill="#d6dcdb" stroke="#99abb0" stroke-width="0.066" width="0.2" height="0.33" x="-0.1" y="0.034"/><rect fill="#d6dcdb" stroke="#99abb0" stroke-width="0.06666666666666667" width="0.2" height="0.17" x="-0.1" y="0.363"/></g><g id="leg_$left-1" transform="translate(0.8999999999999998 2.45) rotate(90)"><rect fill="#d6dcdb" stroke="#99abb0" stroke-width="0.066" width="0.2" height="0.33" x="-0.1" y="0.034"/><rect fill="#d6dcdb" stroke="#99abb0" stroke-width="0.06666666666666667" width="0.2" height="0.17" x="-0.1" y="0.363"/></g><g id="leg_$left-2" transform="translate(0.8999999999999998 3.4) rotate(90)"><rect fill="#d6dcdb" stroke="#99abb0" stroke-width="0.066" width="0.2" height="0.33" x="-0.1" y="0.034"/><rect fill="#d6dcdb" stroke="#99abb0" stroke-width="0.06666666666666667" width="0.2" height="0.17" x="-0.1" y="0.363"/></g></g><g><g id="leg_$right-0" transform="translate(2.6999999999999997 1.5) rotate(-90)"><rect fill="#d6dcdb" stroke="#99abb0" stroke-width="0.066" width="0.2" height="0.33" x="-0.1" y="0.034"/><rect fill="#d6dcdb" stroke="#99abb0" stroke-width="0.06666666666666667" width="0.2" height="0.17" x="-0.1" y="0.363"/></g><g id="leg_$right-1" transform="translate(2.6999999999999997 2.45) rotate(-90)"><rect fill="#d6dcdb" stroke="#99abb0" stroke-width="0.066" width="0.2" height="0.33" x="-0.1" y="0.034"/><rect fill="#d6dcdb" stroke="#99abb0" stroke-width="0.06666666666666667" width="0.2" height="0.17" x="-0.1" y="0.363"/></g><g id="leg_$right-2" transform="translate(2.6999999999999997 3.4) rotate(-90)"><rect fill="#d6dcdb" stroke="#99abb0" stroke-width="0.066" width="0.2" height="0.33" x="-0.1" y="0.034"/><rect fill="#d6dcdb" stroke="#99abb0" stroke-width="0.06666666666666667" width="0.2" height="0.17" x="-0.1" y="0.363"/></g></g><rect id="origin" fill="red" width="1" height="1" x="1.7999999999999998" y="2.4499999999999997"/></svg>