<!DOCTYPE svg PUBLIC "-//W3C//DTD SVG 1.1//EN" "http://www.w3.org/Graphics/SVG/1.1/DTD/svg11.dtd">
<svg xmlns="http://www.w3.org/2000/svg" version="1.1" width="3.1500000000000004mm" height="4.0mm" viewBox="0 0 3.1500000000000004 4.0">
            <title>Picture generated by PcbDraw </title>
            <desc>Picture generated by PcbDraw</desc>
        <g id="body"><rect fill="black" width="1.35" height="2.2" rx="0.2" ry="0.2" x="0.9000000000000001" y="0.8999999999999999"/><circle fill="#554747" stroke="#99abb0" stroke-width="0.022500000000000003" r="0.0675" cx="1.1250000000000002" cy="1.125"/></g><g><g id="leg_$left-0" transform="translate(0.9000000000000001 1.3499999999999999) rotate(90)"><rect fill="#d6dcdb" stroke="#99abb0" stroke-width="0.066" width="0.2" height="0.33" x="-0.1" y="0.034"/><rect fill="#d6dcdb" stroke="#99abb0" stroke-width="0.06666666666666667" width="0.2" height="0.17" x="-0.1" y="0.363"/></g><g id="leg_$left-1" transform="translate(0.9000000000000001 2.0) rotate(90)"><rect fill="#d6dcdb" stroke="#99abb0" stroke-width="0.066" width="0.2" height="0.33" x="-0.1" y="0.034"/><rect fill="#d6dcdb" stroke="#99abb0" stroke-width="0.06666666666666667" width="0.2" height="0.17" x="-0.1" y="0.363"/></g><g id="leg_$left-2" transform="translate(0.9000000000000001 2.65) rotate(90)"><rect fill="#d6dcdb" stroke="#99abb0" stroke-width="0.066" width="0.2" height="0.33" x="-0.1" y="0.034"/><rect fill="#d6dcdb" stroke="#99abb0" stroke-width="0.06666666666666667" width="0.2" height="0.17" x="-0.1" y="0.363"/></g></g><g><g id="leg_$right-0" transform="translate(2.25 1.3499999999999999) rotate(-90)"><rect fill="#d6dcdb" stroke="#99abb0" stroke-width="0.066" width="0.2" height="0.33" x="-0.1" y="0.034"/><rect fill="#d6dcdb" stroke="#99abb0" stroke-width="0.06666666666666667" width="0.2" height="0.17" x="-0.1" y="0.363"/></g><g id="leg_$right-1" transform="translate(2.25 2.0) rotate(-90)"><rect fill="#d6dcdb" stroke="#99abb0" stroke-width="0.066" width="0.2" height="0.33" x="-0.1" y="0.034"/><rect fill="#d6dcdb" stroke="#99abb0" stroke-width="0.06666666666666667" width="0.2" height="0.17" x="-0.1" y="0.363"/></g><g id="leg_$right-2" transform="translate(2.25 2.65) rotate(-90)"><rect fill="#d6dcdb" stroke="#99abb0" stroke-width="0.066" width="0.2" height="0.33" x="-0.1" y="0.034"/><rect fill="#d6dcdb" stroke="#99abb0" stroke-width="0.06666666666666667" width="0.2" height="0.17" x="-0.1" y="0.363"/></g></g><rect id="origin" fill="red" width="1" height="1" x="1.5750000000000002" y="2.0"/></svg>