<!DOCTYPE svg PUBLIC "-//W3C//DTD SVG 1.1//EN" "http://www.w3.org/Graphics/SVG/1.1/DTD/svg11.dtd">
<svg xmlns="http://www.w3.org/2000/svg" version="1.1" width="8.1mm" height="13.0mm" viewBox="0 0 8.1 13.0">
            <title>Picture generated by PcbDraw </title>
            <desc>Picture generated by PcbDraw</desc>
        <g id="body"><rect fill="black" width="5.3" height="10.2" rx="0.2" ry="0.2" x="1.4" y="1.4000000000000004"/><circle fill="#554747" stroke="#99abb0" stroke-width="0.08833333333333333" r="0.265" cx="2.283333333333333" cy="2.2833333333333337"/></g><g><g id="leg_$left-0" transform="translate(1.4 2.2750000000000004) rotate(90)"><rect fill="#d6dcdb" stroke="#99abb0" stroke-width="0.066" width="0.2" height="0.66" x="-0.1" y="0.034"/><rect fill="#d6dcdb" stroke="#99abb0" stroke-width="0.06666666666666667" width="0.2" height="0.34" x="-0.1" y="0.6930000000000001"/></g><g id="leg_$left-1" transform="translate(1.4 2.9250000000000003) rotate(90)"><rect fill="#d6dcdb" stroke="#99abb0" stroke-width="0.066" width="0.2" height="0.66" x="-0.1" y="0.034"/><rect fill="#d6dcdb" stroke="#99abb0" stroke-width="0.06666666666666667" width="0.2" height="0.34" x="-0.1" y="0.6930000000000001"/></g><g id="leg_$left-2" transform="translate(1.4 3.575) rotate(90)"><rect fill="#d6dcdb" stroke="#99abb0" stroke-width="0.066" width="0.2" height="0.66" x="-0.1" y="0.034"/><rect fill="#d6dcdb" stroke="#99abb0" stroke-width="0.06666666666666667" width="0.2" height="0.34" x="-0.1" y="0.6930000000000001"/></g><g id="leg_$left-3" transform="translate(1.4 4.2250000000000005) rotate(90)"><rect fill="#d6dcdb" stroke="#99abb0" stroke-width="0.066" width="0.2" height="0.66" x="-0.1" y="0.034"/><rect fill="#d6dcdb" stroke="#99abb0" stroke-width="0.06666666666666667" width="0.2" height="0.34" x="-0.1" y="0.6930000000000001"/></g><g id="leg_$left-4" transform="translate(1.4 4.875) rotate(90)"><rect fill="#d6dcdb" stroke="#99abb0" stroke-width="0.066" width="0.2" height="0.66" x="-0.1" y="0.034"/><rect fill="#d6dcdb" stroke="#99abb0" stroke-width="0.06666666666666667" width="0.2" height="0.34" x="-0.1" y="0.6930000000000001"/></g><g id="leg_$left-5" transform="translate(1.4 5.525) rotate(90)"><rect fill="#d6dcdb" stroke="#99abb0" stroke-width="0.066" width="0.2" height="0.66" x="-0.1" y="0.034"/><rect fill="#d6dcdb" stroke="#99abb0" stroke-width="0.06666666666666667" width="0.2" height="0.34" x="-0.1" y="0.6930000000000001"/></g><g id="leg_$left-6" transform="translate(1.4 6.175000000000001) rotate(90)"><rect fill="#d6dcdb" stroke="#99abb0" stroke-width="0.066" width="0.2" height="0.66" x="-0.1" y="0.034"/><rect fill="#d6dcdb" stroke="#99abb0" stroke-width="0.06666666666666667" width="0.2" height="0.34" x="-0.1" y="0.6930000000000001"/></g><g id="leg_$left-7" transform="translate(1.4 6.825) rotate(90)"><rect fill="#d6dcdb" stroke="#99abb0" stroke-width="0.066" width="0.2" height="0.66" x="-0.1" y="0.034"/><rect fill="#d6dcdb" stroke="#99abb0" stroke-width="0.06666666666666667" width="0.2" height="0.34" x="-0.1" y="0.6930000000000001"/></g><g id="leg_$left-8" transform="translate(1.4 7.4750000000000005) rotate(90)"><rect fill="#d6dcdb" stroke="#99abb0" stroke-width="0.066" width="0.2" height="0.66" x="-0.1" y="0.034"/><rect fill="#d6dcdb" stroke="#99abb0" stroke-width="0.06666666666666667" width="0.2" height="0.34" x="-0.1" y="0.6930000000000001"/></g><g id="leg_$left-9" transform="translate(1.4 8.125) rotate(90)"><rect fill="#d6dcdb" stroke="#99abb0" stroke-width="0.066" width="0.2" height="0.66" x="-0.1" y="0.034"/><rect fill="#d6dcdb" stroke="#99abb0" stroke-width="0.06666666666666667" width="0.2" height="0.34" x="-0.1" y="0.6930000000000001"/></g><g id="leg_$left-10" transform="translate(1.4 8.775) rotate(90)"><rect fill="#d6dcdb" stroke="#99abb0" stroke-width="0.066" width="0.2" height="0.66" x="-0.1" y="0.034"/><rect fill="#d6dcdb" stroke="#99abb0" stroke-width="0.06666666666666667" width="0.2" height="0.34" x="-0.1" y="0.6930000000000001"/></g><g id="leg_$left-11" transform="translate(1.4 9.425) rotate(90)"><rect fill="#d6dcdb" stroke="#99abb0" stroke-width="0.066" width="0.2" height="0.66" x="-0.1" y="0.034"/><rect fill="#d6dcdb" stroke="#99abb0" stroke-width="0.06666666666666667" width="0.2" height="0.34" x="-0.1" y="0.6930000000000001"/></g><g id="leg_$left-12" transform="translate(1.4 10.075000000000001) rotate(90)"><rect fill="#d6dcdb" stroke="#99abb0" stroke-width="0.066" width="0.2" height="0.66" x="-0.1" y="0.034"/><rect fill="#d6dcdb" stroke="#99abb0" stroke-width="0.06666666666666667" width="0.2" height="0.34" x="-0.1" y="0.6930000000000001"/></g><g id="leg_$left-13" transform="translate(1.4 10.725000000000001) rotate(90)"><rect fill="#d6dcdb" stroke="#99abb0" stroke-width="0.066" width="0.2" height="0.66" x="-0.1" y="0.034"/><rect fill="#d6dcdb" stroke="#99abb0" stroke-width="0.06666666666666667" width="0.2" height="0.34" x="-0.1" y="0.6930000000000001"/></g></g><g><g id="leg_$right-0" transform="translate(6.699999999999999 2.2750000000000004) rotate(-90)"><rect fill="#d6dcdb" stroke="#99abb0" stroke-width="0.066" width="0.2" height="0.66" x="-0.1" y="0.034"/><rect fill="#d6dcdb" stroke="#99abb0" stroke-width="0.06666666666666667" width="0.2" height="0.34" x="-0.1" y="0.6930000000000001"/></g><g id="leg_$right-1" transform="translate(6.699999999999999 2.9250000000000003) rotate(-90)"><rect fill="#d6dcdb" stroke="#99abb0" stroke-width="0.066" width="0.2" height="0.66" x="-0.1" y="0.034"/><rect fill="#d6dcdb" stroke="#99abb0" stroke-width="0.06666666666666667" width="0.2" height="0.34" x="-0.1" y="0.6930000000000001"/></g><g id="leg_$right-2" transform="translate(6.699999999999999 3.575) rotate(-90)"><rect fill="#d6dcdb" stroke="#99abb0" stroke-width="0.066" width="0.2" height="0.66" x="-0.1" y="0.034"/><rect fill="#d6dcdb" stroke="#99abb0" stroke-width="0.06666666666666667" width="0.2" height="0.34" x="-0.1" y="0.6930000000000001"/></g><g id="leg_$right-3" transform="translate(6.699999999999999 4.2250000000000005) rotate(-90)"><rect fill="#d6dcdb" stroke="#99abb0" stroke-width="0.066" width="0.2" height="0.66" x="-0.1" y="0.034"/><rect fill="#d6dcdb" stroke="#99abb0" stroke-width="0.06666666666666667" width="0.2" height="0.34" x="-0.1" y="0.6930000000000001"/></g><g id="leg_$right-4" transform="translate(6.699999999999999 4.875) rotate(-90)"><rect fill="#d6dcdb" stroke="#99abb0" stroke-width="0.066" width="0.2" height="0.66" x="-0.1" y="0.034"/><rect fill="#d6dcdb" stroke="#99abb0" stroke-width="0.06666666666666667" width="0.2" height="0.34" x="-0.1" y="0.6930000000000001"/></g><g id="leg_$right-5" transform="translate(6.699999999999999 5.525) rotate(-90)"><rect fill="#d6dcdb" stroke="#99abb0" stroke-width="0.066" width="0.2" height="0.66" x="-0.1" y="0.034"/><rect fill="#d6dcdb" stroke="#99abb0" stroke-width="0.06666666666666667" width="0.2" height="0.34" x="-0.1" y="0.6930000000000001"/></g><g id="leg_$right-6" transform="translate(6.699999999999999 6.175000000000001) rotate(-90)"><rect fill="#d6dcdb" stroke="#99abb0" stroke-width="0.066" width="0.2" height="0.66" x="-0.1" y="0.034"/><rect fill="#d6dcdb" stroke="#99abb0" stroke-width="0.06666666666666667" width="0.2" height="0.34" x="-0.1" y="0.6930000000000001"/></g><g id="leg_$right-7" transform="translate(6.699999999999999 6.825) rotate(-90)"><rect fill="#d6dcdb" stroke="#99abb0" stroke-width="0.066" width="0.2" height="0.66" x="-0.1" y="0.034"/><rect fill="#d6dcdb" stroke="#99abb0" stroke-width="0.06666666666666667" width="0.2" height="0.34" x="-0.1" y="0.6930000000000001"/></g><g id="leg_$right-8" transform="translate(6.699999999999999 7.4750000000000005) rotate(-90)"><rect fill="#d6dcdb" stroke="#99abb0" stroke-width="0.066" width="0.2" height="0.66" x="-0.1" y="0.034"/><rect fill="#d6dcdb" stroke="#99abb0" stroke-width="0.06666666666666667" width="0.2" height="0.34" x="-0.1" y="0.6930000000000001"/></g><g id="leg_$right-9" transform="translate(6.699999999999999 8.125) rotate(-90)"><rect fill="#d6dcdb" stroke="#99abb0" stroke-width="0.066" width="0.2" height="0.66" x="-0.1" y="0.034"/><rect fill="#d6dcdb" stroke="#99abb0" stroke-width="0.06666666666666667" width="0.2" height="0.34" x="-0.1" y="0.6930000000000001"/></g><g id="leg_$right-10" transform="translate(6.699999999999999 8.775) rotate(-90)"><rect fill="#d6dcdb" stroke="#99abb0" stroke-width="0.066" width="0.2" height="0.66" x="-0.1" y="0.034"/><rect fill="#d6dcdb" stroke="#99abb0" stroke-width="0.06666666666666667" width="0.2" height="0.34" x="-0.1" y="0.6930000000000001"/></g><g id="leg_$right-11" transform="translate(6.699999999999999 9.425) rotate(-90)"><rect fill="#d6dcdb" stroke="#99abb0" stroke-width="0.066" width="0.2" height="0.66" x="-0.1" y="0.034"/><rect fill="#d6dcdb" stroke="#99abb0" stroke-width="0.06666666666666667" width="0.2" height="0.34" x="-0.1" y="0.6930000000000001"/></g><g id="leg_$right-12" transform="translate(6.699999999999999 10.075000000000001) rotate(-90)"><rect fill="#d6dcdb" stroke="#99abb0" stroke-width="0.066" width="0.2" height="0.66" x="-0.1" y="0.034"/><rect fill="#d6dcdb" stroke="#99abb0" stroke-width="0.06666666666666667" width="0.2" height="0.34" x="-0.1" y="0.6930000000000001"/></g><g id="leg_$right-13" transform="translate(6.699999999999999 10.725000000000001) rotate(-90)"><rect fill="#d6dcdb" stroke="#99abb0" stroke-width="0.066" width="0.2" height="0.66" x="-0.1" y="0.034"/><rect fill="#d6dcdb" stroke="#99abb0" stroke-width="0.06666666666666667" width="0.2" height="0.34" x="-0.1" y="0.6930000000000001"/></g></g><rect id="origin" fill="red" width="1" height="1" x="4.05" y="6.5"/></svg>