<?xml version="1.0" encoding="UTF-8" standalone="no"?>
<svg
   xmlns:dc="http://purl.org/dc/elements/1.1/"
   xmlns:cc="http://creativecommons.org/ns#"
   xmlns:rdf="http://www.w3.org/1999/02/22-rdf-syntax-ns#"
   xmlns:svg="http://www.w3.org/2000/svg"
   xmlns="http://www.w3.org/2000/svg"
   xmlns:sodipodi="http://sodipodi.sourceforge.net/DTD/sodipodi-0.dtd"
   xmlns:inkscape="http://www.inkscape.org/namespaces/inkscape"
   version="1.1"
   width="0.64499998cm"
   height="1.6458944cm"
   viewBox="0 0 2539.37 6479.8995"
   id="svg92"
   sodipodi:docname="ne555-astable-adapter-F_Fab.svg"
   inkscape:version="1.0.2-2 (e86c870879, 2021-01-15)">
  <metadata
     id="metadata98">
    <rdf:RDF>
      <cc:Work
         rdf:about="">
        <dc:format>image/svg+xml</dc:format>
        <dc:type
           rdf:resource="http://purl.org/dc/dcmitype/StillImage" />
        <dc:title>SVG Picture created as ne555-astable-adapter-F_Fab.svg date 2021/07/18 23:47:38 </dc:title>
      </cc:Work>
    </rdf:RDF>
  </metadata>
  <defs
     id="defs96" />
  <sodipodi:namedview
     pagecolor="#ffffff"
     bordercolor="#666666"
     borderopacity="1"
     objecttolerance="10"
     gridtolerance="10"
     guidetolerance="10"
     inkscape:pageopacity="0"
     inkscape:pageshadow="2"
     inkscape:window-width="1920"
     inkscape:window-height="1137"
     id="namedview94"
     showgrid="false"
     fit-margin-top="0"
     fit-margin-left="0"
     fit-margin-right="0"
     fit-margin-bottom="0"
     inkscape:zoom="0.92600996"
     inkscape:cx="184.65299"
     inkscape:cy="111.22106"
     inkscape:window-x="-8"
     inkscape:window-y="-8"
     inkscape:window-maximized="1"
     inkscape:current-layer="svg92" />
  <title
     id="title2">SVG Picture created as ne555-astable-adapter-F_Fab.svg date 2021/07/18 23:47:38 </title>
  <desc
     id="desc4">Picture generated by PCBNEW </desc>
  <g
     style="fill:#000000;fill-opacity:1;stroke:#000000;stroke-linecap:round;stroke-linejoin:round;stroke-opacity:1"
     id="g6"
     transform="translate(-39230.315,-29754.472)" />
  <g
     style="fill:#000000;fill-opacity:0;stroke:#000000;stroke-width:-0.000393701;stroke-linecap:round;stroke-linejoin:round;stroke-opacity:1"
     id="g8"
     transform="translate(-39230.315,-29754.472)" />
  <g
     style="fill:#000000;fill-opacity:0;stroke:#000000;stroke-width:39.3701;stroke-linecap:round;stroke-linejoin:round;stroke-opacity:1"
     id="g36"
     transform="translate(-39230.315,-29754.472)">
    <path
       d="m 41098,35314 v -629"
       id="path10" />
    <path
       d="M 41098,34685 H 39917"
       id="path12" />
    <path
       d="m 39917,34685 v 629"
       id="path14" />
    <path
       d="m 39917,35314 h 1181"
       id="path16" />
    <path
       d="m 39643,30500 h 2107"
       id="path18" />
    <path
       d="m 41750,30500 v 4000"
       id="path20" />
    <path
       d="M 41750,34500 H 39250"
       id="path22" />
    <path
       d="M 39250,34500 V 30893"
       id="path24" />
    <path
       d="m 39250,30893 393,-393"
       id="path26" />
    <g
       id="g28" />
    <g
       id="g30" />
    <g
       id="g32" />
    <g
       id="g34" />
  </g>
  <g
     style="fill:#000000;fill-opacity:0;stroke:#000000;stroke-width:39.3701;stroke-linecap:round;stroke-linejoin:round;stroke-opacity:1"
     id="g38"
     transform="translate(-39230.315,-29754.472)" />
  <g
     style="fill:#000000;fill-opacity:0;stroke:#000000;stroke-width:59.0551;stroke-linecap:round;stroke-linejoin:round;stroke-opacity:1"
     id="g90"
     transform="translate(-39230.315,-29754.472)">
    <text
       x="40507.898"
       y="36196.898"
       textLength="1820.3"
       font-size="524.934px"
       lengthAdjust="spacingAndGlyphs"
       text-anchor="middle"
       opacity="0"
       id="text40">10 nF</text>
    <path
       d="m 39936,36178 h -225"
       id="path42" />
    <path
       d="m 39823,36178 v -394 l -37,56 -38,38 -37,18"
       id="path44" />
    <path
       d="m 40179,35784 h 38 l 37,19 19,18 19,38 19,75 v 94 l -19,75 -19,37 -19,19 -37,19 h -38 l -37,-19 -19,-19 -19,-37 -18,-75 v -94 l 18,-75 19,-38 19,-18 37,-19"
       id="path46" />
    <path
       d="m 40779,35915 v 263"
       id="path48" />
    <path
       d="m 40779,35953 19,-19 37,-19 h 57 l 37,19 19,37 v 207"
       id="path50" />
    <path
       d="m 41267,35971 h -132"
       id="path52" />
    <path
       d="m 41135,36178 v -394 h 188"
       id="path54" />
    <text
       x="40507.898"
       y="35196.898"
       textLength="845.42603"
       font-size="524.934px"
       lengthAdjust="spacingAndGlyphs"
       text-anchor="middle"
       opacity="0"
       id="text56">C1</text>
    <path
       d="m 40442,35140 -19,19 -56,19 h -38 l -56,-19 -37,-38 -19,-37 -19,-75 v -56 l 19,-75 19,-38 37,-37 56,-19 h 38 l 56,19 19,18"
       id="path58" />
    <path
       d="m 40817,35178 h -225"
       id="path60" />
    <path
       d="m 40704,35178 v -394 l -37,56 -38,38 -37,18"
       id="path62" />
    <text
       x="40500"
       y="30196.9"
       textLength="2363.99"
       font-size="524.934px"
       lengthAdjust="spacingAndGlyphs"
       text-anchor="middle"
       opacity="0"
       id="text64">NE555P</text>
    <path
       d="m 39450,30178 v -394 l 225,394 v -394"
       id="path66" />
    <path
       d="m 39862,29971 h 131"
       id="path68" />
    <path
       d="m 40050,30178 h -188 v -394 h 188"
       id="path70" />
    <path
       d="m 40406,29784 h -188 l -18,187 18,-18 38,-19 h 94 l 37,19 19,18 19,38 v 94 l -19,37 -19,19 -37,19 h -94 l -38,-19 -18,-19"
       id="path72" />
    <path
       d="m 40781,29784 h -188 l -19,187 19,-18 38,-19 h 93 l 38,19 19,18 18,38 v 94 l -18,37 -19,19 -38,19 h -93 l -38,-19 -19,-19"
       id="path74" />
    <path
       d="m 41156,29784 h -188 l -19,187 19,-18 38,-19 h 93 l 38,19 19,18 18,38 v 94 l -18,37 -19,19 -38,19 h -93 l -38,-19 -19,-19"
       id="path76" />
    <path
       d="m 41343,30178 v -394 h 150 l 38,19 18,18 19,38 v 56 l -19,38 -18,18 -38,19 h -150"
       id="path78" />
    <text
       x="40500"
       y="32796.898"
       textLength="864.17297"
       font-size="524.934px"
       lengthAdjust="spacingAndGlyphs"
       text-anchor="middle"
       opacity="0"
       id="text80">U1</text>
    <path
       d="m 40200,32384 v 319 l 18,37 19,19 38,19 h 75 l 37,-19 19,-19 19,-37 v -319"
       id="path82" />
    <path
       d="m 40818,32778 h -225"
       id="path84" />
    <path
       d="m 40706,32778 v -394 l -38,56 -37,38 -38,18"
       id="path86" />
    <g
       id="g88" />
  </g>
</svg>
