<!DOCTYPE svg PUBLIC "-//W3C//DTD SVG 1.1//EN" "http://www.w3.org/Graphics/SVG/1.1/DTD/svg11.dtd">
<svg xmlns="http://www.w3.org/2000/svg" version="1.1" width="3.1215714cm" height="2.12125cm" viewBox="0 0 12289 8351">
            <title>Picture generated by PcbDraw </title>
            <desc>Picture generated by PcbDraw</desc>
        <g transform="translate(-34356, -29000)" id="boardContainer"><g clip-path="url(#cut-off)" mask="url(#hole-mask)"><defs><clipPath id="cut-off"><path d=" M 36400.0 29400.0 L 44600.0 29400.0 L 44600.0 36600.0 L 36400.0 36600.0 L 36400.0 29400.0 " style="fill-rule: evenodd;"/></clipPath></defs><g id="substrate-board" style="fill:#4ca06c; stroke:#4ca06c;"><path d=" M 36400.0 29400.0 L 44600.0 29400.0 L 44600.0 36600.0 L 36400.0 36600.0 L 36400.0 29400.0 " style="fill-rule: evenodd;"/><g style="fill:#000000; stroke: #000000;"><g style="fill-opacity:1; stroke-opacity:1; stroke-linecap:round; stroke-linejoin:round;" transform="translate(0 0) scale(1 1)">
</g>
<g style="fill-opacity:0.0; stroke-width:-0.000393701; stroke-opacity:1; stroke-linecap:round; stroke-linejoin:round;">
</g>
<g style="fill-opacity:0.0; stroke-width:19.685; stroke-opacity:1; stroke-linecap:round; stroke-linejoin:round;">
<path d="M36400 36600 L36400 29400 "/>
<path d="M44600 36600 L36400 36600 "/>
<path d="M44600 29400 L44600 36600 "/>
<path d="M36400 29400 L44600 29400 "/>
<g>
</g>
<g>
</g>
<g>
</g>
<g>
</g>
<g>
</g>
</g> 
</g></g><g id="substrate-clad" style="fill:#9c6b28; stroke:#9c6b28;"><g style="fill-opacity:1; stroke-opacity:1; stroke-linecap:round; stroke-linejoin:round;" transform="translate(0 0) scale(1 1)">
</g>
<g style="fill-opacity:0.0; stroke-width:-0.000393701; stroke-opacity:1; stroke-linecap:round; stroke-linejoin:round;">
<g>
</g>
<g style="fill-opacity:1.0; stroke-width:0; stroke-opacity:1; stroke-linecap:round; stroke-linejoin:round;">
<circle cx="44000" cy="36000" r="354.724"/> 
<circle cx="44000" cy="35000" r="354.724"/> 
<circle cx="44000" cy="34000" r="354.724"/> 
<circle cx="44000" cy="33000" r="354.724"/> 
<circle cx="44000" cy="32000" r="354.724"/> 
<circle cx="44000" cy="31000" r="354.724"/> 
<circle cx="44000" cy="30000" r="354.724"/> 
</g>
<g style="fill-opacity:1.0; stroke-width:59.0551; stroke-opacity:1; stroke-linecap:round; stroke-linejoin:round;">
</g>
<g>
</g>
<g style="fill-opacity:1.0; stroke-width:59.0551; stroke-opacity:1; stroke-linecap:round; stroke-linejoin:round;">
</g>
<g style="fill-opacity:1.0; stroke-width:0; stroke-opacity:1; stroke-linecap:round; stroke-linejoin:round;">
<circle cx="37000" cy="36000" r="354.724"/> 
<circle cx="37000" cy="35000" r="354.724"/> 
<circle cx="37000" cy="34000" r="354.724"/> 
<circle cx="37000" cy="33000" r="354.724"/> 
<circle cx="37000" cy="32000" r="354.724"/> 
<circle cx="37000" cy="31000" r="354.724"/> 
<circle cx="37000" cy="30000" r="354.724"/> 
</g>
<g style="fill-opacity:1.0; stroke-width:59.0551; stroke-opacity:1; stroke-linecap:round; stroke-linejoin:round;">
</g>
<g>
</g>
<g style="fill-opacity:1.0; stroke-width:59.0551; stroke-opacity:1; stroke-linecap:round; stroke-linejoin:round;">
</g>
<g style="fill-opacity:1.0; stroke-width:0; stroke-opacity:1; stroke-linecap:round; stroke-linejoin:round;">
<circle cx="40015.7" cy="35000" r="335.039"/> 
</g>
<g style="fill-opacity:1.0; stroke-width:59.0551; stroke-opacity:1; stroke-linecap:round; stroke-linejoin:round;">
</g>
<g style="fill-opacity:1.0; stroke-width:0; stroke-opacity:1; stroke-linecap:round; stroke-linejoin:round;">
<circle cx="41000" cy="35000" r="335.039"/> 
</g>
<g style="fill-opacity:1.0; stroke-width:59.0551; stroke-opacity:1; stroke-linecap:round; stroke-linejoin:round;">
</g>
<g>
</g>
<g style="fill-opacity:1.0; stroke-width:59.0551; stroke-opacity:1; stroke-linecap:round; stroke-linejoin:round;">
</g>
<g style="fill-opacity:1.0; stroke-width:0; stroke-opacity:1; stroke-linecap:round; stroke-linejoin:round;">
<circle cx="42000" cy="31000" r="335.039"/> 
<circle cx="39000" cy="34000" r="335.039"/> 
<circle cx="42000" cy="32000" r="335.039"/> 
<circle cx="39000" cy="33000" r="335.039"/> 
<circle cx="42000" cy="33000" r="335.039"/> 
<circle cx="39000" cy="32000" r="335.039"/> 
<circle cx="42000" cy="34000" r="335.039"/> 
<path style="fill-opacity:1.0; stroke-width:0; stroke-opacity:1; stroke-linecap:round; stroke-linejoin:round;fill-rule:evenodd;" d="M 39316.9,30665.1 39318.9,30665.3 39320.8,30665.8 39322.6,30666.5 39324.4,30667.3 39326.1,30668.3 39327.7,30669.5 39329.2,30670.8 39330.5,30672.3 39331.7,30673.9 39332.7,30675.6 39333.5,30677.4 39334.2,30679.2 39334.7,30681.1 39334.9,30683.1 39335,30685 39335,31315 39334.9,31316.9 39334.7,31318.9 39334.2,31320.8 39333.5,31322.6 39332.7,31324.4 39331.7,31326.1 39330.5,31327.7 39329.2,31329.2 39327.7,31330.5 39326.1,31331.7 39324.4,31332.7 39322.6,31333.5 39320.8,31334.2 39318.9,31334.7 39316.9,31334.9 39315,31335 38685,31335 38683.1,31334.9 38681.1,31334.7 38679.2,31334.2 38677.4,31333.5 38675.6,31332.7 38673.9,31331.7 38672.3,31330.5 38670.8,31329.2 38669.5,31327.7 38668.3,31326.1 38667.3,31324.4 38666.5,31322.6 38665.8,31320.8 38665.3,31318.9 38665.1,31316.9 38665,31315 38665,30685 38665.1,30683.1 38665.3,30681.1 38665.8,30679.2 38666.5,30677.4 38667.3,30675.6 38668.3,30673.9 38669.5,30672.3 38670.8,30670.8 38672.3,30669.5 38673.9,30668.3 38675.6,30667.3 38677.4,30666.5 38679.2,30665.8 38681.1,30665.3 38683.1,30665.1 38685,30665 39315,30665 Z"/> 
</g>
<g>
</g>
<g>
</g>
<g>
</g>
</g> 
</g><g id="substrate-copper" style="fill:#417e5a; stroke:#417e5a;"><g style="fill-opacity:1; stroke-opacity:1; stroke-linecap:round; stroke-linejoin:round;" transform="translate(0 0) scale(1 1)">
</g>
<g style="fill-opacity:0.0; stroke-width:-0.000393701; stroke-opacity:1; stroke-linecap:round; stroke-linejoin:round;">
<g>
</g>
<g style="fill-opacity:1.0; stroke-width:0; stroke-opacity:1; stroke-linecap:round; stroke-linejoin:round;">
<circle cx="44000" cy="36000" r="334.646"/> 
<circle cx="44000" cy="35000" r="334.646"/> 
<circle cx="44000" cy="34000" r="334.646"/> 
<circle cx="44000" cy="33000" r="334.646"/> 
<circle cx="44000" cy="32000" r="334.646"/> 
<circle cx="44000" cy="31000" r="334.646"/> 
<circle cx="44000" cy="30000" r="334.646"/> 
</g>
<g style="fill-opacity:1.0; stroke-width:59.0551; stroke-opacity:1; stroke-linecap:round; stroke-linejoin:round;">
</g>
<g>
</g>
<g style="fill-opacity:1.0; stroke-width:59.0551; stroke-opacity:1; stroke-linecap:round; stroke-linejoin:round;">
</g>
<g style="fill-opacity:1.0; stroke-width:0; stroke-opacity:1; stroke-linecap:round; stroke-linejoin:round;">
<circle cx="37000" cy="36000" r="334.646"/> 
<circle cx="37000" cy="35000" r="334.646"/> 
<circle cx="37000" cy="34000" r="334.646"/> 
<circle cx="37000" cy="33000" r="334.646"/> 
<circle cx="37000" cy="32000" r="334.646"/> 
<circle cx="37000" cy="31000" r="334.646"/> 
<circle cx="37000" cy="30000" r="334.646"/> 
</g>
<g style="fill-opacity:1.0; stroke-width:59.0551; stroke-opacity:1; stroke-linecap:round; stroke-linejoin:round;">
</g>
<g>
</g>
<g style="fill-opacity:1.0; stroke-width:59.0551; stroke-opacity:1; stroke-linecap:round; stroke-linejoin:round;">
</g>
<g style="fill-opacity:1.0; stroke-width:0; stroke-opacity:1; stroke-linecap:round; stroke-linejoin:round;">
<circle cx="40015.7" cy="35000" r="314.961"/> 
</g>
<g style="fill-opacity:1.0; stroke-width:59.0551; stroke-opacity:1; stroke-linecap:round; stroke-linejoin:round;">
</g>
<g style="fill-opacity:1.0; stroke-width:0; stroke-opacity:1; stroke-linecap:round; stroke-linejoin:round;">
<circle cx="41000" cy="35000" r="314.961"/> 
</g>
<g style="fill-opacity:1.0; stroke-width:59.0551; stroke-opacity:1; stroke-linecap:round; stroke-linejoin:round;">
</g>
<g>
</g>
<g style="fill-opacity:1.0; stroke-width:59.0551; stroke-opacity:1; stroke-linecap:round; stroke-linejoin:round;">
</g>
<g style="fill-opacity:1.0; stroke-width:0; stroke-opacity:1; stroke-linecap:round; stroke-linejoin:round;">
<circle cx="42000" cy="31000" r="314.961"/> 
<circle cx="39000" cy="34000" r="314.961"/> 
<circle cx="42000" cy="32000" r="314.961"/> 
<circle cx="39000" cy="33000" r="314.961"/> 
<circle cx="42000" cy="33000" r="314.961"/> 
<circle cx="39000" cy="32000" r="314.961"/> 
<circle cx="42000" cy="34000" r="314.961"/> 
<path style="fill-opacity:1.0; stroke-width:0; stroke-opacity:1; stroke-linecap:round; stroke-linejoin:round;fill-rule:evenodd;" d="M 38685,31315 38685,30685 39315,30685 39315,31315 Z"/> 
</g>
<g>
</g>
<g>
</g>
<g style="fill-opacity:1.0; stroke-width:0; stroke-opacity:1; stroke-linecap:round; stroke-linejoin:round;">
</g>
<g style="fill-opacity:1.0; stroke-width:236.22; stroke-opacity:1; stroke-linecap:round; stroke-linejoin:round;">
</g>
<g style="fill-opacity:0.0; stroke-width:236.22; stroke-opacity:1; stroke-linecap:round; stroke-linejoin:round;">
<path d="M44000 32000 L44000 31000 "/>
<path d="M44000 31000 L43000 30000 "/>
<path d="M43000 30000 L38000 30000 "/>
<path d="M38000 30000 L37000 31000 "/>
<path d="M37000 31000 L39000 33000 "/>
<path d="M43000 32000 L44000 33000 "/>
<path d="M42000 32000 L43000 32000 "/>
<path d="M44000 33000 L44000 34000 "/>
<path d="M39000 34000 L42000 31000 "/>
</g>
<g>
</g>
<g style="fill-opacity:0.0; stroke-width:236.22; stroke-opacity:1; stroke-linecap:round; stroke-linejoin:round;">
<g>
</g>
<g style="fill-opacity:1.0; stroke-width:100; stroke-opacity:1; stroke-linecap:round; stroke-linejoin:round;">
<path style="fill-opacity:1.0; stroke-width:100; stroke-opacity:1; stroke-linecap:round; stroke-linejoin:round;fill-rule:evenodd;" d="M 41516.9,31952.4 41516.9,32047.6 41535.5,32140.9 41571.9,32228.8 41624.8,32307.9 41692.1,32375.2 41771.2,32428.1 41859.1,32464.5 41952.4,32483.1 42047.6,32483.1 42140.9,32464.5 42228.8,32428.1 42307.9,32375.2 42375.2,32307.9 42389.7,32286.2 42881.4,32286.2 43505.3,32910.1 43497.2,32950.5 43497.2,33049.5 43516.6,33146.6 43554.5,33238.1 43609.5,33320.5 43679.5,33390.5 43713.8,33413.4 43713.8,33586.6 43679.5,33609.5 43609.5,33679.5 43554.5,33761.9 43516.6,33853.4 43497.2,33950.5 43497.2,34049.5 43516.6,34146.6 43554.5,34238.1 43609.5,34320.5 43679.5,34390.5 43761.9,34445.5 43853.4,34483.4 43936.6,34500 43853.4,34516.6 43761.9,34554.5 43679.5,34609.5 43609.5,34679.5 43554.5,34761.9 43516.6,34853.4 43497.2,34950.5 43497.2,35049.5 43516.6,35146.6 43554.5,35238.1 43609.5,35320.5 43679.5,35390.5 43761.9,35445.5 43789.9,35457.2 43751.5,35470.8 43653,35529.5 43567.9,35606.2 43499.4,35698.1 43450.1,35801.5 43432.5,35859.5 43480.3,35950 43950,35950 43950,35942.1 44050,35942.1 44050,35950 44057.9,35950 44057.9,36050 44050,36050 44050,36057.9 43950,36057.9 43950,36050 43480.3,36050 43432.5,36140.5 43450.1,36198.5 43499.4,36301.9 43567.9,36393.8 43619.3,36440.2 37380.7,36440.2 37432.1,36393.8 37500.6,36301.9 37549.9,36198.5 37567.5,36140.5 37519.7,36050 37050,36050 37050,36057.9 36950,36057.9 36950,36050 36942.1,36050 36942.1,35950 36950,35950 36950,35942.1 37050,35942.1 37050,35950 37519.7,35950 37567.5,35859.5 37549.9,35801.5 37500.6,35698.1 37432.1,35606.2 37347,35529.5 37248.5,35470.8 37210.1,35457.2 37238.1,35445.5 37320,35390.8 39695.6,35390.8 39723.8,35486.9 39824.4,35534.5 39932.4,35561.5 40043.5,35567 40153.6,35550.7 40258.4,35513.2 40307.7,35486.9 40335.9,35390.8 40015.7,35070.7 39695.6,35390.8 37320,35390.8 37320.5,35390.5 37390.5,35320.5 37445.5,35238.1 37483.4,35146.6 37502.8,35049.5 37502.8,35027.8 39448.7,35027.8 39465,35137.8 39502.5,35242.6 39528.9,35291.9 39624.9,35320.1 39945,35000 40086.5,35000 40406.6,35320.1 40502.6,35291.9 40550.2,35191.3 40552.5,35182.1 40571.9,35228.8 40624.8,35307.9 40692.1,35375.2 40771.2,35428.1 40859.1,35464.5 40952.4,35483.1 41047.6,35483.1 41140.9,35464.5 41228.8,35428.1 41307.9,35375.2 41375.2,35307.9 41428.1,35228.8 41464.5,35140.9 41483.1,35047.6 41483.1,34952.4 41464.5,34859.1 41428.1,34771.2 41375.2,34692.1 41307.9,34624.8 41228.8,34571.9 41140.9,34535.5 41047.6,34516.9 40952.4,34516.9 40859.1,34535.5 40771.2,34571.9 40692.1,34624.8 40624.8,34692.1 40571.9,34771.2 40551.5,34820.4 40529,34757.4 40502.6,34708.1 40406.6,34679.9 40086.5,35000 39945,35000 39624.9,34679.9 39528.9,34708.1 39481.3,34808.7 39454.2,34916.6 39448.7,35027.8 37502.8,35027.8 37502.8,34950.5 37483.4,34853.4 37445.5,34761.9 37390.5,34679.5 37320.5,34609.5 37320,34609.2 39695.6,34609.2 40015.7,34929.3 40335.9,34609.2 40307.7,34513.1 40207.1,34465.5 40099.1,34438.5 39988,34433 39877.9,34449.3 39773.1,34486.8 39723.8,34513.1 39695.6,34609.2 37320,34609.2 37238.1,34554.5 37146.6,34516.6 37063.4,34500 37146.6,34483.4 37238.1,34445.5 37320.5,34390.5 37390.5,34320.5 37445.5,34238.1 37483.4,34146.6 37502.8,34049.5 37502.8,33950.5 37483.4,33853.4 37445.5,33761.9 37390.5,33679.5 37320.5,33609.5 37238.1,33554.5 37146.6,33516.6 37063.4,33500 37146.6,33483.4 37238.1,33445.5 37320.5,33390.5 37390.5,33320.5 37445.5,33238.1 37483.4,33146.6 37502.8,33049.5 37502.8,32950.5 37483.4,32853.4 37445.5,32761.9 37390.5,32679.5 37320.5,32609.5 37238.1,32554.5 37210.1,32542.8 37248.5,32529.2 37347,32470.5 37432.1,32393.8 37500.6,32301.9 37549.9,32198.5 37567.5,32140.5 37519.7,32050 37050,32050 37050,32057.9 36950,32057.9 36950,32050 36942.1,32050 36942.1,31950 36950,31950 36950,31942.1 37050,31942.1 37050,31950 37519.7,31950 37528.5,31933.3 38522,32926.8 38516.9,32952.4 38516.9,33047.6 38535.5,33140.9 38571.9,33228.8 38624.8,33307.9 38692.1,33375.2 38771.2,33428.1 38859.1,33464.5 38952.4,33483.1 39047.6,33483.1 39128.2,33467 39073.2,33522 39047.6,33516.9 38952.4,33516.9 38859.1,33535.5 38771.2,33571.9 38692.1,33624.8 38624.8,33692.1 38571.9,33771.2 38535.5,33859.1 38516.9,33952.4 38516.9,34047.6 38535.5,34140.9 38571.9,34228.8 38624.8,34307.9 38692.1,34375.2 38771.2,34428.1 38859.1,34464.5 38952.4,34483.1 39047.6,34483.1 39140.9,34464.5 39228.8,34428.1 39307.9,34375.2 39375.2,34307.9 39428.1,34228.8 39464.5,34140.9 39483.1,34047.6 39483.1,33952.4 41516.9,33952.4 41516.9,34047.6 41535.5,34140.9 41571.9,34228.8 41624.8,34307.9 41692.1,34375.2 41771.2,34428.1 41859.1,34464.5 41952.4,34483.1 42047.6,34483.1 42140.9,34464.5 42228.8,34428.1 42307.9,34375.2 42375.2,34307.9 42428.1,34228.8 42464.5,34140.9 42483.1,34047.6 42483.1,33952.4 42464.5,33859.1 42428.1,33771.2 42375.2,33692.1 42307.9,33624.8 42228.8,33571.9 42140.9,33535.5 42047.6,33516.9 41952.4,33516.9 41859.1,33535.5 41771.2,33571.9 41692.1,33624.8 41624.8,33692.1 41571.9,33771.2 41535.5,33859.1 41516.9,33952.4 39483.1,33952.4 39478,33926.8 40452.4,32952.4 41516.9,32952.4 41516.9,33047.6 41535.5,33140.9 41571.9,33228.8 41624.8,33307.9 41692.1,33375.2 41771.2,33428.1 41859.1,33464.5 41952.4,33483.1 42047.6,33483.1 42140.9,33464.5 42228.8,33428.1 42307.9,33375.2 42375.2,33307.9 42428.1,33228.8 42464.5,33140.9 42483.1,33047.6 42483.1,32952.4 42464.5,32859.1 42428.1,32771.2 42375.2,32692.1 42307.9,32624.8 42228.8,32571.9 42140.9,32535.5 42047.6,32516.9 41952.4,32516.9 41859.1,32535.5 41771.2,32571.9 41692.1,32624.8 41624.8,32692.1 41571.9,32771.2 41535.5,32859.1 41516.9,32952.4 40452.4,32952.4 41533,31871.8 Z"/> 
<path style="fill-opacity:1.0; stroke-width:100; stroke-opacity:1; stroke-linecap:round; stroke-linejoin:round;fill-rule:evenodd;" d="M 43505.3,30910.1 43497.2,30950.5 43497.2,31049.5 43516.6,31146.6 43554.5,31238.1 43609.5,31320.5 43679.5,31390.5 43713.8,31413.4 43713.8,31586.6 43679.5,31609.5 43609.5,31679.5 43554.5,31761.9 43516.6,31853.4 43497.2,31950.5 43497.2,32049.5 43507.9,32103.1 43212.3,31807.6 43203.4,31796.6 43159.8,31760.9 43110.1,31734.3 43056.1,31717.9 43014.1,31713.8 43000,31712.4 42985.9,31713.8 42389.7,31713.8 42375.2,31692.1 42307.9,31624.8 42228.8,31571.9 42140.9,31535.5 42047.6,31516.9 41952.4,31516.9 41871.8,31533 41926.8,31478 41952.4,31483.1 42047.6,31483.1 42140.9,31464.5 42228.8,31428.1 42307.9,31375.2 42375.2,31307.9 42428.1,31228.8 42464.5,31140.9 42483.1,31047.6 42483.1,30952.4 42464.5,30859.1 42428.1,30771.2 42375.2,30692.1 42307.9,30624.8 42228.8,30571.9 42140.9,30535.5 42047.6,30516.9 41952.4,30516.9 41859.1,30535.5 41771.2,30571.9 41692.1,30624.8 41624.8,30692.1 41571.9,30771.2 41535.5,30859.1 41516.9,30952.4 41516.9,31047.6 41522,31073.2 39467,33128.2 39483.1,33047.6 39483.1,32952.4 39464.5,32859.1 39428.1,32771.2 39375.2,32692.1 39307.9,32624.8 39228.8,32571.9 39140.9,32535.5 39047.6,32516.9 38952.4,32516.9 38926.8,32522 38871.8,32467 38952.4,32483.1 39047.6,32483.1 39140.9,32464.5 39228.8,32428.1 39307.9,32375.2 39375.2,32307.9 39428.1,32228.8 39464.5,32140.9 39483.1,32047.6 39483.1,31952.4 39464.5,31859.1 39428.1,31771.2 39375.2,31692.1 39307.9,31624.8 39228.8,31571.9 39213.5,31565.6 39315,31566.2 39364,31561.3 39411.1,31547 39454.5,31523.8 39492.6,31492.6 39523.8,31454.5 39547,31411.1 39561.3,31364 39566.2,31315 39565,31112.5 39502.5,31050 39050,31050 39050,31057.9 38950,31057.9 38950,31050 38497.5,31050 38435,31112.5 38433.8,31315 38438.7,31364 38453,31411.1 38476.2,31454.5 38507.4,31492.6 38545.5,31523.8 38588.9,31547 38636,31561.3 38685,31566.2 38786.5,31565.6 38771.2,31571.9 38692.1,31624.8 38624.8,31692.1 38571.9,31771.2 38535.5,31859.1 38516.9,31952.4 38516.9,32047.6 38533,32128.2 37494.7,31089.9 37502.8,31049.5 37502.8,30950.5 37494.7,30910.1 37719.7,30685 38433.8,30685 38435,30887.5 38497.5,30950 38950,30950 38950,30497.5 39050,30497.5 39050,30950 39502.5,30950 39565,30887.5 39566.2,30685 39561.3,30636 39547,30588.9 39523.8,30545.5 39492.6,30507.4 39454.5,30476.2 39411.1,30453 39364,30438.7 39315,30433.8 39112.5,30435 39050,30497.5 38950,30497.5 38887.5,30435 38685,30433.8 38636,30438.7 38588.9,30453 38545.5,30476.2 38507.4,30507.4 38476.2,30545.5 38453,30588.9 38438.7,30636 38433.8,30685 37719.7,30685 38118.6,30286.2 42881.4,30286.2 Z"/> 
</g>
</g>
</g>
<g style="fill-opacity:1.0; stroke-width:100; stroke-opacity:1; stroke-linecap:round; stroke-linejoin:round;">
</g>
<g style="fill-opacity:1.0; stroke-width:0; stroke-opacity:1; stroke-linecap:round; stroke-linejoin:round;">
<circle cx="44000" cy="36000" r="68.8976"/> 
</g>
<g style="fill-opacity:1.0; stroke-width:59.0551; stroke-opacity:1; stroke-linecap:round; stroke-linejoin:round;">
</g>
<g style="fill-opacity:1.0; stroke-width:0; stroke-opacity:1; stroke-linecap:round; stroke-linejoin:round;">
<circle cx="44000" cy="35000" r="68.8976"/> 
</g>
<g style="fill-opacity:1.0; stroke-width:59.0551; stroke-opacity:1; stroke-linecap:round; stroke-linejoin:round;">
</g>
<g style="fill-opacity:1.0; stroke-width:0; stroke-opacity:1; stroke-linecap:round; stroke-linejoin:round;">
<circle cx="44000" cy="34000" r="68.8976"/> 
</g>
<g style="fill-opacity:1.0; stroke-width:59.0551; stroke-opacity:1; stroke-linecap:round; stroke-linejoin:round;">
</g>
<g style="fill-opacity:1.0; stroke-width:0; stroke-opacity:1; stroke-linecap:round; stroke-linejoin:round;">
<circle cx="44000" cy="33000" r="68.8976"/> 
</g>
<g style="fill-opacity:1.0; stroke-width:59.0551; stroke-opacity:1; stroke-linecap:round; stroke-linejoin:round;">
</g>
<g style="fill-opacity:1.0; stroke-width:0; stroke-opacity:1; stroke-linecap:round; stroke-linejoin:round;">
<circle cx="44000" cy="32000" r="68.8976"/> 
</g>
<g style="fill-opacity:1.0; stroke-width:59.0551; stroke-opacity:1; stroke-linecap:round; stroke-linejoin:round;">
</g>
<g style="fill-opacity:1.0; stroke-width:0; stroke-opacity:1; stroke-linecap:round; stroke-linejoin:round;">
<circle cx="44000" cy="31000" r="68.8976"/> 
</g>
<g style="fill-opacity:1.0; stroke-width:59.0551; stroke-opacity:1; stroke-linecap:round; stroke-linejoin:round;">
</g>
<g style="fill-opacity:1.0; stroke-width:0; stroke-opacity:1; stroke-linecap:round; stroke-linejoin:round;">
<circle cx="44000" cy="30000" r="68.8976"/> 
</g>
<g style="fill-opacity:1.0; stroke-width:59.0551; stroke-opacity:1; stroke-linecap:round; stroke-linejoin:round;">
</g>
<g style="fill-opacity:1.0; stroke-width:0; stroke-opacity:1; stroke-linecap:round; stroke-linejoin:round;">
<circle cx="37000" cy="36000" r="68.8976"/> 
</g>
<g style="fill-opacity:1.0; stroke-width:59.0551; stroke-opacity:1; stroke-linecap:round; stroke-linejoin:round;">
</g>
<g style="fill-opacity:1.0; stroke-width:0; stroke-opacity:1; stroke-linecap:round; stroke-linejoin:round;">
<circle cx="37000" cy="35000" r="68.8976"/> 
</g>
<g style="fill-opacity:1.0; stroke-width:59.0551; stroke-opacity:1; stroke-linecap:round; stroke-linejoin:round;">
</g>
<g style="fill-opacity:1.0; stroke-width:0; stroke-opacity:1; stroke-linecap:round; stroke-linejoin:round;">
<circle cx="37000" cy="34000" r="68.8976"/> 
</g>
<g style="fill-opacity:1.0; stroke-width:59.0551; stroke-opacity:1; stroke-linecap:round; stroke-linejoin:round;">
</g>
<g style="fill-opacity:1.0; stroke-width:0; stroke-opacity:1; stroke-linecap:round; stroke-linejoin:round;">
<circle cx="37000" cy="33000" r="68.8976"/> 
</g>
<g style="fill-opacity:1.0; stroke-width:59.0551; stroke-opacity:1; stroke-linecap:round; stroke-linejoin:round;">
</g>
<g style="fill-opacity:1.0; stroke-width:0; stroke-opacity:1; stroke-linecap:round; stroke-linejoin:round;">
<circle cx="37000" cy="32000" r="68.8976"/> 
</g>
<g style="fill-opacity:1.0; stroke-width:59.0551; stroke-opacity:1; stroke-linecap:round; stroke-linejoin:round;">
</g>
<g style="fill-opacity:1.0; stroke-width:0; stroke-opacity:1; stroke-linecap:round; stroke-linejoin:round;">
<circle cx="37000" cy="31000" r="68.8976"/> 
</g>
<g style="fill-opacity:1.0; stroke-width:59.0551; stroke-opacity:1; stroke-linecap:round; stroke-linejoin:round;">
</g>
<g style="fill-opacity:1.0; stroke-width:0; stroke-opacity:1; stroke-linecap:round; stroke-linejoin:round;">
<circle cx="37000" cy="30000" r="68.8976"/> 
</g>
<g style="fill-opacity:1.0; stroke-width:59.0551; stroke-opacity:1; stroke-linecap:round; stroke-linejoin:round;">
</g>
<g style="fill-opacity:1.0; stroke-width:0; stroke-opacity:1; stroke-linecap:round; stroke-linejoin:round;">
<circle cx="40015.7" cy="35000" r="68.8976"/> 
</g>
<g style="fill-opacity:1.0; stroke-width:59.0551; stroke-opacity:1; stroke-linecap:round; stroke-linejoin:round;">
</g>
<g style="fill-opacity:1.0; stroke-width:0; stroke-opacity:1; stroke-linecap:round; stroke-linejoin:round;">
<circle cx="41000" cy="35000" r="68.8976"/> 
</g>
<g style="fill-opacity:1.0; stroke-width:59.0551; stroke-opacity:1; stroke-linecap:round; stroke-linejoin:round;">
</g>
<g style="fill-opacity:1.0; stroke-width:0; stroke-opacity:1; stroke-linecap:round; stroke-linejoin:round;">
<circle cx="42000" cy="31000" r="68.8976"/> 
</g>
<g style="fill-opacity:1.0; stroke-width:59.0551; stroke-opacity:1; stroke-linecap:round; stroke-linejoin:round;">
</g>
<g style="fill-opacity:1.0; stroke-width:0; stroke-opacity:1; stroke-linecap:round; stroke-linejoin:round;">
<circle cx="39000" cy="34000" r="68.8976"/> 
</g>
<g style="fill-opacity:1.0; stroke-width:59.0551; stroke-opacity:1; stroke-linecap:round; stroke-linejoin:round;">
</g>
<g style="fill-opacity:1.0; stroke-width:0; stroke-opacity:1; stroke-linecap:round; stroke-linejoin:round;">
<circle cx="42000" cy="32000" r="68.8976"/> 
</g>
<g style="fill-opacity:1.0; stroke-width:59.0551; stroke-opacity:1; stroke-linecap:round; stroke-linejoin:round;">
</g>
<g style="fill-opacity:1.0; stroke-width:0; stroke-opacity:1; stroke-linecap:round; stroke-linejoin:round;">
<circle cx="39000" cy="33000" r="68.8976"/> 
</g>
<g style="fill-opacity:1.0; stroke-width:59.0551; stroke-opacity:1; stroke-linecap:round; stroke-linejoin:round;">
</g>
<g style="fill-opacity:1.0; stroke-width:0; stroke-opacity:1; stroke-linecap:round; stroke-linejoin:round;">
<circle cx="42000" cy="33000" r="68.8976"/> 
</g>
<g style="fill-opacity:1.0; stroke-width:59.0551; stroke-opacity:1; stroke-linecap:round; stroke-linejoin:round;">
</g>
<g style="fill-opacity:1.0; stroke-width:0; stroke-opacity:1; stroke-linecap:round; stroke-linejoin:round;">
<circle cx="39000" cy="32000" r="68.8976"/> 
</g>
<g style="fill-opacity:1.0; stroke-width:59.0551; stroke-opacity:1; stroke-linecap:round; stroke-linejoin:round;">
</g>
<g style="fill-opacity:1.0; stroke-width:0; stroke-opacity:1; stroke-linecap:round; stroke-linejoin:round;">
<circle cx="42000" cy="34000" r="68.8976"/> 
</g>
<g style="fill-opacity:1.0; stroke-width:59.0551; stroke-opacity:1; stroke-linecap:round; stroke-linejoin:round;">
</g>
<g style="fill-opacity:1.0; stroke-width:0; stroke-opacity:1; stroke-linecap:round; stroke-linejoin:round;">
<circle cx="39000" cy="31000" r="68.8976"/> 
</g>
<g style="fill-opacity:1.0; stroke-width:59.0551; stroke-opacity:1; stroke-linecap:round; stroke-linejoin:round;">
</g>
<g style="fill-opacity:1.0; stroke-width:59.0551; stroke-opacity:1; stroke-linecap:round; stroke-linejoin:round;">
</g> 
</g><g id="substrate-pads" style="fill:#b5ae30; stroke:#b5ae30;" mask="url(#pads-mask)"><g style="fill-opacity:1; stroke-opacity:1; stroke-linecap:round; stroke-linejoin:round;" transform="translate(0 0) scale(1 1)">
</g>
<g style="fill-opacity:0.0; stroke-width:-0.000393701; stroke-opacity:1; stroke-linecap:round; stroke-linejoin:round;">
<g>
</g>
<g style="fill-opacity:1.0; stroke-width:0; stroke-opacity:1; stroke-linecap:round; stroke-linejoin:round;">
<circle cx="44000" cy="36000" r="334.646"/> 
<circle cx="44000" cy="35000" r="334.646"/> 
<circle cx="44000" cy="34000" r="334.646"/> 
<circle cx="44000" cy="33000" r="334.646"/> 
<circle cx="44000" cy="32000" r="334.646"/> 
<circle cx="44000" cy="31000" r="334.646"/> 
<circle cx="44000" cy="30000" r="334.646"/> 
</g>
<g style="fill-opacity:1.0; stroke-width:59.0551; stroke-opacity:1; stroke-linecap:round; stroke-linejoin:round;">
</g>
<g>
</g>
<g style="fill-opacity:1.0; stroke-width:59.0551; stroke-opacity:1; stroke-linecap:round; stroke-linejoin:round;">
</g>
<g style="fill-opacity:1.0; stroke-width:0; stroke-opacity:1; stroke-linecap:round; stroke-linejoin:round;">
<circle cx="37000" cy="36000" r="334.646"/> 
<circle cx="37000" cy="35000" r="334.646"/> 
<circle cx="37000" cy="34000" r="334.646"/> 
<circle cx="37000" cy="33000" r="334.646"/> 
<circle cx="37000" cy="32000" r="334.646"/> 
<circle cx="37000" cy="31000" r="334.646"/> 
<circle cx="37000" cy="30000" r="334.646"/> 
</g>
<g style="fill-opacity:1.0; stroke-width:59.0551; stroke-opacity:1; stroke-linecap:round; stroke-linejoin:round;">
</g>
<g>
</g>
<g style="fill-opacity:1.0; stroke-width:59.0551; stroke-opacity:1; stroke-linecap:round; stroke-linejoin:round;">
</g>
<g style="fill-opacity:1.0; stroke-width:0; stroke-opacity:1; stroke-linecap:round; stroke-linejoin:round;">
<circle cx="40015.7" cy="35000" r="314.961"/> 
</g>
<g style="fill-opacity:1.0; stroke-width:59.0551; stroke-opacity:1; stroke-linecap:round; stroke-linejoin:round;">
</g>
<g style="fill-opacity:1.0; stroke-width:0; stroke-opacity:1; stroke-linecap:round; stroke-linejoin:round;">
<circle cx="41000" cy="35000" r="314.961"/> 
</g>
<g style="fill-opacity:1.0; stroke-width:59.0551; stroke-opacity:1; stroke-linecap:round; stroke-linejoin:round;">
</g>
<g>
</g>
<g style="fill-opacity:1.0; stroke-width:59.0551; stroke-opacity:1; stroke-linecap:round; stroke-linejoin:round;">
</g>
<g style="fill-opacity:1.0; stroke-width:0; stroke-opacity:1; stroke-linecap:round; stroke-linejoin:round;">
<circle cx="42000" cy="31000" r="314.961"/> 
<circle cx="39000" cy="34000" r="314.961"/> 
<circle cx="42000" cy="32000" r="314.961"/> 
<circle cx="39000" cy="33000" r="314.961"/> 
<circle cx="42000" cy="33000" r="314.961"/> 
<circle cx="39000" cy="32000" r="314.961"/> 
<circle cx="42000" cy="34000" r="314.961"/> 
<path style="fill-opacity:1.0; stroke-width:0; stroke-opacity:1; stroke-linecap:round; stroke-linejoin:round;fill-rule:evenodd;" d="M 38685,31315 38685,30685 39315,30685 39315,31315 Z"/> 
</g>
<g>
</g>
<g>
</g>
<g style="fill-opacity:1.0; stroke-width:0; stroke-opacity:1; stroke-linecap:round; stroke-linejoin:round;">
</g>
<g style="fill-opacity:1.0; stroke-width:236.22; stroke-opacity:1; stroke-linecap:round; stroke-linejoin:round;">
</g>
<g style="fill-opacity:0.0; stroke-width:236.22; stroke-opacity:1; stroke-linecap:round; stroke-linejoin:round;">
<path d="M44000 32000 L44000 31000 "/>
<path d="M44000 31000 L43000 30000 "/>
<path d="M43000 30000 L38000 30000 "/>
<path d="M38000 30000 L37000 31000 "/>
<path d="M37000 31000 L39000 33000 "/>
<path d="M43000 32000 L44000 33000 "/>
<path d="M42000 32000 L43000 32000 "/>
<path d="M44000 33000 L44000 34000 "/>
<path d="M39000 34000 L42000 31000 "/>
</g>
<g>
</g>
<g style="fill-opacity:0.0; stroke-width:236.22; stroke-opacity:1; stroke-linecap:round; stroke-linejoin:round;">
<g>
</g>
<g style="fill-opacity:1.0; stroke-width:100; stroke-opacity:1; stroke-linecap:round; stroke-linejoin:round;">
<path style="fill-opacity:1.0; stroke-width:100; stroke-opacity:1; stroke-linecap:round; stroke-linejoin:round;fill-rule:evenodd;" d="M 41516.9,31952.4 41516.9,32047.6 41535.5,32140.9 41571.9,32228.8 41624.8,32307.9 41692.1,32375.2 41771.2,32428.1 41859.1,32464.5 41952.4,32483.1 42047.6,32483.1 42140.9,32464.5 42228.8,32428.1 42307.9,32375.2 42375.2,32307.9 42389.7,32286.2 42881.4,32286.2 43505.3,32910.1 43497.2,32950.5 43497.2,33049.5 43516.6,33146.6 43554.5,33238.1 43609.5,33320.5 43679.5,33390.5 43713.8,33413.4 43713.8,33586.6 43679.5,33609.5 43609.5,33679.5 43554.5,33761.9 43516.6,33853.4 43497.2,33950.5 43497.2,34049.5 43516.6,34146.6 43554.5,34238.1 43609.5,34320.5 43679.5,34390.5 43761.9,34445.5 43853.4,34483.4 43936.6,34500 43853.4,34516.6 43761.9,34554.5 43679.5,34609.5 43609.5,34679.5 43554.5,34761.9 43516.6,34853.4 43497.2,34950.5 43497.2,35049.5 43516.6,35146.6 43554.5,35238.1 43609.5,35320.5 43679.5,35390.5 43761.9,35445.5 43789.9,35457.2 43751.5,35470.8 43653,35529.5 43567.9,35606.2 43499.4,35698.1 43450.1,35801.5 43432.5,35859.5 43480.3,35950 43950,35950 43950,35942.1 44050,35942.1 44050,35950 44057.9,35950 44057.9,36050 44050,36050 44050,36057.9 43950,36057.9 43950,36050 43480.3,36050 43432.5,36140.5 43450.1,36198.5 43499.4,36301.9 43567.9,36393.8 43619.3,36440.2 37380.7,36440.2 37432.1,36393.8 37500.6,36301.9 37549.9,36198.5 37567.5,36140.5 37519.7,36050 37050,36050 37050,36057.9 36950,36057.9 36950,36050 36942.1,36050 36942.1,35950 36950,35950 36950,35942.1 37050,35942.1 37050,35950 37519.7,35950 37567.5,35859.5 37549.9,35801.5 37500.6,35698.1 37432.1,35606.2 37347,35529.5 37248.5,35470.8 37210.1,35457.2 37238.1,35445.5 37320,35390.8 39695.6,35390.8 39723.8,35486.9 39824.4,35534.5 39932.4,35561.5 40043.5,35567 40153.6,35550.7 40258.4,35513.2 40307.7,35486.9 40335.9,35390.8 40015.7,35070.7 39695.6,35390.8 37320,35390.8 37320.5,35390.5 37390.5,35320.5 37445.5,35238.1 37483.4,35146.6 37502.8,35049.5 37502.8,35027.8 39448.7,35027.8 39465,35137.8 39502.5,35242.6 39528.9,35291.9 39624.9,35320.1 39945,35000 40086.5,35000 40406.6,35320.1 40502.6,35291.9 40550.2,35191.3 40552.5,35182.1 40571.9,35228.8 40624.8,35307.9 40692.1,35375.2 40771.2,35428.1 40859.1,35464.5 40952.4,35483.1 41047.6,35483.1 41140.9,35464.5 41228.8,35428.1 41307.9,35375.2 41375.2,35307.9 41428.1,35228.8 41464.5,35140.9 41483.1,35047.6 41483.1,34952.4 41464.5,34859.1 41428.1,34771.2 41375.2,34692.1 41307.9,34624.8 41228.8,34571.9 41140.9,34535.5 41047.6,34516.9 40952.4,34516.9 40859.1,34535.5 40771.2,34571.9 40692.1,34624.8 40624.8,34692.1 40571.9,34771.2 40551.5,34820.4 40529,34757.4 40502.6,34708.1 40406.6,34679.9 40086.5,35000 39945,35000 39624.9,34679.9 39528.9,34708.1 39481.3,34808.7 39454.2,34916.6 39448.7,35027.8 37502.8,35027.8 37502.8,34950.5 37483.4,34853.4 37445.5,34761.9 37390.5,34679.5 37320.5,34609.5 37320,34609.2 39695.6,34609.2 40015.7,34929.3 40335.9,34609.2 40307.7,34513.1 40207.1,34465.5 40099.1,34438.5 39988,34433 39877.9,34449.3 39773.1,34486.8 39723.8,34513.1 39695.6,34609.2 37320,34609.2 37238.1,34554.5 37146.6,34516.6 37063.4,34500 37146.6,34483.4 37238.1,34445.5 37320.5,34390.5 37390.5,34320.5 37445.5,34238.1 37483.4,34146.6 37502.8,34049.5 37502.8,33950.5 37483.4,33853.4 37445.5,33761.9 37390.5,33679.5 37320.5,33609.5 37238.1,33554.5 37146.6,33516.6 37063.4,33500 37146.6,33483.4 37238.1,33445.5 37320.5,33390.5 37390.5,33320.5 37445.5,33238.1 37483.4,33146.6 37502.8,33049.5 37502.8,32950.5 37483.4,32853.4 37445.5,32761.9 37390.5,32679.5 37320.5,32609.5 37238.1,32554.5 37210.1,32542.8 37248.5,32529.2 37347,32470.5 37432.1,32393.8 37500.6,32301.9 37549.9,32198.5 37567.5,32140.5 37519.7,32050 37050,32050 37050,32057.9 36950,32057.9 36950,32050 36942.1,32050 36942.1,31950 36950,31950 36950,31942.1 37050,31942.1 37050,31950 37519.7,31950 37528.5,31933.3 38522,32926.8 38516.9,32952.4 38516.9,33047.6 38535.5,33140.9 38571.9,33228.8 38624.8,33307.9 38692.1,33375.2 38771.2,33428.1 38859.1,33464.5 38952.4,33483.1 39047.6,33483.1 39128.2,33467 39073.2,33522 39047.6,33516.9 38952.4,33516.9 38859.1,33535.5 38771.2,33571.9 38692.1,33624.8 38624.8,33692.1 38571.9,33771.2 38535.5,33859.1 38516.9,33952.4 38516.9,34047.6 38535.5,34140.9 38571.9,34228.8 38624.8,34307.9 38692.1,34375.2 38771.2,34428.1 38859.1,34464.5 38952.4,34483.1 39047.6,34483.1 39140.9,34464.5 39228.8,34428.1 39307.9,34375.2 39375.2,34307.9 39428.1,34228.8 39464.5,34140.9 39483.1,34047.6 39483.1,33952.4 41516.9,33952.4 41516.9,34047.6 41535.5,34140.9 41571.9,34228.8 41624.8,34307.9 41692.1,34375.2 41771.2,34428.1 41859.1,34464.5 41952.4,34483.1 42047.6,34483.1 42140.9,34464.5 42228.8,34428.1 42307.9,34375.2 42375.2,34307.9 42428.1,34228.8 42464.5,34140.9 42483.1,34047.6 42483.1,33952.4 42464.5,33859.1 42428.1,33771.2 42375.2,33692.1 42307.9,33624.8 42228.8,33571.9 42140.9,33535.5 42047.6,33516.9 41952.4,33516.9 41859.1,33535.5 41771.2,33571.9 41692.1,33624.8 41624.8,33692.1 41571.9,33771.2 41535.5,33859.1 41516.9,33952.4 39483.1,33952.4 39478,33926.8 40452.4,32952.4 41516.9,32952.4 41516.9,33047.6 41535.5,33140.9 41571.9,33228.8 41624.8,33307.9 41692.1,33375.2 41771.2,33428.1 41859.1,33464.5 41952.4,33483.1 42047.6,33483.1 42140.9,33464.5 42228.8,33428.1 42307.9,33375.2 42375.2,33307.9 42428.1,33228.8 42464.5,33140.9 42483.1,33047.6 42483.1,32952.4 42464.5,32859.1 42428.1,32771.2 42375.2,32692.1 42307.9,32624.8 42228.8,32571.9 42140.9,32535.5 42047.6,32516.9 41952.4,32516.9 41859.1,32535.5 41771.2,32571.9 41692.1,32624.8 41624.8,32692.1 41571.9,32771.2 41535.5,32859.1 41516.9,32952.4 40452.4,32952.4 41533,31871.8 Z"/> 
<path style="fill-opacity:1.0; stroke-width:100; stroke-opacity:1; stroke-linecap:round; stroke-linejoin:round;fill-rule:evenodd;" d="M 43505.3,30910.1 43497.2,30950.5 43497.2,31049.5 43516.6,31146.6 43554.5,31238.1 43609.5,31320.5 43679.5,31390.5 43713.8,31413.4 43713.8,31586.6 43679.5,31609.5 43609.5,31679.5 43554.5,31761.9 43516.6,31853.4 43497.2,31950.5 43497.2,32049.5 43507.9,32103.1 43212.3,31807.6 43203.4,31796.6 43159.8,31760.9 43110.1,31734.3 43056.1,31717.9 43014.1,31713.8 43000,31712.4 42985.9,31713.8 42389.7,31713.8 42375.2,31692.1 42307.9,31624.8 42228.8,31571.9 42140.9,31535.5 42047.6,31516.9 41952.4,31516.9 41871.8,31533 41926.8,31478 41952.4,31483.1 42047.6,31483.1 42140.9,31464.5 42228.8,31428.1 42307.9,31375.2 42375.2,31307.9 42428.1,31228.8 42464.5,31140.9 42483.1,31047.6 42483.1,30952.4 42464.5,30859.1 42428.1,30771.2 42375.2,30692.1 42307.9,30624.8 42228.8,30571.9 42140.9,30535.5 42047.6,30516.9 41952.4,30516.9 41859.1,30535.5 41771.2,30571.9 41692.1,30624.8 41624.8,30692.1 41571.9,30771.2 41535.5,30859.1 41516.9,30952.4 41516.9,31047.6 41522,31073.2 39467,33128.2 39483.1,33047.6 39483.1,32952.4 39464.5,32859.1 39428.1,32771.2 39375.2,32692.1 39307.9,32624.8 39228.8,32571.9 39140.9,32535.5 39047.6,32516.9 38952.4,32516.9 38926.8,32522 38871.8,32467 38952.4,32483.1 39047.6,32483.1 39140.9,32464.5 39228.8,32428.1 39307.9,32375.2 39375.2,32307.9 39428.1,32228.8 39464.5,32140.9 39483.1,32047.6 39483.1,31952.4 39464.5,31859.1 39428.1,31771.2 39375.2,31692.1 39307.9,31624.8 39228.8,31571.9 39213.5,31565.6 39315,31566.2 39364,31561.3 39411.1,31547 39454.5,31523.8 39492.6,31492.6 39523.8,31454.5 39547,31411.1 39561.3,31364 39566.2,31315 39565,31112.5 39502.5,31050 39050,31050 39050,31057.9 38950,31057.9 38950,31050 38497.5,31050 38435,31112.5 38433.8,31315 38438.7,31364 38453,31411.1 38476.2,31454.5 38507.4,31492.6 38545.5,31523.8 38588.9,31547 38636,31561.3 38685,31566.2 38786.5,31565.6 38771.2,31571.9 38692.1,31624.8 38624.8,31692.1 38571.9,31771.2 38535.5,31859.1 38516.9,31952.4 38516.9,32047.6 38533,32128.2 37494.7,31089.9 37502.8,31049.5 37502.8,30950.5 37494.7,30910.1 37719.7,30685 38433.8,30685 38435,30887.5 38497.5,30950 38950,30950 38950,30497.5 39050,30497.5 39050,30950 39502.5,30950 39565,30887.5 39566.2,30685 39561.3,30636 39547,30588.9 39523.8,30545.5 39492.6,30507.4 39454.5,30476.2 39411.1,30453 39364,30438.7 39315,30433.8 39112.5,30435 39050,30497.5 38950,30497.5 38887.5,30435 38685,30433.8 38636,30438.7 38588.9,30453 38545.5,30476.2 38507.4,30507.4 38476.2,30545.5 38453,30588.9 38438.7,30636 38433.8,30685 37719.7,30685 38118.6,30286.2 42881.4,30286.2 Z"/> 
</g>
</g>
</g>
<g style="fill-opacity:1.0; stroke-width:100; stroke-opacity:1; stroke-linecap:round; stroke-linejoin:round;">
</g>
<g style="fill-opacity:1.0; stroke-width:0; stroke-opacity:1; stroke-linecap:round; stroke-linejoin:round;">
<circle cx="44000" cy="36000" r="68.8976"/> 
</g>
<g style="fill-opacity:1.0; stroke-width:59.0551; stroke-opacity:1; stroke-linecap:round; stroke-linejoin:round;">
</g>
<g style="fill-opacity:1.0; stroke-width:0; stroke-opacity:1; stroke-linecap:round; stroke-linejoin:round;">
<circle cx="44000" cy="35000" r="68.8976"/> 
</g>
<g style="fill-opacity:1.0; stroke-width:59.0551; stroke-opacity:1; stroke-linecap:round; stroke-linejoin:round;">
</g>
<g style="fill-opacity:1.0; stroke-width:0; stroke-opacity:1; stroke-linecap:round; stroke-linejoin:round;">
<circle cx="44000" cy="34000" r="68.8976"/> 
</g>
<g style="fill-opacity:1.0; stroke-width:59.0551; stroke-opacity:1; stroke-linecap:round; stroke-linejoin:round;">
</g>
<g style="fill-opacity:1.0; stroke-width:0; stroke-opacity:1; stroke-linecap:round; stroke-linejoin:round;">
<circle cx="44000" cy="33000" r="68.8976"/> 
</g>
<g style="fill-opacity:1.0; stroke-width:59.0551; stroke-opacity:1; stroke-linecap:round; stroke-linejoin:round;">
</g>
<g style="fill-opacity:1.0; stroke-width:0; stroke-opacity:1; stroke-linecap:round; stroke-linejoin:round;">
<circle cx="44000" cy="32000" r="68.8976"/> 
</g>
<g style="fill-opacity:1.0; stroke-width:59.0551; stroke-opacity:1; stroke-linecap:round; stroke-linejoin:round;">
</g>
<g style="fill-opacity:1.0; stroke-width:0; stroke-opacity:1; stroke-linecap:round; stroke-linejoin:round;">
<circle cx="44000" cy="31000" r="68.8976"/> 
</g>
<g style="fill-opacity:1.0; stroke-width:59.0551; stroke-opacity:1; stroke-linecap:round; stroke-linejoin:round;">
</g>
<g style="fill-opacity:1.0; stroke-width:0; stroke-opacity:1; stroke-linecap:round; stroke-linejoin:round;">
<circle cx="44000" cy="30000" r="68.8976"/> 
</g>
<g style="fill-opacity:1.0; stroke-width:59.0551; stroke-opacity:1; stroke-linecap:round; stroke-linejoin:round;">
</g>
<g style="fill-opacity:1.0; stroke-width:0; stroke-opacity:1; stroke-linecap:round; stroke-linejoin:round;">
<circle cx="37000" cy="36000" r="68.8976"/> 
</g>
<g style="fill-opacity:1.0; stroke-width:59.0551; stroke-opacity:1; stroke-linecap:round; stroke-linejoin:round;">
</g>
<g style="fill-opacity:1.0; stroke-width:0; stroke-opacity:1; stroke-linecap:round; stroke-linejoin:round;">
<circle cx="37000" cy="35000" r="68.8976"/> 
</g>
<g style="fill-opacity:1.0; stroke-width:59.0551; stroke-opacity:1; stroke-linecap:round; stroke-linejoin:round;">
</g>
<g style="fill-opacity:1.0; stroke-width:0; stroke-opacity:1; stroke-linecap:round; stroke-linejoin:round;">
<circle cx="37000" cy="34000" r="68.8976"/> 
</g>
<g style="fill-opacity:1.0; stroke-width:59.0551; stroke-opacity:1; stroke-linecap:round; stroke-linejoin:round;">
</g>
<g style="fill-opacity:1.0; stroke-width:0; stroke-opacity:1; stroke-linecap:round; stroke-linejoin:round;">
<circle cx="37000" cy="33000" r="68.8976"/> 
</g>
<g style="fill-opacity:1.0; stroke-width:59.0551; stroke-opacity:1; stroke-linecap:round; stroke-linejoin:round;">
</g>
<g style="fill-opacity:1.0; stroke-width:0; stroke-opacity:1; stroke-linecap:round; stroke-linejoin:round;">
<circle cx="37000" cy="32000" r="68.8976"/> 
</g>
<g style="fill-opacity:1.0; stroke-width:59.0551; stroke-opacity:1; stroke-linecap:round; stroke-linejoin:round;">
</g>
<g style="fill-opacity:1.0; stroke-width:0; stroke-opacity:1; stroke-linecap:round; stroke-linejoin:round;">
<circle cx="37000" cy="31000" r="68.8976"/> 
</g>
<g style="fill-opacity:1.0; stroke-width:59.0551; stroke-opacity:1; stroke-linecap:round; stroke-linejoin:round;">
</g>
<g style="fill-opacity:1.0; stroke-width:0; stroke-opacity:1; stroke-linecap:round; stroke-linejoin:round;">
<circle cx="37000" cy="30000" r="68.8976"/> 
</g>
<g style="fill-opacity:1.0; stroke-width:59.0551; stroke-opacity:1; stroke-linecap:round; stroke-linejoin:round;">
</g>
<g style="fill-opacity:1.0; stroke-width:0; stroke-opacity:1; stroke-linecap:round; stroke-linejoin:round;">
<circle cx="40015.7" cy="35000" r="68.8976"/> 
</g>
<g style="fill-opacity:1.0; stroke-width:59.0551; stroke-opacity:1; stroke-linecap:round; stroke-linejoin:round;">
</g>
<g style="fill-opacity:1.0; stroke-width:0; stroke-opacity:1; stroke-linecap:round; stroke-linejoin:round;">
<circle cx="41000" cy="35000" r="68.8976"/> 
</g>
<g style="fill-opacity:1.0; stroke-width:59.0551; stroke-opacity:1; stroke-linecap:round; stroke-linejoin:round;">
</g>
<g style="fill-opacity:1.0; stroke-width:0; stroke-opacity:1; stroke-linecap:round; stroke-linejoin:round;">
<circle cx="42000" cy="31000" r="68.8976"/> 
</g>
<g style="fill-opacity:1.0; stroke-width:59.0551; stroke-opacity:1; stroke-linecap:round; stroke-linejoin:round;">
</g>
<g style="fill-opacity:1.0; stroke-width:0; stroke-opacity:1; stroke-linecap:round; stroke-linejoin:round;">
<circle cx="39000" cy="34000" r="68.8976"/> 
</g>
<g style="fill-opacity:1.0; stroke-width:59.0551; stroke-opacity:1; stroke-linecap:round; stroke-linejoin:round;">
</g>
<g style="fill-opacity:1.0; stroke-width:0; stroke-opacity:1; stroke-linecap:round; stroke-linejoin:round;">
<circle cx="42000" cy="32000" r="68.8976"/> 
</g>
<g style="fill-opacity:1.0; stroke-width:59.0551; stroke-opacity:1; stroke-linecap:round; stroke-linejoin:round;">
</g>
<g style="fill-opacity:1.0; stroke-width:0; stroke-opacity:1; stroke-linecap:round; stroke-linejoin:round;">
<circle cx="39000" cy="33000" r="68.8976"/> 
</g>
<g style="fill-opacity:1.0; stroke-width:59.0551; stroke-opacity:1; stroke-linecap:round; stroke-linejoin:round;">
</g>
<g style="fill-opacity:1.0; stroke-width:0; stroke-opacity:1; stroke-linecap:round; stroke-linejoin:round;">
<circle cx="42000" cy="33000" r="68.8976"/> 
</g>
<g style="fill-opacity:1.0; stroke-width:59.0551; stroke-opacity:1; stroke-linecap:round; stroke-linejoin:round;">
</g>
<g style="fill-opacity:1.0; stroke-width:0; stroke-opacity:1; stroke-linecap:round; stroke-linejoin:round;">
<circle cx="39000" cy="32000" r="68.8976"/> 
</g>
<g style="fill-opacity:1.0; stroke-width:59.0551; stroke-opacity:1; stroke-linecap:round; stroke-linejoin:round;">
</g>
<g style="fill-opacity:1.0; stroke-width:0; stroke-opacity:1; stroke-linecap:round; stroke-linejoin:round;">
<circle cx="42000" cy="34000" r="68.8976"/> 
</g>
<g style="fill-opacity:1.0; stroke-width:59.0551; stroke-opacity:1; stroke-linecap:round; stroke-linejoin:round;">
</g>
<g style="fill-opacity:1.0; stroke-width:0; stroke-opacity:1; stroke-linecap:round; stroke-linejoin:round;">
<circle cx="39000" cy="31000" r="68.8976"/> 
</g>
<g style="fill-opacity:1.0; stroke-width:59.0551; stroke-opacity:1; stroke-linecap:round; stroke-linejoin:round;">
</g>
<g style="fill-opacity:1.0; stroke-width:59.0551; stroke-opacity:1; stroke-linecap:round; stroke-linejoin:round;">
</g> 
</g><defs><mask id="pads-mask"><g style="fill:#ffffff; fill-opacity:1;stroke:#ffffff; stroke-opacity:1; stroke-linecap:round; stroke-linejoin:round;" transform="translate(0 0) scale(1 1)">
</g>
<g style="fill:#ffffff; fill-opacity:0.0;  stroke:#ffffff; stroke-width:-0.000393701; stroke-opacity:1;  stroke-linecap:round; stroke-linejoin:round;">
<g>
</g>
<g style="fill:#ffffff; fill-opacity:1.0;  stroke:#ffffff; stroke-width:0; stroke-opacity:1;  stroke-linecap:round; stroke-linejoin:round;">
<circle cx="44000" cy="36000" r="354.724"/> 
<circle cx="44000" cy="35000" r="354.724"/> 
<circle cx="44000" cy="34000" r="354.724"/> 
<circle cx="44000" cy="33000" r="354.724"/> 
<circle cx="44000" cy="32000" r="354.724"/> 
<circle cx="44000" cy="31000" r="354.724"/> 
<circle cx="44000" cy="30000" r="354.724"/> 
</g>
<g style="fill:#ffffff; fill-opacity:1.0;  stroke:#ffffff; stroke-width:59.0551; stroke-opacity:1;  stroke-linecap:round; stroke-linejoin:round;">
</g>
<g>
</g>
<g style="fill:#ffffff; fill-opacity:1.0;  stroke:#ffffff; stroke-width:59.0551; stroke-opacity:1;  stroke-linecap:round; stroke-linejoin:round;">
</g>
<g style="fill:#ffffff; fill-opacity:1.0;  stroke:#ffffff; stroke-width:0; stroke-opacity:1;  stroke-linecap:round; stroke-linejoin:round;">
<circle cx="37000" cy="36000" r="354.724"/> 
<circle cx="37000" cy="35000" r="354.724"/> 
<circle cx="37000" cy="34000" r="354.724"/> 
<circle cx="37000" cy="33000" r="354.724"/> 
<circle cx="37000" cy="32000" r="354.724"/> 
<circle cx="37000" cy="31000" r="354.724"/> 
<circle cx="37000" cy="30000" r="354.724"/> 
</g>
<g style="fill:#ffffff; fill-opacity:1.0;  stroke:#ffffff; stroke-width:59.0551; stroke-opacity:1;  stroke-linecap:round; stroke-linejoin:round;">
</g>
<g>
</g>
<g style="fill:#ffffff; fill-opacity:1.0;  stroke:#ffffff; stroke-width:59.0551; stroke-opacity:1;  stroke-linecap:round; stroke-linejoin:round;">
</g>
<g style="fill:#ffffff; fill-opacity:1.0;  stroke:#ffffff; stroke-width:0; stroke-opacity:1;  stroke-linecap:round; stroke-linejoin:round;">
<circle cx="40015.7" cy="35000" r="335.039"/> 
</g>
<g style="fill:#ffffff; fill-opacity:1.0;  stroke:#ffffff; stroke-width:59.0551; stroke-opacity:1;  stroke-linecap:round; stroke-linejoin:round;">
</g>
<g style="fill:#ffffff; fill-opacity:1.0;  stroke:#ffffff; stroke-width:0; stroke-opacity:1;  stroke-linecap:round; stroke-linejoin:round;">
<circle cx="41000" cy="35000" r="335.039"/> 
</g>
<g style="fill:#ffffff; fill-opacity:1.0;  stroke:#ffffff; stroke-width:59.0551; stroke-opacity:1;  stroke-linecap:round; stroke-linejoin:round;">
</g>
<g>
</g>
<g style="fill:#ffffff; fill-opacity:1.0;  stroke:#ffffff; stroke-width:59.0551; stroke-opacity:1;  stroke-linecap:round; stroke-linejoin:round;">
</g>
<g style="fill:#ffffff; fill-opacity:1.0;  stroke:#ffffff; stroke-width:0; stroke-opacity:1;  stroke-linecap:round; stroke-linejoin:round;">
<circle cx="42000" cy="31000" r="335.039"/> 
<circle cx="39000" cy="34000" r="335.039"/> 
<circle cx="42000" cy="32000" r="335.039"/> 
<circle cx="39000" cy="33000" r="335.039"/> 
<circle cx="42000" cy="33000" r="335.039"/> 
<circle cx="39000" cy="32000" r="335.039"/> 
<circle cx="42000" cy="34000" r="335.039"/> 
<path style="fill:#ffffff; fill-opacity:1.0;  stroke:#ffffff; stroke-width:0; stroke-opacity:1;  stroke-linecap:round; stroke-linejoin:round;fill-rule:evenodd;" d="M 39316.9,30665.1 39318.9,30665.3 39320.8,30665.8 39322.6,30666.5 39324.4,30667.3 39326.1,30668.3 39327.7,30669.5 39329.2,30670.8 39330.5,30672.3 39331.7,30673.9 39332.7,30675.6 39333.5,30677.4 39334.2,30679.2 39334.7,30681.1 39334.9,30683.1 39335,30685 39335,31315 39334.9,31316.9 39334.7,31318.9 39334.2,31320.8 39333.5,31322.6 39332.7,31324.4 39331.7,31326.1 39330.5,31327.7 39329.2,31329.2 39327.7,31330.5 39326.1,31331.7 39324.4,31332.7 39322.6,31333.5 39320.8,31334.2 39318.9,31334.7 39316.9,31334.9 39315,31335 38685,31335 38683.1,31334.9 38681.1,31334.7 38679.2,31334.2 38677.4,31333.5 38675.6,31332.7 38673.9,31331.7 38672.3,31330.5 38670.8,31329.2 38669.5,31327.7 38668.3,31326.1 38667.3,31324.4 38666.5,31322.6 38665.8,31320.8 38665.3,31318.9 38665.1,31316.9 38665,31315 38665,30685 38665.1,30683.1 38665.3,30681.1 38665.8,30679.2 38666.5,30677.4 38667.3,30675.6 38668.3,30673.9 38669.5,30672.3 38670.8,30670.8 38672.3,30669.5 38673.9,30668.3 38675.6,30667.3 38677.4,30666.5 38679.2,30665.8 38681.1,30665.3 38683.1,30665.1 38685,30665 39315,30665 Z"/> 
</g>
<g>
</g>
<g>
</g>
<g>
</g>
</g> 
</mask></defs><defs><mask id="pads-mask-silkscreen"><g style="fill:#000000; fill-opacity:1;stroke:#000000; stroke-opacity:1; stroke-linecap:round; stroke-linejoin:round;" transform="translate(0 0) scale(1 1)">
</g>
<g style="fill:#000000; fill-opacity:0.0;  stroke:#000000; stroke-width:-0.000393701; stroke-opacity:1;  stroke-linecap:round; stroke-linejoin:round;">
<g>
</g>
<g style="fill:#000000; fill-opacity:1.0;  stroke:#000000; stroke-width:0; stroke-opacity:1;  stroke-linecap:round; stroke-linejoin:round;">
<circle cx="44000" cy="36000" r="354.724"/> 
<circle cx="44000" cy="35000" r="354.724"/> 
<circle cx="44000" cy="34000" r="354.724"/> 
<circle cx="44000" cy="33000" r="354.724"/> 
<circle cx="44000" cy="32000" r="354.724"/> 
<circle cx="44000" cy="31000" r="354.724"/> 
<circle cx="44000" cy="30000" r="354.724"/> 
</g>
<g style="fill:#000000; fill-opacity:1.0;  stroke:#000000; stroke-width:59.0551; stroke-opacity:1;  stroke-linecap:round; stroke-linejoin:round;">
</g>
<g>
</g>
<g style="fill:#000000; fill-opacity:1.0;  stroke:#000000; stroke-width:59.0551; stroke-opacity:1;  stroke-linecap:round; stroke-linejoin:round;">
</g>
<g style="fill:#000000; fill-opacity:1.0;  stroke:#000000; stroke-width:0; stroke-opacity:1;  stroke-linecap:round; stroke-linejoin:round;">
<circle cx="37000" cy="36000" r="354.724"/> 
<circle cx="37000" cy="35000" r="354.724"/> 
<circle cx="37000" cy="34000" r="354.724"/> 
<circle cx="37000" cy="33000" r="354.724"/> 
<circle cx="37000" cy="32000" r="354.724"/> 
<circle cx="37000" cy="31000" r="354.724"/> 
<circle cx="37000" cy="30000" r="354.724"/> 
</g>
<g style="fill:#000000; fill-opacity:1.0;  stroke:#000000; stroke-width:59.0551; stroke-opacity:1;  stroke-linecap:round; stroke-linejoin:round;">
</g>
<g>
</g>
<g style="fill:#000000; fill-opacity:1.0;  stroke:#000000; stroke-width:59.0551; stroke-opacity:1;  stroke-linecap:round; stroke-linejoin:round;">
</g>
<g style="fill:#000000; fill-opacity:1.0;  stroke:#000000; stroke-width:0; stroke-opacity:1;  stroke-linecap:round; stroke-linejoin:round;">
<circle cx="40015.7" cy="35000" r="335.039"/> 
</g>
<g style="fill:#000000; fill-opacity:1.0;  stroke:#000000; stroke-width:59.0551; stroke-opacity:1;  stroke-linecap:round; stroke-linejoin:round;">
</g>
<g style="fill:#000000; fill-opacity:1.0;  stroke:#000000; stroke-width:0; stroke-opacity:1;  stroke-linecap:round; stroke-linejoin:round;">
<circle cx="41000" cy="35000" r="335.039"/> 
</g>
<g style="fill:#000000; fill-opacity:1.0;  stroke:#000000; stroke-width:59.0551; stroke-opacity:1;  stroke-linecap:round; stroke-linejoin:round;">
</g>
<g>
</g>
<g style="fill:#000000; fill-opacity:1.0;  stroke:#000000; stroke-width:59.0551; stroke-opacity:1;  stroke-linecap:round; stroke-linejoin:round;">
</g>
<g style="fill:#000000; fill-opacity:1.0;  stroke:#000000; stroke-width:0; stroke-opacity:1;  stroke-linecap:round; stroke-linejoin:round;">
<circle cx="42000" cy="31000" r="335.039"/> 
<circle cx="39000" cy="34000" r="335.039"/> 
<circle cx="42000" cy="32000" r="335.039"/> 
<circle cx="39000" cy="33000" r="335.039"/> 
<circle cx="42000" cy="33000" r="335.039"/> 
<circle cx="39000" cy="32000" r="335.039"/> 
<circle cx="42000" cy="34000" r="335.039"/> 
<path style="fill:#000000; fill-opacity:1.0;  stroke:#000000; stroke-width:0; stroke-opacity:1;  stroke-linecap:round; stroke-linejoin:round;fill-rule:evenodd;" d="M 39316.9,30665.1 39318.9,30665.3 39320.8,30665.8 39322.6,30666.5 39324.4,30667.3 39326.1,30668.3 39327.7,30669.5 39329.2,30670.8 39330.5,30672.3 39331.7,30673.9 39332.7,30675.6 39333.5,30677.4 39334.2,30679.2 39334.7,30681.1 39334.9,30683.1 39335,30685 39335,31315 39334.9,31316.9 39334.7,31318.9 39334.2,31320.8 39333.5,31322.6 39332.7,31324.4 39331.7,31326.1 39330.5,31327.7 39329.2,31329.2 39327.7,31330.5 39326.1,31331.7 39324.4,31332.7 39322.6,31333.5 39320.8,31334.2 39318.9,31334.7 39316.9,31334.9 39315,31335 38685,31335 38683.1,31334.9 38681.1,31334.7 38679.2,31334.2 38677.4,31333.5 38675.6,31332.7 38673.9,31331.7 38672.3,31330.5 38670.8,31329.2 38669.5,31327.7 38668.3,31326.1 38667.3,31324.4 38666.5,31322.6 38665.8,31320.8 38665.3,31318.9 38665.1,31316.9 38665,31315 38665,30685 38665.1,30683.1 38665.3,30681.1 38665.8,30679.2 38666.5,30677.4 38667.3,30675.6 38668.3,30673.9 38669.5,30672.3 38670.8,30670.8 38672.3,30669.5 38673.9,30668.3 38675.6,30667.3 38677.4,30666.5 38679.2,30665.8 38681.1,30665.3 38683.1,30665.1 38685,30665 39315,30665 Z"/> 
</g>
<g>
</g>
<g>
</g>
<g>
</g>
</g> 
<rect fill="white" height="8351" width="12289" x="34355" y="29000"/></mask></defs><g id="substrate-silk" style="fill:#f0f0f0; stroke:#f0f0f0;" mask="url(#pads-mask-silkscreen)"><g style="fill-opacity:1; stroke-opacity:1; stroke-linecap:round; stroke-linejoin:round;" transform="translate(0 0) scale(1 1)">
</g>
<g style="fill-opacity:0.0; stroke-width:-0.000393701; stroke-opacity:1; stroke-linecap:round; stroke-linejoin:round;">
</g>
<g style="fill-opacity:0.0; stroke-width:98.4252; stroke-opacity:1; stroke-linecap:round; stroke-linejoin:round;">
<text x="40500" y="36393.7" textLength="2902.14" font-size="629.921" lengthAdjust="spacingAndGlyphs" text-anchor="middle" opacity="0">ASTABLE</text>
<path d="M39138 36131 L39363 36131 "/>
<path d="M39093 36356 L39251 35568 L39408 36356 "/>
<path d="M39543 36318 L39611 36356 L39723 36356 L39768 36318 L39791 36281 L39813 36206 L39813 36131 L39791 36056 L39768 36018 L39723 35981 L39633 35943 L39588 35906 L39566 35868 L39543 35793 L39543 35718 L39566 35643 L39588 35606 L39633 35568 L39746 35568 L39813 35606 "/>
<path d="M39948 35568 L40218 35568 "/>
<path d="M40083 36356 L40083 35568 "/>
<path d="M40353 36131 L40578 36131 "/>
<path d="M40308 36356 L40466 35568 L40623 36356 "/>
<path d="M40938 35943 L41006 35981 L41028 36018 L41051 36093 L41051 36206 L41028 36281 L41006 36318 L40961 36356 L40781 36356 L40781 35568 L40938 35568 L40983 35606 L41006 35643 L41028 35718 L41028 35793 L41006 35868 L40983 35906 L40938 35943 L40781 35943 "/>
<path d="M41478 36356 L41253 36356 L41253 35568 "/>
<path d="M41636 35943 L41793 35943 "/>
<path d="M41861 36356 L41636 36356 L41636 35568 L41861 35568 "/>
<text x="40500" y="30393.7" textLength="3862.49" font-size="629.921" lengthAdjust="spacingAndGlyphs" text-anchor="middle" opacity="0">555 TIMER</text>
<path d="M38970 29568 L38745 29568 L38722 29943 L38745 29906 L38790 29868 L38902 29868 L38947 29906 L38970 29943 L38992 30018 L38992 30206 L38970 30281 L38947 30318 L38902 30356 L38790 30356 L38745 30318 L38722 30281 "/>
<path d="M39420 29568 L39195 29568 L39172 29943 L39195 29906 L39240 29868 L39352 29868 L39397 29906 L39420 29943 L39442 30018 L39442 30206 L39420 30281 L39397 30318 L39352 30356 L39240 30356 L39195 30318 L39172 30281 "/>
<path d="M39870 29568 L39645 29568 L39622 29943 L39645 29906 L39690 29868 L39802 29868 L39847 29906 L39870 29943 L39892 30018 L39892 30206 L39870 30281 L39847 30318 L39802 30356 L39690 30356 L39645 30318 L39622 30281 "/>
<path d="M40387 29568 L40657 29568 "/>
<path d="M40522 30356 L40522 29568 "/>
<path d="M40814 30356 L40814 29568 "/>
<path d="M41039 30356 L41039 29568 L41197 30131 L41354 29568 L41354 30356 "/>
<path d="M41579 29943 L41737 29943 "/>
<path d="M41804 30356 L41579 30356 L41579 29568 L41804 29568 "/>
<path d="M42277 30356 L42119 29981 "/>
<path d="M42007 30356 L42007 29568 L42187 29568 L42232 29606 L42254 29643 L42277 29718 L42277 29831 L42254 29906 L42232 29943 L42187 29981 L42007 29981 "/>
</g>
<g style="fill-opacity:0.0; stroke-width:59.0551; stroke-opacity:1; stroke-linecap:round; stroke-linejoin:round;">
<text x="43000" y="30196.9" textLength="1252.81" font-size="524.934" lengthAdjust="spacingAndGlyphs" text-anchor="middle" opacity="0">VCC</text>
<path d="M42475 29784 L42606 30178 L42737 29784 "/>
<path d="M43093 30140 L43074 30159 L43018 30178 L42981 30178 L42925 30159 L42887 30121 L42868 30084 L42850 30009 L42850 29953 L42868 29878 L42887 29840 L42925 29803 L42981 29784 L43018 29784 L43074 29803 L43093 29821 "/>
<path d="M43487 30140 L43468 30159 L43412 30178 L43374 30178 L43318 30159 L43281 30121 L43262 30084 L43243 30009 L43243 29953 L43262 29878 L43281 29840 L43318 29803 L43374 29784 L43412 29784 L43468 29803 L43487 29821 "/>
<text x="43000" y="35196.9" textLength="1295.37" font-size="524.934" lengthAdjust="spacingAndGlyphs" text-anchor="middle" opacity="0">CON</text>
<path d="M42709 35140 L42690 35159 L42634 35178 L42596 35178 L42540 35159 L42503 35121 L42484 35084 L42465 35009 L42465 34953 L42484 34878 L42503 34840 L42540 34803 L42596 34784 L42634 34784 L42690 34803 L42709 34821 "/>
<path d="M42953 34784 L43028 34784 L43065 34803 L43103 34840 L43121 34915 L43121 35046 L43103 35121 L43065 35159 L43028 35178 L42953 35178 L42915 35159 L42878 35121 L42859 35046 L42859 34915 L42878 34840 L42915 34803 L42953 34784 "/>
<path d="M43290 35178 L43290 34784 L43515 35178 L43515 34784 "/>
<text x="38000" y="35196.9" textLength="957.911" font-size="524.934" lengthAdjust="spacingAndGlyphs" text-anchor="middle" opacity="0">TRI</text>
<path d="M37596 34784 L37821 34784 "/>
<path d="M37709 35178 L37709 34784 "/>
<path d="M38178 35178 L38046 34990 "/>
<path d="M37953 35178 L37953 34784 L38103 34784 L38140 34803 L38159 34821 L38178 34859 L38178 34915 L38159 34953 L38140 34971 L38103 34990 L37953 34990 "/>
<path d="M38346 35178 L38346 34784 "/>
<text x="38000" y="34196.9" textLength="957.911" font-size="524.934" lengthAdjust="spacingAndGlyphs" text-anchor="middle" opacity="0">TRI</text>
<path d="M37596 33784 L37821 33784 "/>
<path d="M37709 34178 L37709 33784 "/>
<path d="M38178 34178 L38046 33990 "/>
<path d="M37953 34178 L37953 33784 L38103 33784 L38140 33803 L38159 33821 L38178 33859 L38178 33915 L38159 33953 L38140 33971 L38103 33990 L37953 33990 "/>
<path d="M38346 34178 L38346 33784 "/>
<text x="38000" y="33196.9" textLength="957.911" font-size="524.934" lengthAdjust="spacingAndGlyphs" text-anchor="middle" opacity="0">TRI</text>
<path d="M37596 32784 L37821 32784 "/>
<path d="M37709 33178 L37709 32784 "/>
<path d="M38178 33178 L38046 32990 "/>
<path d="M37953 33178 L37953 32784 L38103 32784 L38140 32803 L38159 32821 L38178 32859 L38178 32915 L38159 32953 L38140 32971 L38103 32990 L37953 32990 "/>
<path d="M38346 33178 L38346 32784 "/>
<text x="38000" y="36196.9" textLength="1276.62" font-size="524.934" lengthAdjust="spacingAndGlyphs" text-anchor="middle" opacity="0">GND</text>
<path d="M37700 35803 L37662 35784 L37606 35784 L37550 35803 L37512 35840 L37493 35878 L37475 35953 L37475 36009 L37493 36084 L37512 36121 L37550 36159 L37606 36178 L37643 36178 L37700 36159 L37718 36140 L37718 36009 L37643 36009 "/>
<path d="M37887 36178 L37887 35784 L38112 36178 L38112 35784 "/>
<path d="M38299 36178 L38299 35784 L38393 35784 L38449 35803 L38487 35840 L38506 35878 L38524 35953 L38524 36009 L38506 36084 L38487 36121 L38449 36159 L38393 36178 L38299 36178 "/>
<text x="43000" y="36196.9" textLength="1276.62" font-size="524.934" lengthAdjust="spacingAndGlyphs" text-anchor="middle" opacity="0">GND</text>
<path d="M42700 35803 L42662 35784 L42606 35784 L42550 35803 L42512 35840 L42493 35878 L42475 35953 L42475 36009 L42493 36084 L42512 36121 L42550 36159 L42606 36178 L42643 36178 L42700 36159 L42718 36140 L42718 36009 L42643 36009 "/>
<path d="M42887 36178 L42887 35784 L43112 36178 L43112 35784 "/>
<path d="M43299 36178 L43299 35784 L43393 35784 L43449 35803 L43487 35840 L43506 35878 L43524 35953 L43524 36009 L43506 36084 L43487 36121 L43449 36159 L43393 36178 L43299 36178 "/>
<text x="38000" y="32196.9" textLength="1276.62" font-size="524.934" lengthAdjust="spacingAndGlyphs" text-anchor="middle" opacity="0">GND</text>
<path d="M37700 31803 L37662 31784 L37606 31784 L37550 31803 L37512 31840 L37493 31878 L37475 31953 L37475 32009 L37493 32084 L37512 32121 L37550 32159 L37606 32178 L37643 32178 L37700 32159 L37718 32140 L37718 32009 L37643 32009 "/>
<path d="M37887 32178 L37887 31784 L38112 32178 L38112 31784 "/>
<path d="M38299 32178 L38299 31784 L38393 31784 L38449 31803 L38487 31840 L38506 31878 L38524 31953 L38524 32009 L38506 32084 L38487 32121 L38449 32159 L38393 32178 L38299 32178 "/>
<text x="43000" y="32196.9" textLength="1201.63" font-size="524.934" lengthAdjust="spacingAndGlyphs" text-anchor="middle" opacity="0">OUT</text>
<path d="M42606 31784 L42681 31784 L42718 31803 L42756 31840 L42775 31915 L42775 32046 L42756 32121 L42718 32159 L42681 32178 L42606 32178 L42568 32159 L42531 32121 L42512 32046 L42512 31915 L42531 31840 L42568 31803 L42606 31784 "/>
<path d="M42943 31784 L42943 32103 L42962 32140 L42981 32159 L43018 32178 L43093 32178 L43131 32159 L43149 32140 L43168 32103 L43168 31784 "/>
<path d="M43299 31784 L43524 31784 "/>
<path d="M43412 32178 L43412 31784 "/>
<text x="43000" y="31196.9" textLength="1201.63" font-size="524.934" lengthAdjust="spacingAndGlyphs" text-anchor="middle" opacity="0">OUT</text>
<path d="M42606 30784 L42681 30784 L42718 30803 L42756 30840 L42775 30915 L42775 31046 L42756 31121 L42718 31159 L42681 31178 L42606 31178 L42568 31159 L42531 31121 L42512 31046 L42512 30915 L42531 30840 L42568 30803 L42606 30784 "/>
<path d="M42943 30784 L42943 31103 L42962 31140 L42981 31159 L43018 31178 L43093 31178 L43131 31159 L43149 31140 L43168 31103 L43168 30784 "/>
<path d="M43299 30784 L43524 30784 "/>
<path d="M43412 31178 L43412 30784 "/>
<text x="38000" y="31196.9" textLength="1201.63" font-size="524.934" lengthAdjust="spacingAndGlyphs" text-anchor="middle" opacity="0">OUT</text>
<path d="M37606 30784 L37681 30784 L37718 30803 L37756 30840 L37775 30915 L37775 31046 L37756 31121 L37718 31159 L37681 31178 L37606 31178 L37568 31159 L37531 31121 L37512 31046 L37512 30915 L37531 30840 L37568 30803 L37606 30784 "/>
<path d="M37943 30784 L37943 31103 L37962 31140 L37981 31159 L38018 31178 L38093 31178 L38131 31159 L38149 31140 L38168 31103 L38168 30784 "/>
<path d="M38299 30784 L38524 30784 "/>
<path d="M38412 31178 L38412 30784 "/>
<text x="43000" y="34196.9" textLength="1032.9" font-size="524.934" lengthAdjust="spacingAndGlyphs" text-anchor="middle" opacity="0">DIS</text>
<path d="M42615 34178 L42615 33784 L42709 33784 L42765 33803 L42803 33840 L42821 33878 L42840 33953 L42840 34009 L42821 34084 L42803 34121 L42765 34159 L42709 34178 L42615 34178 "/>
<path d="M43009 34178 L43009 33784 "/>
<path d="M43178 34159 L43234 34178 L43328 34178 L43365 34159 L43384 34140 L43403 34103 L43403 34065 L43384 34028 L43365 34009 L43328 33990 L43253 33971 L43215 33953 L43196 33934 L43178 33896 L43178 33859 L43196 33821 L43215 33803 L43253 33784 L43346 33784 L43403 33803 "/>
<text x="43000" y="33196.9" textLength="1032.9" font-size="524.934" lengthAdjust="spacingAndGlyphs" text-anchor="middle" opacity="0">DIS</text>
<path d="M42615 33178 L42615 32784 L42709 32784 L42765 32803 L42803 32840 L42821 32878 L42840 32953 L42840 33009 L42821 33084 L42803 33121 L42765 33159 L42709 33178 L42615 33178 "/>
<path d="M43009 33178 L43009 32784 "/>
<path d="M43178 33159 L43234 33178 L43328 33178 L43365 33159 L43384 33140 L43403 33103 L43403 33065 L43384 33028 L43365 33009 L43328 32990 L43253 32971 L43215 32953 L43196 32934 L43178 32896 L43178 32859 L43196 32821 L43215 32803 L43253 32784 L43346 32784 L43403 32803 "/>
<text x="38000" y="30196.9" textLength="1032.9" font-size="524.934" lengthAdjust="spacingAndGlyphs" text-anchor="middle" opacity="0">DIS</text>
<path d="M37615 30178 L37615 29784 L37709 29784 L37765 29803 L37803 29840 L37821 29878 L37840 29953 L37840 30009 L37821 30084 L37803 30121 L37765 30159 L37709 30178 L37615 30178 "/>
<path d="M38009 30178 L38009 29784 "/>
<path d="M38178 30159 L38234 30178 L38328 30178 L38365 30159 L38384 30140 L38403 30103 L38403 30065 L38384 30028 L38365 30009 L38328 29990 L38253 29971 L38215 29953 L38196 29934 L38178 29896 L38178 29859 L38196 29821 L38215 29803 L38253 29784 L38346 29784 L38403 29803 "/>
</g>
<g style="fill-opacity:0.0; stroke-width:47.2441; stroke-opacity:1; stroke-linecap:round; stroke-linejoin:round;">
<path d="M40755 35362 L40260 35362 "/>
<path d="M40755 34637 L40260 34637 "/>
<path d="M40106 30476 L39456 30476 "/>
<path d="M39456 30476 L39456 34523 "/>
<path d="M39456 34523 L41543 34523 "/>
<path d="M41543 34523 L41543 30476 "/>
<path d="M41543 30476 L40893 30476 "/>
<path d="M40106.3 30476.4 A393.701 393.701 0.0 0 0 40893.7 30476.4"/>
<g>
</g>
</g> 
</g><g id="substrate-outline" style="fill:#000000; stroke:#000000;"><g style="fill-opacity:1; stroke-opacity:1; stroke-linecap:round; stroke-linejoin:round;" transform="translate(0 0) scale(1 1)">
</g>
<g style="fill-opacity:0.0; stroke-width:-0.000393701; stroke-opacity:1; stroke-linecap:round; stroke-linejoin:round;">
</g>
<g style="fill-opacity:0.0; stroke-width:19.685; stroke-opacity:1; stroke-linecap:round; stroke-linejoin:round;">
<path d="M36400 36600 L36400 29400 "/>
<path d="M44600 36600 L36400 36600 "/>
<path d="M44600 29400 L44600 36600 "/>
<path d="M36400 29400 L44600 29400 "/>
<g>
</g>
<g>
</g>
<g>
</g>
<g>
</g>
<g>
</g>
</g> 
</g><defs><mask id="hole-mask"><g><rect fill="white" x="34355" y="29000" width="12289" height="8351"/><polyline stroke-linecap="round" stroke="black" stroke-width="393" points="0.0 0 0.0 0" transform="translate(44000 36000) rotate(-180.0)"/><polyline stroke-linecap="round" stroke="black" stroke-width="393" points="0.0 0 0.0 0" transform="translate(44000 35000) rotate(-180.0)"/><polyline stroke-linecap="round" stroke="black" stroke-width="393" points="0.0 0 0.0 0" transform="translate(44000 34000) rotate(-180.0)"/><polyline stroke-linecap="round" stroke="black" stroke-width="393" points="0.0 0 0.0 0" transform="translate(44000 33000) rotate(-180.0)"/><polyline stroke-linecap="round" stroke="black" stroke-width="393" points="0.0 0 0.0 0" transform="translate(44000 32000) rotate(-180.0)"/><polyline stroke-linecap="round" stroke="black" stroke-width="393" points="0.0 0 0.0 0" transform="translate(44000 31000) rotate(-180.0)"/><polyline stroke-linecap="round" stroke="black" stroke-width="393" points="0.0 0 0.0 0" transform="translate(44000 30000) rotate(-180.0)"/><polyline stroke-linecap="round" stroke="black" stroke-width="393" points="0.0 0 0.0 0" transform="translate(37000 36000) rotate(-180.0)"/><polyline stroke-linecap="round" stroke="black" stroke-width="393" points="0.0 0 0.0 0" transform="translate(37000 35000) rotate(-180.0)"/><polyline stroke-linecap="round" stroke="black" stroke-width="393" points="0.0 0 0.0 0" transform="translate(37000 34000) rotate(-180.0)"/><polyline stroke-linecap="round" stroke="black" stroke-width="393" points="0.0 0 0.0 0" transform="translate(37000 33000) rotate(-180.0)"/><polyline stroke-linecap="round" stroke="black" stroke-width="393" points="0.0 0 0.0 0" transform="translate(37000 32000) rotate(-180.0)"/><polyline stroke-linecap="round" stroke="black" stroke-width="393" points="0.0 0 0.0 0" transform="translate(37000 31000) rotate(-180.0)"/><polyline stroke-linecap="round" stroke="black" stroke-width="393" points="0.0 0 0.0 0" transform="translate(37000 30000) rotate(-180.0)"/><polyline stroke-linecap="round" stroke="black" stroke-width="314" points="0.0 0 0.0 0" transform="translate(40015 35000) rotate(-180.0)"/><polyline stroke-linecap="round" stroke="black" stroke-width="314" points="0.0 0 0.0 0" transform="translate(41000 35000) rotate(-180.0)"/><polyline stroke-linecap="round" stroke="black" stroke-width="314" points="0.0 0 0.0 0" transform="translate(42000 31000) rotate(-0.0)"/><polyline stroke-linecap="round" stroke="black" stroke-width="314" points="0.0 0 0.0 0" transform="translate(39000 34000) rotate(-0.0)"/><polyline stroke-linecap="round" stroke="black" stroke-width="314" points="0.0 0 0.0 0" transform="translate(42000 32000) rotate(-0.0)"/><polyline stroke-linecap="round" stroke="black" stroke-width="314" points="0.0 0 0.0 0" transform="translate(39000 33000) rotate(-0.0)"/><polyline stroke-linecap="round" stroke="black" stroke-width="314" points="0.0 0 0.0 0" transform="translate(42000 33000) rotate(-0.0)"/><polyline stroke-linecap="round" stroke="black" stroke-width="314" points="0.0 0 0.0 0" transform="translate(39000 32000) rotate(-0.0)"/><polyline stroke-linecap="round" stroke="black" stroke-width="314" points="0.0 0 0.0 0" transform="translate(42000 34000) rotate(-0.0)"/><polyline stroke-linecap="round" stroke="black" stroke-width="314" points="0.0 0 0.0 0" transform="translate(39000 31000) rotate(-0.0)"/></g></mask></defs></g></g><g transform="translate(-34356, -29000)" id="highlightContainer"/><g transform="translate(-34356, -29000)" id="componentContainer"><!--Capacitor_THT:C_Disc_D3.0mm_W1.6mm_P2.50mm--><g transform="translate(41000 35000) scale(393.700787402) rotate(-180.0) translate(-1.0499999523162842, -1.0)"><defs id="pref_11_defs1012"/>
  <namedview xmlns:inkscape="http://www.inkscape.org/namespaces/inkscape" id="pref_11_base" pagecolor="#ffffff" bordercolor="#666666" borderopacity="1.0" inkscape:pageopacity="0.0" inkscape:pageshadow="2" inkscape:zoom="15.839192" inkscape:cx="2.4231541" inkscape:cy="3.1642834" inkscape:document-units="mm" inkscape:current-layer="layer1" inkscape:document-rotation="0" showgrid="false" inkscape:window-width="1920" inkscape:window-height="1137" inkscape:window-x="-8" inkscape:window-y="-8" inkscape:window-maximized="1"/>
  <metadata xmlns:rdf="http://www.w3.org/1999/02/22-rdf-syntax-ns#" id="pref_11_metadata1015">
    <RDF>
      <Work rdf:about="">
        <format>image/svg+xml</format>
        <type rdf:resource="http://purl.org/dc/dcmitype/StillImage"/>
        <title/>
      </Work>
    </RDF>
  </metadata>
  <g xmlns:inkscape="http://www.inkscape.org/namespaces/inkscape" inkscape:label="Warstwa 1" inkscape:groupmode="layer" id="pref_11_layer1">
    <ellipse style="fill:#b37638;stroke-width:0.0605068;fill-opacity:1" id="pref_11_path1581" cx="2.3" cy="1" rx="2.3" ry="0.75"/>
    </g>
</g><!--Package_DIP:DIP-8_W7.62mm--><g transform="translate(39000 31000) scale(393.700787402) rotate(-0.0) translate(-0.1899999976158142, -0.6800000071525574)"><defs id="pref_12_defs2"/>
  <namedview xmlns:inkscape="http://www.inkscape.org/namespaces/inkscape" id="pref_12_base" pagecolor="#ffffff" bordercolor="#666666" borderopacity="1.0" inkscape:pageopacity="0.0" inkscape:pageshadow="2" inkscape:zoom="22.4" inkscape:cx="12.765985" inkscape:cy="10.175419" inkscape:document-units="mm" inkscape:current-layer="layer1" inkscape:document-rotation="0" showgrid="false" inkscape:window-width="1920" inkscape:window-height="1137" inkscape:window-x="-8" inkscape:window-y="-8" inkscape:window-maximized="1"/>
  <metadata xmlns:rdf="http://www.w3.org/1999/02/22-rdf-syntax-ns#" id="pref_12_metadata5">
    <RDF>
      <Work rdf:about="">
        <format>image/svg+xml</format>
        <type rdf:resource="http://purl.org/dc/dcmitype/StillImage"/>
        <title/>
      </Work>
    </RDF>
  </metadata>
  <g xmlns:inkscape="http://www.inkscape.org/namespaces/inkscape" inkscape:label="Warstwa 1" inkscape:groupmode="layer" id="pref_12_layer1">
    <rect style="fill:#000000;fill-opacity:1;stroke:none;stroke-width:1.21353" id="pref_12_rect833" width="6" height="9" x="1" y="0"/>
    <path id="pref_12_path835" style="fill:#404040;fill-opacity:1;stroke:none;stroke-width:6.27609" d="M 10.925781 0 A 4.0401785 4.0401785 0 0 0 10.892578 0.51367188 A 4.0401785 4.0401785 0 0 0 14.933594 4.5527344 A 4.0401785 4.0401785 0 0 0 18.972656 0.51367188 A 4.0401785 4.0401785 0 0 0 18.941406 0 L 10.925781 0 z " transform="scale(0.26458333)"/>
    <rect style="fill:#a0a0a0;fill-opacity:1;stroke:none;stroke-width:1.15924" id="pref_12_rect861" width="1" height="1" x="0" y="0.18000001"/>
    <rect style="fill:#a0a0a0;fill-opacity:1;stroke:none;stroke-width:1.26988" id="pref_12_rect861-6" width="1" height="1.2" x="0" y="2.6300001"/>
    <rect style="fill:#a0a0a0;fill-opacity:1;stroke:none;stroke-width:1.26988" id="pref_12_rect861-6-7" width="1" height="1.2" x="0" y="5.1700001"/>
    <rect style="fill:#a0a0a0;fill-opacity:1;stroke:none;stroke-width:1.15924" id="pref_12_rect861-6-7-2" width="1" height="1" x="1.6763806e-08" y="7.8099999"/>
    <rect style="fill:#a0a0a0;fill-opacity:1;stroke:none;stroke-width:1.15924" id="pref_12_rect861-2" width="1" height="1" x="7" y="0.18000001"/>
    <rect style="fill:#a0a0a0;fill-opacity:1;stroke:none;stroke-width:1.26988" id="pref_12_rect861-6-71" width="1" height="1.2" x="7" y="2.6300001"/>
    <rect style="fill:#a0a0a0;fill-opacity:1;stroke:none;stroke-width:1.26988" id="pref_12_rect861-6-7-7" width="1" height="1.2" x="7" y="5.1700001"/>
    <rect style="fill:#a0a0a0;fill-opacity:1;stroke:none;stroke-width:1.15924" id="pref_12_rect861-6-7-2-5" width="1" height="1" x="7" y="7.8099999"/>
    </g>
</g><!--Connector_PinHeader_2.54mm:PinHeader_1x07_P2.54mm_Vertical.back--><g transform="translate(44000 30000) scale(393.700787402) rotate(-180.0) translate(-1.3000000715255737, -16.539897918701172)"><defs id="pref_13_defs4140"/>
  <namedview xmlns:inkscape="http://www.inkscape.org/namespaces/inkscape" id="pref_13_base" pagecolor="#ffffff" bordercolor="#666666" borderopacity="1.0" inkscape:pageopacity="0.0" inkscape:pageshadow="2" inkscape:zoom="7.9999999" inkscape:cx="-7.8096824" inkscape:cy="17.385275" inkscape:document-units="px" inkscape:current-layer="g43" showgrid="false" inkscape:window-width="1920" inkscape:window-height="1137" inkscape:window-x="-8" inkscape:window-y="-8" inkscape:window-maximized="1" inkscape:document-rotation="0"/>
  <metadata xmlns:rdf="http://www.w3.org/1999/02/22-rdf-syntax-ns#" id="pref_13_metadata4143">
    <RDF>
      <Work rdf:about="">
        <format>image/svg+xml</format>
        <type rdf:resource="http://purl.org/dc/dcmitype/StillImage"/>
        <title/>
      </Work>
    </RDF>
  </metadata>
  <g xmlns:inkscape="http://www.inkscape.org/namespaces/inkscape" inkscape:label="Vrstva 1" inkscape:groupmode="layer" id="pref_13_pin" transform="translate(1.3,-1051.0622)">
    <rect y="1052.1041" x="-0.25806209" height="0.51612419" width="0.51612419" id="pref_13_rect156830" style="opacity:1;fill:#fcf23a;fill-opacity:1;fill-rule:nonzero;stroke:#eb9d02;stroke-width:0.12387582;stroke-linecap:round;stroke-linejoin:bevel;stroke-miterlimit:4;stroke-dasharray:none;stroke-opacity:1"/>
  </g>
  <g xmlns:inkscape="http://www.inkscape.org/namespaces/inkscape" inkscape:label="Vrstva 1" inkscape:groupmode="layer" transform="translate(1.3,-1048.5222)" id="pref_13_g13">
    <rect y="1052.1041" x="-0.25806209" height="0.51612419" width="0.51612419" id="pref_13_rect11" style="opacity:1;fill:#fcf23a;fill-opacity:1;fill-rule:nonzero;stroke:#eb9d02;stroke-width:0.12387582;stroke-linecap:round;stroke-linejoin:bevel;stroke-miterlimit:4;stroke-dasharray:none;stroke-opacity:1"/>
  </g>
  <g xmlns:inkscape="http://www.inkscape.org/namespaces/inkscape" inkscape:label="Vrstva 1" inkscape:groupmode="layer" transform="translate(1.3,-1045.9822)" id="pref_13_g19">
    <rect y="1052.1041" x="-0.25806209" height="0.51612419" width="0.51612419" id="pref_13_rect17" style="opacity:1;fill:#fcf23a;fill-opacity:1;fill-rule:nonzero;stroke:#eb9d02;stroke-width:0.12387582;stroke-linecap:round;stroke-linejoin:bevel;stroke-miterlimit:4;stroke-dasharray:none;stroke-opacity:1"/>
  </g>
  <g xmlns:inkscape="http://www.inkscape.org/namespaces/inkscape" inkscape:label="Vrstva 1" inkscape:groupmode="layer" transform="translate(1.3,-1043.4422)" id="pref_13_g25">
    <rect y="1052.1041" x="-0.25806209" height="0.51612419" width="0.51612419" id="pref_13_rect23" style="opacity:1;fill:#fcf23a;fill-opacity:1;fill-rule:nonzero;stroke:#eb9d02;stroke-width:0.12387582;stroke-linecap:round;stroke-linejoin:bevel;stroke-miterlimit:4;stroke-dasharray:none;stroke-opacity:1"/>
  </g>
  <g xmlns:inkscape="http://www.inkscape.org/namespaces/inkscape" inkscape:label="Vrstva 1" inkscape:groupmode="layer" transform="translate(1.3,-1040.9022)" id="pref_13_g31">
    <rect y="1052.1041" x="-0.25806209" height="0.51612419" width="0.51612419" id="pref_13_rect29" style="opacity:1;fill:#fcf23a;fill-opacity:1;fill-rule:nonzero;stroke:#eb9d02;stroke-width:0.12387582;stroke-linecap:round;stroke-linejoin:bevel;stroke-miterlimit:4;stroke-dasharray:none;stroke-opacity:1"/>
  </g>
  <g xmlns:inkscape="http://www.inkscape.org/namespaces/inkscape" inkscape:label="Vrstva 1" inkscape:groupmode="layer" transform="translate(1.3,-1038.3622)" id="pref_13_g37">
    <rect y="1052.1041" x="-0.25806209" height="0.51612419" width="0.51612419" id="pref_13_rect35" style="opacity:1;fill:#fcf23a;fill-opacity:1;fill-rule:nonzero;stroke:#eb9d02;stroke-width:0.12387582;stroke-linecap:round;stroke-linejoin:bevel;stroke-miterlimit:4;stroke-dasharray:none;stroke-opacity:1"/>
  </g>
  <g xmlns:inkscape="http://www.inkscape.org/namespaces/inkscape" inkscape:label="Vrstva 1" inkscape:groupmode="layer" transform="translate(1.3,-1035.8222)" id="pref_13_g43">
    <rect y="1052.1041" x="-0.25806209" height="0.51612419" width="0.51612419" id="pref_13_rect41" style="opacity:1;fill:#fcf23a;fill-opacity:1;fill-rule:nonzero;stroke:#eb9d02;stroke-width:0.12387582;stroke-linecap:round;stroke-linejoin:bevel;stroke-miterlimit:4;stroke-dasharray:none;stroke-opacity:1"/>
  </g>
  </g><!--Connector_PinHeader_2.54mm:PinHeader_1x07_P2.54mm_Vertical.back--><g transform="translate(37000 30000) scale(393.700787402) rotate(-180.0) translate(-1.3000000715255737, -16.539897918701172)"><defs id="pref_14_defs4140"/>
  <namedview xmlns:inkscape="http://www.inkscape.org/namespaces/inkscape" id="pref_14_base" pagecolor="#ffffff" bordercolor="#666666" borderopacity="1.0" inkscape:pageopacity="0.0" inkscape:pageshadow="2" inkscape:zoom="7.9999999" inkscape:cx="-7.8096824" inkscape:cy="17.385275" inkscape:document-units="px" inkscape:current-layer="g43" showgrid="false" inkscape:window-width="1920" inkscape:window-height="1137" inkscape:window-x="-8" inkscape:window-y="-8" inkscape:window-maximized="1" inkscape:document-rotation="0"/>
  <metadata xmlns:rdf="http://www.w3.org/1999/02/22-rdf-syntax-ns#" id="pref_14_metadata4143">
    <RDF>
      <Work rdf:about="">
        <format>image/svg+xml</format>
        <type rdf:resource="http://purl.org/dc/dcmitype/StillImage"/>
        <title/>
      </Work>
    </RDF>
  </metadata>
  <g xmlns:inkscape="http://www.inkscape.org/namespaces/inkscape" inkscape:label="Vrstva 1" inkscape:groupmode="layer" id="pref_14_pin" transform="translate(1.3,-1051.0622)">
    <rect y="1052.1041" x="-0.25806209" height="0.51612419" width="0.51612419" id="pref_14_rect156830" style="opacity:1;fill:#fcf23a;fill-opacity:1;fill-rule:nonzero;stroke:#eb9d02;stroke-width:0.12387582;stroke-linecap:round;stroke-linejoin:bevel;stroke-miterlimit:4;stroke-dasharray:none;stroke-opacity:1"/>
  </g>
  <g xmlns:inkscape="http://www.inkscape.org/namespaces/inkscape" inkscape:label="Vrstva 1" inkscape:groupmode="layer" transform="translate(1.3,-1048.5222)" id="pref_14_g13">
    <rect y="1052.1041" x="-0.25806209" height="0.51612419" width="0.51612419" id="pref_14_rect11" style="opacity:1;fill:#fcf23a;fill-opacity:1;fill-rule:nonzero;stroke:#eb9d02;stroke-width:0.12387582;stroke-linecap:round;stroke-linejoin:bevel;stroke-miterlimit:4;stroke-dasharray:none;stroke-opacity:1"/>
  </g>
  <g xmlns:inkscape="http://www.inkscape.org/namespaces/inkscape" inkscape:label="Vrstva 1" inkscape:groupmode="layer" transform="translate(1.3,-1045.9822)" id="pref_14_g19">
    <rect y="1052.1041" x="-0.25806209" height="0.51612419" width="0.51612419" id="pref_14_rect17" style="opacity:1;fill:#fcf23a;fill-opacity:1;fill-rule:nonzero;stroke:#eb9d02;stroke-width:0.12387582;stroke-linecap:round;stroke-linejoin:bevel;stroke-miterlimit:4;stroke-dasharray:none;stroke-opacity:1"/>
  </g>
  <g xmlns:inkscape="http://www.inkscape.org/namespaces/inkscape" inkscape:label="Vrstva 1" inkscape:groupmode="layer" transform="translate(1.3,-1043.4422)" id="pref_14_g25">
    <rect y="1052.1041" x="-0.25806209" height="0.51612419" width="0.51612419" id="pref_14_rect23" style="opacity:1;fill:#fcf23a;fill-opacity:1;fill-rule:nonzero;stroke:#eb9d02;stroke-width:0.12387582;stroke-linecap:round;stroke-linejoin:bevel;stroke-miterlimit:4;stroke-dasharray:none;stroke-opacity:1"/>
  </g>
  <g xmlns:inkscape="http://www.inkscape.org/namespaces/inkscape" inkscape:label="Vrstva 1" inkscape:groupmode="layer" transform="translate(1.3,-1040.9022)" id="pref_14_g31">
    <rect y="1052.1041" x="-0.25806209" height="0.51612419" width="0.51612419" id="pref_14_rect29" style="opacity:1;fill:#fcf23a;fill-opacity:1;fill-rule:nonzero;stroke:#eb9d02;stroke-width:0.12387582;stroke-linecap:round;stroke-linejoin:bevel;stroke-miterlimit:4;stroke-dasharray:none;stroke-opacity:1"/>
  </g>
  <g xmlns:inkscape="http://www.inkscape.org/namespaces/inkscape" inkscape:label="Vrstva 1" inkscape:groupmode="layer" transform="translate(1.3,-1038.3622)" id="pref_14_g37">
    <rect y="1052.1041" x="-0.25806209" height="0.51612419" width="0.51612419" id="pref_14_rect35" style="opacity:1;fill:#fcf23a;fill-opacity:1;fill-rule:nonzero;stroke:#eb9d02;stroke-width:0.12387582;stroke-linecap:round;stroke-linejoin:bevel;stroke-miterlimit:4;stroke-dasharray:none;stroke-opacity:1"/>
  </g>
  <g xmlns:inkscape="http://www.inkscape.org/namespaces/inkscape" inkscape:label="Vrstva 1" inkscape:groupmode="layer" transform="translate(1.3,-1035.8222)" id="pref_14_g43">
    <rect y="1052.1041" x="-0.25806209" height="0.51612419" width="0.51612419" id="pref_14_rect41" style="opacity:1;fill:#fcf23a;fill-opacity:1;fill-rule:nonzero;stroke:#eb9d02;stroke-width:0.12387582;stroke-linecap:round;stroke-linejoin:bevel;stroke-miterlimit:4;stroke-dasharray:none;stroke-opacity:1"/>
  </g>
  </g></g></svg>