<?xml version="1.0" encoding="UTF-8" standalone="no"?>
<svg
   xmlns:dc="http://purl.org/dc/elements/1.1/"
   xmlns:cc="http://creativecommons.org/ns#"
   xmlns:rdf="http://www.w3.org/1999/02/22-rdf-syntax-ns#"
   xmlns:svg="http://www.w3.org/2000/svg"
   xmlns="http://www.w3.org/2000/svg"
   xmlns:sodipodi="http://sodipodi.sourceforge.net/DTD/sodipodi-0.dtd"
   xmlns:inkscape="http://www.inkscape.org/namespaces/inkscape"
   version="1.1"
   width="5.7398081cm"
   height="7.2070899cm"
   viewBox="0 0 22597.67 28374.371"
   id="svg1882"
   sodipodi:docname="esp-32-board-F_Fab.svg"
   inkscape:version="1.0.2-2 (e86c870879, 2021-01-15)">
  <metadata
     id="metadata1888">
    <rdf:RDF>
      <cc:Work
         rdf:about="">
        <dc:format>image/svg+xml</dc:format>
        <dc:type
           rdf:resource="http://purl.org/dc/dcmitype/StillImage" />
        <dc:title>SVG Picture created as esp-32-board-F_Fab.svg date 2021/07/14 22:00:40 </dc:title>
      </cc:Work>
    </rdf:RDF>
  </metadata>
  <defs
     id="defs1886" />
  <sodipodi:namedview
     pagecolor="#ffffff"
     bordercolor="#666666"
     borderopacity="1"
     objecttolerance="10"
     gridtolerance="10"
     guidetolerance="10"
     inkscape:pageopacity="0"
     inkscape:pageshadow="2"
     inkscape:window-width="1920"
     inkscape:window-height="1137"
     id="namedview1884"
     showgrid="false"
     fit-margin-top="0"
     fit-margin-left="0"
     fit-margin-right="0"
     fit-margin-bottom="0"
     inkscape:zoom="1.3095758"
     inkscape:cx="-127.2022"
     inkscape:cy="222.87759"
     inkscape:window-x="-8"
     inkscape:window-y="-8"
     inkscape:window-maximized="1"
     inkscape:current-layer="svg1882" />
  <title
     id="title2">SVG Picture created as esp-32-board-F_Fab.svg date 2021/07/14 22:00:40 </title>
  <desc
     id="desc4">Picture generated by PCBNEW </desc>
  <g
     style="fill:#000000;fill-opacity:1;stroke:#000000;stroke-linecap:round;stroke-linejoin:round;stroke-opacity:1"
     id="g6"
     transform="translate(-50202.418,-7145.315)" />
  <g
     style="fill:#000000;fill-opacity:0;stroke:#000000;stroke-width:-0.000393701;stroke-linecap:round;stroke-linejoin:round;stroke-opacity:1"
     id="g8"
     transform="translate(-50202.418,-7145.315)" />
  <g
     style="fill:#000000;fill-opacity:0;stroke:#000000;stroke-width:39.3701;stroke-linecap:round;stroke-linejoin:round;stroke-opacity:1"
     id="g266"
     transform="translate(-50202.418,-7145.315)">
    <path
       d="M 55706,19407 V 29448"
       id="path10" />
    <path
       d="M 62793,19407 H 55706"
       id="path12" />
    <path
       d="M 62793,29448 V 27194"
       id="path14" />
    <path
       d="M 62793,29448 H 55706"
       id="path16" />
    <path
       d="M 62793,26801 V 19407"
       id="path18" />
    <path
       d="m 62596,26998 197,196"
       id="path20" />
    <path
       d="m 62793,26801 -197,197"
       id="path22" />
    <circle
       cx="70485.797"
       cy="11235"
       r="689.25702"
       id="circle24" />
    <path
       d="M 71666,12416 V 10053"
       id="path26" />
    <path
       d="m 69304,12416 h 2362"
       id="path28" />
    <path
       d="m 69304,10053 v 2363"
       id="path30" />
    <path
       d="M 71666,10053 H 69304"
       id="path32" />
    <circle
       cx="67205"
       cy="32135.801"
       r="689.25702"
       id="circle34" />
    <path
       d="m 66023,33316 h 2363"
       id="path36" />
    <path
       d="m 66023,30954 v 2362"
       id="path38" />
    <path
       d="M 68386,30954 H 66023"
       id="path40" />
    <path
       d="M 68386,33316 V 30954"
       id="path42" />
    <path
       d="m 62457,33551 v 393"
       id="path44" />
    <path
       d="M 63707,33551 H 62457"
       id="path46" />
    <path
       d="m 63707,32488 v 1063"
       id="path48" />
    <path
       d="m 59592,32488 h 4115"
       id="path50" />
    <path
       d="M 59592,33551 V 32488"
       id="path52" />
    <path
       d="M 60842,33551 H 59592"
       id="path54" />
    <path
       d="m 60842,33944 v -393"
       id="path56" />
    <path
       d="M 64100,33944 H 59592"
       id="path58" />
    <path
       d="m 64100,32094 v 1850"
       id="path60" />
    <path
       d="m 59199,32094 h 4901"
       id="path62" />
    <path
       d="M 59199,33551 V 32094"
       id="path64" />
    <path
       d="m 59592,33944 -393,-393"
       id="path66" />
    <path
       d="m 57657,33551 v 393"
       id="path68" />
    <path
       d="m 58407,33551 h -750"
       id="path70" />
    <path
       d="m 58407,32488 v 1063"
       id="path72" />
    <path
       d="m 55292,32488 h 3115"
       id="path74" />
    <path
       d="M 55292,33551 V 32488"
       id="path76" />
    <path
       d="m 56042,33551 h -750"
       id="path78" />
    <path
       d="m 56042,33944 v -393"
       id="path80" />
    <path
       d="M 58800,33944 H 55292"
       id="path82" />
    <path
       d="m 58800,32094 v 1850"
       id="path84" />
    <path
       d="m 54899,32094 h 3901"
       id="path86" />
    <path
       d="M 54899,33551 V 32094"
       id="path88" />
    <path
       d="m 55292,33944 -393,-393"
       id="path90" />
    <path
       d="M 55771,12500 V 7165"
       id="path92" />
    <path
       d="m 52228,12814 h 3248"
       id="path94" />
    <path
       d="m 52228,7165 v 5649"
       id="path96" />
    <path
       d="M 55771,7165 H 52228"
       id="path98" />
    <path
       d="M 55771,8366 H 52228"
       id="path100" />
    <path
       d="m 55773,12498 -297,316"
       id="path102" />
    <path
       d="M 51000,8500 V 34500"
       id="path104" />
    <path
       d="M 72000,8500 H 51000"
       id="path106" />
    <path
       d="M 72000,33901 V 8500"
       id="path108" />
    <path
       d="m 71401,34500 599,-599"
       id="path110" />
    <path
       d="m 52000,34500 1000,1000"
       id="path112" />
    <path
       d="m 51000,34500 h 1000"
       id="path114" />
    <path
       d="m 65901,35500 1000,-1000"
       id="path116" />
    <path
       d="M 53000,35500 H 65901"
       id="path118" />
    <path
       d="m 66901,34500 h 4500"
       id="path120" />
    <path
       d="m 51500,19500 h 750"
       id="path122" />
    <path
       d="m 52250,19500 250,250"
       id="path124" />
    <path
       d="M 52500,19750 V 33500"
       id="path126" />
    <path
       d="M 52500,33500 H 51500"
       id="path128" />
    <path
       d="M 51500,33500 V 19500"
       id="path130" />
    <path
       d="m 70500,16000 h 750"
       id="path132" />
    <path
       d="m 71250,16000 250,250"
       id="path134" />
    <path
       d="M 71500,16250 V 34000"
       id="path136" />
    <path
       d="M 71500,34000 H 70500"
       id="path138" />
    <path
       d="M 70500,34000 V 16000"
       id="path140" />
    <path
       d="m 62250,17250 v 750"
       id="path142" />
    <path
       d="m 62250,18000 -250,250"
       id="path144" />
    <path
       d="M 62000,18250 H 56250"
       id="path146" />
    <path
       d="M 56250,18250 V 17250"
       id="path148" />
    <path
       d="m 56250,17250 h 6000"
       id="path150" />
    <path
       d="m 68793,29353 v 493"
       id="path152" />
    <path
       d="m 68793,29846 h -787"
       id="path154" />
    <path
       d="m 68006,29846 v -493"
       id="path156" />
    <path
       d="m 68006,29353 h 787"
       id="path158" />
    <path
       d="M 64729,25039 H 63470"
       id="path160" />
    <path
       d="m 64729,24409 v 630"
       id="path162" />
    <path
       d="m 63470,24409 h 1259"
       id="path164" />
    <path
       d="m 63470,25039 v -630"
       id="path166" />
    <path
       d="m 67437,9816 -394,394"
       id="path168" />
    <path
       d="M 67437,8241 V 9816"
       id="path170" />
    <path
       d="m 64562,8241 h 2875"
       id="path172" />
    <path
       d="M 64562,10210 V 8241"
       id="path174" />
    <path
       d="M 67043,10210 H 64562"
       id="path176" />
    <path
       d="m 68800,30153 v 493"
       id="path178" />
    <path
       d="m 68800,30646 h -788"
       id="path180" />
    <path
       d="m 68012,30646 v -493"
       id="path182" />
    <path
       d="m 68012,30153 h 788"
       id="path184" />
    <path
       d="m 62503,14000 h 493"
       id="path186" />
    <path
       d="m 62996,14000 v 787"
       id="path188" />
    <path
       d="m 62996,14787 h -493"
       id="path190" />
    <path
       d="m 62503,14787 v -787"
       id="path192" />
    <path
       d="m 61503,14000 h 493"
       id="path194" />
    <path
       d="m 61996,14000 v 787"
       id="path196" />
    <path
       d="m 61996,14787 h -493"
       id="path198" />
    <path
       d="m 61503,14787 v -787"
       id="path200" />
    <path
       d="m 62435,11455 v 1103"
       id="path202" />
    <path
       d="m 62435,12558 157,157"
       id="path204" />
    <path
       d="m 62592,12715 h 472"
       id="path206" />
    <path
       d="M 63064,12715 V 11455"
       id="path208" />
    <path
       d="m 63064,11455 h -629"
       id="path210" />
    <path
       d="m 61435,11455 v 1103"
       id="path212" />
    <path
       d="m 61435,12558 157,157"
       id="path214" />
    <path
       d="m 61592,12715 h 472"
       id="path216" />
    <path
       d="M 62064,12715 V 11455"
       id="path218" />
    <path
       d="m 62064,11455 h -629"
       id="path220" />
    <circle
       cx="54100"
       cy="15750"
       r="984.25201"
       id="circle222" />
    <path
       d="M 53056,16793 V 14706"
       id="path224" />
    <path
       d="M 54749,16793 H 53056"
       id="path226" />
    <path
       d="M 54749,14706 H 53056"
       id="path228" />
    <path
       d="M 55143,16399 V 15100"
       id="path230" />
    <path
       d="m 55143,16399 -394,394"
       id="path232" />
    <path
       d="m 55143,15100 -394,-394"
       id="path234" />
    <path
       d="m 54900,16222 h -197"
       id="path236" />
    <path
       d="m 54802,16320 v -196"
       id="path238" />
    <circle
       cx="54100"
       cy="18250"
       r="984.25201"
       id="circle240" />
    <path
       d="M 53056,19293 V 17206"
       id="path242" />
    <path
       d="M 54749,19293 H 53056"
       id="path244" />
    <path
       d="M 54749,17206 H 53056"
       id="path246" />
    <path
       d="M 55143,18899 V 17600"
       id="path248" />
    <path
       d="m 55143,18899 -394,394"
       id="path250" />
    <path
       d="m 55143,17600 -394,-394"
       id="path252" />
    <path
       d="m 54900,18722 h -197"
       id="path254" />
    <path
       d="m 54802,18820 v -196"
       id="path256" />
    <path
       d="m 68496,14197 v 788"
       id="path258" />
    <path
       d="m 68003,14197 h 493"
       id="path260" />
    <path
       d="m 68003,14985 v -788"
       id="path262" />
    <path
       d="m 68496,14985 h -493"
       id="path264" />
  </g>
  <g
     style="fill:#000000;fill-opacity:0;stroke:#000000;stroke-width:59.0551;stroke-linecap:round;stroke-linejoin:round;stroke-opacity:1"
     id="g278"
     transform="translate(-50202.418,-7145.315)">
    <path
       d="M 66232,16868 H 64539"
       id="path268" />
    <path
       d="M 64539,16868 V 12852"
       id="path270" />
    <path
       d="m 64539,12852 h 2086"
       id="path272" />
    <path
       d="m 66625,12852 v 3622"
       id="path274" />
    <path
       d="m 66625,16474 -393,394"
       id="path276" />
  </g>
  <g
     style="fill:#000000;fill-opacity:0;stroke:#000000;stroke-width:39.3701;stroke-linecap:round;stroke-linejoin:round;stroke-opacity:1"
     id="g530"
     transform="translate(-50202.418,-7145.315)">
    <path
       d="m 68003,9014 h 493"
       id="path280" />
    <path
       d="m 68496,9014 v 788"
       id="path282" />
    <path
       d="m 68496,9802 h -493"
       id="path284" />
    <path
       d="M 68003,9802 V 9014"
       id="path286" />
    <path
       d="m 58978,16175 -394,393"
       id="path288" />
    <path
       d="M 58978,16175 V 13931"
       id="path290" />
    <path
       d="M 58584,16568 H 57521"
       id="path292" />
    <path
       d="M 58978,13931 H 57521"
       id="path294" />
    <path
       d="M 57521,16568 V 13931"
       id="path296" />
    <path
       d="m 68639,15822 h -334"
       id="path298" />
    <path
       d="m 68108,16019 v 669"
       id="path300" />
    <path
       d="m 68639,15822 v 866"
       id="path302" />
    <path
       d="m 68639,16688 h -531"
       id="path304" />
    <path
       d="m 68305,15822 -197,197"
       id="path306" />
    <path
       d="m 57511,9824 394,-393"
       id="path308" />
    <path
       d="m 57511,9824 v 2244"
       id="path310" />
    <path
       d="m 57905,9431 h 1063"
       id="path312" />
    <path
       d="m 57511,12068 h 1457"
       id="path314" />
    <path
       d="m 58968,9431 v 2637"
       id="path316" />
    <path
       d="m 62848,9250 h 197"
       id="path318" />
    <path
       d="m 62848,9407 -236,-157"
       id="path320" />
    <path
       d="m 62848,9092 v 315"
       id="path322" />
    <path
       d="m 62612,9250 236,-158"
       id="path324" />
    <path
       d="m 62612,9250 v 216"
       id="path326" />
    <path
       d="M 62612,9250 V 9033"
       id="path328" />
    <path
       d="m 62454,9250 h 158"
       id="path330" />
    <path
       d="M 62198,9604 V 8895"
       id="path332" />
    <path
       d="M 63301,9604 H 62198"
       id="path334" />
    <path
       d="m 63301,8895 v 709"
       id="path336" />
    <path
       d="m 62198,8895 h 1103"
       id="path338" />
    <path
       d="m 52390,16010 v 1811"
       id="path340" />
    <path
       d="M 52390,17821 H 51209"
       id="path342" />
    <path
       d="m 51209,16010 h 1181"
       id="path344" />
    <path
       d="m 51209,16010 v 1811"
       id="path346" />
    <path
       d="m 51800,17171 v 355"
       id="path348" />
    <path
       d="m 51800,16718 v -393"
       id="path350" />
    <path
       d="m 51485,17171 h 630"
       id="path352" />
    <path
       d="m 52095,16718 h -610"
       id="path354" />
    <path
       d="m 51800,17171 295,-453"
       id="path356" />
    <path
       d="m 51800,17171 -315,-453"
       id="path358" />
    <path
       d="m 60503,14000 h 493"
       id="path360" />
    <path
       d="m 60996,14000 v 787"
       id="path362" />
    <path
       d="m 60996,14787 h -493"
       id="path364" />
    <path
       d="m 60503,14787 v -787"
       id="path366" />
    <path
       d="m 60435,11455 v 1103"
       id="path368" />
    <path
       d="m 60435,12558 157,157"
       id="path370" />
    <path
       d="m 60592,12715 h 472"
       id="path372" />
    <path
       d="M 61064,12715 V 11455"
       id="path374" />
    <path
       d="m 61064,11455 h -629"
       id="path376" />
    <path
       d="m 57264,13246 v -493"
       id="path378" />
    <path
       d="m 57264,12753 h 788"
       id="path380" />
    <path
       d="m 58052,12753 v 493"
       id="path382" />
    <path
       d="m 58052,13246 h -788"
       id="path384" />
    <path
       d="m 59735,12753 v 493"
       id="path386" />
    <path
       d="m 59735,13246 h -788"
       id="path388" />
    <path
       d="m 58947,13246 v -493"
       id="path390" />
    <path
       d="m 58947,12753 h 788"
       id="path392" />
    <path
       d="m 60503,9264 h 493"
       id="path394" />
    <path
       d="m 60996,9264 v 788"
       id="path396" />
    <path
       d="m 60996,10052 h -493"
       id="path398" />
    <path
       d="M 60503,10052 V 9264"
       id="path400" />
    <path
       d="m 65771,12171 -256,-256"
       id="path402" />
    <path
       d="m 65515,11462 v 453"
       id="path404" />
    <path
       d="m 65771,12171 h 965"
       id="path406" />
    <path
       d="m 66736,11462 v 709"
       id="path408" />
    <path
       d="m 65515,11462 h 1221"
       id="path410" />
    <path
       d="m 64246,12200 h -493"
       id="path412" />
    <path
       d="m 63753,12200 v -788"
       id="path414" />
    <path
       d="m 63753,11412 h 493"
       id="path416" />
    <path
       d="m 64246,11412 v 788"
       id="path418" />
    <path
       d="m 68503,11947 h 493"
       id="path420" />
    <path
       d="m 68996,11947 v 788"
       id="path422" />
    <path
       d="m 68996,12735 h -493"
       id="path424" />
    <path
       d="m 68503,12735 v -788"
       id="path426" />
    <path
       d="m 66393,30153 v 493"
       id="path428" />
    <path
       d="m 66393,30646 h -787"
       id="path430" />
    <path
       d="m 65606,30646 v -493"
       id="path432" />
    <path
       d="m 65606,30153 h 787"
       id="path434" />
    <path
       d="m 54003,19997 h 493"
       id="path436" />
    <path
       d="m 54496,19997 v 788"
       id="path438" />
    <path
       d="m 54496,20785 h -493"
       id="path440" />
    <path
       d="m 54003,20785 v -788"
       id="path442" />
    <path
       d="m 63353,25814 h 493"
       id="path444" />
    <path
       d="m 63846,25814 v 788"
       id="path446" />
    <path
       d="m 63846,26602 h -493"
       id="path448" />
    <path
       d="m 63353,26602 v -788"
       id="path450" />
    <g
       id="g452" />
    <g
       id="g454" />
    <g
       id="g456" />
    <g
       id="g458" />
    <g
       id="g460" />
    <g
       id="g462" />
    <g
       id="g464" />
    <g
       id="g466" />
    <g
       id="g468" />
    <g
       id="g470" />
    <g
       id="g472" />
    <g
       id="g474" />
    <g
       id="g476" />
    <g
       id="g478" />
    <g
       id="g480" />
    <g
       id="g482" />
    <g
       id="g484" />
    <g
       id="g486" />
    <g
       id="g488" />
    <g
       id="g490" />
    <g
       id="g492" />
    <g
       id="g494" />
    <g
       id="g496" />
    <g
       id="g498" />
    <g
       id="g500" />
    <g
       id="g502" />
    <g
       id="g504" />
    <g
       id="g506" />
    <g
       id="g508" />
    <g
       id="g510" />
    <g
       id="g512" />
    <g
       id="g514" />
    <g
       id="g516" />
    <g
       id="g518" />
    <g
       id="g520" />
    <g
       id="g522" />
    <g
       id="g524" />
    <g
       id="g526" />
    <g
       id="g528" />
  </g>
  <g
     style="fill:#000000;fill-opacity:0;stroke:#000000;stroke-width:39.3701;stroke-linecap:round;stroke-linejoin:round;stroke-opacity:1"
     id="g532"
     transform="translate(-50202.418,-7145.315)" />
  <g
     style="fill:#000000;fill-opacity:0;stroke:#000000;stroke-width:19.685;stroke-linecap:round;stroke-linejoin:round;stroke-opacity:1"
     id="g1880"
     transform="translate(-50202.418,-7145.315)">
    <text
       x="59250"
       y="29868.1"
       textLength="3507.5901"
       font-size="314.961px"
       lengthAdjust="spacingAndGlyphs"
       text-anchor="middle"
       opacity="0"
       id="text534">ESP32-WROOM-32</text>
    <path
       d="m 57590,29733 h 79"
       id="path536" />
    <path
       d="m 57703,29856 h -113 v -236 h 113"
       id="path538" />
    <path
       d="m 57793,29845 34,11 h 56 l 22,-11 12,-11 11,-23 v -22 l -11,-23 -12,-11 -22,-11 -45,-11 -23,-12 -11,-11 -11,-22 v -23 l 11,-22 11,-12 23,-11 h 56 l 34,11"
       id="path540" />
    <path
       d="m 58029,29856 v -236 h 90 l 23,11 11,12 11,22 v 34 l -11,22 -11,12 -23,11 h -90"
       id="path542" />
    <path
       d="m 58243,29620 h 146 l -79,90 h 34 l 22,11 12,12 11,22 v 56 l -11,23 -12,11 -22,11 h -68 l -22,-11 -11,-11"
       id="path544" />
    <path
       d="m 58479,29643 11,-12 23,-11 h 56 l 22,11 12,12 11,22 v 23 l -11,33 -135,135 h 146"
       id="path546" />
    <path
       d="m 58715,29766 h 180"
       id="path548" />
    <path
       d="m 58985,29620 56,236 45,-168 45,168 57,-236"
       id="path550" />
    <path
       d="m 59413,29856 -79,-112"
       id="path552" />
    <path
       d="m 59278,29856 v -236 h 90 l 22,11 11,12 12,22 v 34 l -12,22 -11,12 -22,11 h -90"
       id="path554" />
    <path
       d="m 59559,29620 h 45 l 22,11 23,23 11,45 v 79 l -11,45 -23,22 -22,11 h -45 l -23,-11 -22,-22 -11,-45 v -79 l 11,-45 22,-23 23,-11"
       id="path556" />
    <path
       d="m 59806,29620 h 45 l 23,11 22,23 12,45 v 79 l -12,45 -22,22 -23,11 h -45 l -22,-11 -23,-22 -11,-45 v -79 l 11,-45 23,-23 22,-11"
       id="path558" />
    <path
       d="m 60009,29856 v -236 l 79,169 78,-169 v 236"
       id="path560" />
    <path
       d="m 60279,29766 h 180"
       id="path562" />
    <path
       d="m 60549,29620 h 146 l -79,90 h 34 l 22,11 12,12 11,22 v 56 l -11,23 -12,11 -22,11 h -68 l -22,-11 -11,-11"
       id="path564" />
    <path
       d="m 60785,29643 11,-12 23,-11 h 56 l 22,11 12,12 11,22 v 23 l -11,33 -135,135 h 146"
       id="path566" />
    <text
       x="59250"
       y="23368.1"
       textLength="498.03101"
       font-size="314.961px"
       lengthAdjust="spacingAndGlyphs"
       text-anchor="middle"
       opacity="0"
       id="text568">U1</text>
    <path
       d="m 59070,23120 v 191 l 11,23 11,11 23,11 h 45 l 22,-11 11,-11 12,-23 v -191"
       id="path570" />
    <path
       d="m 59441,23356 h -135"
       id="path572" />
    <path
       d="m 59373,23356 v -236 l -22,34 -23,22 -22,12"
       id="path574" />
    <text
       x="70500"
       y="12868.1"
       textLength="1555.4"
       font-size="314.961px"
       lengthAdjust="spacingAndGlyphs"
       text-anchor="middle"
       opacity="0"
       id="text576">SW_Push</text>
    <path
       d="m 69780,12845 33,11 h 57 l 22,-11 11,-11 12,-23 v -22 l -12,-23 -11,-11 -22,-11 -45,-11 -23,-12 -11,-11 -11,-22 v -23 l 11,-22 11,-12 23,-11 h 56 l 34,11"
       id="path578" />
    <path
       d="m 69993,12620 57,236 45,-168 45,168 56,-236"
       id="path580" />
    <path
       d="m 70230,12879 h 180"
       id="path582" />
    <path
       d="m 70466,12856 v -236 h 90 l 22,11 11,12 12,22 v 34 l -12,22 -11,12 -22,11 h -90"
       id="path584" />
    <path
       d="m 70803,12699 v 157"
       id="path586" />
    <path
       d="m 70702,12699 v 124 l 11,22 23,11 h 33 l 23,-11 11,-11"
       id="path588" />
    <path
       d="m 70904,12845 23,11 h 45 l 22,-11 12,-22 v -12 l -12,-22 -22,-11 h -34 l -22,-12 -12,-22 v -11 l 12,-23 22,-11 h 34 l 22,11"
       id="path590" />
    <path
       d="m 71107,12856 v -236"
       id="path592" />
    <path
       d="m 71208,12856 v -123 l -11,-23 -23,-11 h -33 l -23,11 -11,11"
       id="path594" />
    <text
       x="70485.797"
       y="11418.1"
       textLength="745.5"
       font-size="314.961px"
       lengthAdjust="spacingAndGlyphs"
       text-anchor="middle"
       opacity="0"
       id="text596">SW2</text>
    <path
       d="m 70170,11395 34,11 h 56 l 23,-11 11,-11 11,-23 v -22 l -11,-23 -11,-11 -23,-11 -45,-11 -22,-12 -11,-11 -12,-22 v -23 l 12,-22 11,-12 22,-11 h 57 l 33,11"
       id="path598" />
    <path
       d="m 70384,11170 56,236 45,-168 45,168 57,-236"
       id="path600" />
    <path
       d="m 70665,11193 12,-12 22,-11 h 56 l 23,11 11,12 11,22 v 23 l -11,33 -135,135 h 146"
       id="path602" />
    <text
       x="67250"
       y="33618.102"
       textLength="1555.4"
       font-size="314.961px"
       lengthAdjust="spacingAndGlyphs"
       text-anchor="middle"
       opacity="0"
       id="text604">SW_Push</text>
    <path
       d="m 66530,33595 33,11 h 57 l 22,-11 11,-11 12,-23 v -22 l -12,-23 -11,-11 -22,-11 -45,-11 -23,-12 -11,-11 -11,-22 v -23 l 11,-22 11,-12 23,-11 h 56 l 34,11"
       id="path606" />
    <path
       d="m 66743,33370 57,236 45,-168 45,168 56,-236"
       id="path608" />
    <path
       d="m 66980,33629 h 180"
       id="path610" />
    <path
       d="m 67216,33606 v -236 h 90 l 22,11 11,12 12,22 v 34 l -12,22 -11,12 -22,11 h -90"
       id="path612" />
    <path
       d="m 67553,33449 v 157"
       id="path614" />
    <path
       d="m 67452,33449 v 124 l 11,22 23,11 h 33 l 23,-11 11,-11"
       id="path616" />
    <path
       d="m 67654,33595 23,11 h 45 l 22,-11 12,-22 v -12 l -12,-22 -22,-11 h -34 l -22,-12 -12,-22 v -11 l 12,-23 22,-11 h 34 l 22,11"
       id="path618" />
    <path
       d="m 67857,33606 v -236"
       id="path620" />
    <path
       d="m 67958,33606 v -123 l -11,-23 -23,-11 h -33 l -23,11 -11,11"
       id="path622" />
    <g
       transform="rotate(-90,67140,32135.8)"
       id="g626">
      <text
         x="67140"
         y="32253.9"
         textLength="745.5"
         font-size="314.961px"
         lengthAdjust="spacingAndGlyphs"
         text-anchor="middle"
         opacity="0"
         id="text624">SW1</text>
    </g>
    <path
       d="m 67235,32450 11,-33 v -57 l -11,-22 -11,-11 -23,-12 h -22 l -23,12 -11,11 -11,22 -11,45 -12,23 -11,11 -22,11 h -23 l -22,-11 -12,-11 -11,-23 v -56 l 11,-34"
       id="path628" />
    <path
       d="m 67010,32237 236,-57 -168,-45 168,-45 -236,-56"
       id="path630" />
    <path
       d="m 67246,31820 v 135"
       id="path632" />
    <path
       d="m 67246,31888 h -236 l 34,22 22,23 12,22"
       id="path634" />
    <text
       x="61750"
       y="34368.102"
       textLength="3321.4299"
       font-size="314.961px"
       lengthAdjust="spacingAndGlyphs"
       text-anchor="middle"
       opacity="0"
       id="text636">ESP-PROG-Debug</text>
    <path
       d="m 60158,34233 h 79"
       id="path638" />
    <path
       d="m 60270,34356 h -112 v -236 h 112"
       id="path640" />
    <path
       d="m 60360,34345 34,11 h 56 l 23,-11 11,-11 11,-23 v -22 l -11,-23 -11,-11 -23,-11 -45,-11 -22,-12 -11,-11 -12,-22 v -23 l 12,-22 11,-12 22,-11 h 57 l 33,11"
       id="path642" />
    <path
       d="m 60597,34356 v -236 h 90 l 22,11 11,12 12,22 v 34 l -12,22 -11,12 -22,11 h -90"
       id="path644" />
    <path
       d="m 60833,34266 h 180"
       id="path646" />
    <path
       d="m 61125,34356 v -236 h 90 l 23,11 11,12 11,22 v 34 l -11,22 -11,12 -23,11 h -90"
       id="path648" />
    <path
       d="m 61496,34356 -78,-112"
       id="path650" />
    <path
       d="m 61361,34356 v -236 h 90 l 23,11 11,12 11,22 v 34 l -11,22 -11,12 -23,11 h -90"
       id="path652" />
    <path
       d="m 61643,34120 h 45 l 22,11 23,23 11,45 v 79 l -11,45 -23,22 -22,11 h -45 l -23,-11 -22,-22 -12,-45 v -79 l 12,-45 22,-23 23,-11"
       id="path654" />
    <path
       d="m 61969,34131 -23,-11 h -33 l -34,11 -23,23 -11,22 -11,45 v 34 l 11,45 11,23 23,22 34,11 h 22 l 34,-11 11,-11 v -79 h -45"
       id="path656" />
    <path
       d="m 62081,34266 h 180"
       id="path658" />
    <path
       d="m 62374,34356 v -236 h 56 l 34,11 22,23 12,22 11,45 v 34 l -11,45 -12,23 -22,22 -34,11 h -56"
       id="path660" />
    <path
       d="m 62700,34345 -22,11 h -45 l -23,-11 -11,-22 v -90 l 11,-23 23,-11 h 45 l 22,11 11,23 v 22 l -112,23"
       id="path662" />
    <path
       d="m 62812,34356 v -236"
       id="path664" />
    <path
       d="m 62812,34210 23,-11 h 45 l 22,11 12,11 11,23 v 67 l -11,23 -12,11 -22,11 h -45 l -23,-11"
       id="path666" />
    <path
       d="m 63127,34199 v 157"
       id="path668" />
    <path
       d="m 63026,34199 v 124 l 11,22 23,11 h 34 l 22,-11 11,-11"
       id="path670" />
    <path
       d="m 63341,34199 v 191 l -11,23 -11,11 -23,11 h -34 l -22,-11"
       id="path672" />
    <path
       d="m 63341,34345 -22,11 h -45 l -23,-11 -11,-11 -11,-23 v -67 l 11,-23 11,-11 23,-11 h 45 l 22,11"
       id="path674" />
    <text
       x="61650"
       y="33137.801"
       textLength="430.54001"
       font-size="314.961px"
       lengthAdjust="spacingAndGlyphs"
       text-anchor="middle"
       opacity="0"
       id="text676">J7</text>
    <path
       d="m 61571,32890 v 169 l -11,33 -23,23 -34,11 h -22"
       id="path678" />
    <path
       d="m 61661,32890 h 157 l -101,236"
       id="path680" />
    <text
       x="56900"
       y="34368.102"
       textLength="3726.3799"
       font-size="314.961px"
       lengthAdjust="spacingAndGlyphs"
       text-anchor="middle"
       opacity="0"
       id="text682">ESP-PROG-Program</text>
    <path
       d="m 55105,34233 h 79"
       id="path684" />
    <path
       d="m 55218,34356 h -113 v -236 h 113"
       id="path686" />
    <path
       d="m 55308,34345 34,11 h 56 l 22,-11 12,-11 11,-23 v -22 l -11,-23 -12,-11 -22,-11 -45,-11 -23,-12 -11,-11 -11,-22 v -23 l 11,-22 11,-12 23,-11 h 56 l 34,11"
       id="path688" />
    <path
       d="m 55544,34356 v -236 h 90 l 23,11 11,12 11,22 v 34 l -11,22 -11,12 -23,11 h -90"
       id="path690" />
    <path
       d="m 55780,34266 h 180"
       id="path692" />
    <path
       d="m 56073,34356 v -236 h 90 l 22,11 11,12 12,22 v 34 l -12,22 -11,12 -22,11 h -90"
       id="path694" />
    <path
       d="m 56444,34356 -79,-112"
       id="path696" />
    <path
       d="m 56309,34356 v -236 h 90 l 22,11 12,12 11,22 v 34 l -11,22 -12,12 -22,11 h -90"
       id="path698" />
    <path
       d="m 56590,34120 h 45 l 23,11 22,23 11,45 v 79 l -11,45 -22,22 -23,11 h -45 l -22,-11 -23,-22 -11,-45 v -79 l 11,-45 23,-23 22,-11"
       id="path700" />
    <path
       d="m 56916,34131 -22,-11 h -34 l -34,11 -22,23 -11,22 -12,45 v 34 l 12,45 11,23 22,22 34,11 h 23 l 33,-11 12,-11 v -79 h -45"
       id="path702" />
    <path
       d="m 57029,34266 h 180"
       id="path704" />
    <path
       d="m 57321,34356 v -236 h 90 l 23,11 11,12 11,22 v 34 l -11,22 -11,12 -23,11 h -90"
       id="path706" />
    <path
       d="m 57558,34356 v -157"
       id="path708" />
    <path
       d="m 57558,34244 11,-23 11,-11 23,-11 h 22"
       id="path710" />
    <path
       d="m 57738,34356 -23,-11 -11,-11 -11,-23 v -67 l 11,-23 11,-11 23,-11 h 33 l 23,11 11,11 11,23 v 67 l -11,23 -11,11 -23,11 h -33"
       id="path712" />
    <path
       d="m 58019,34199 v 191 l -12,23 -11,11 -22,11 h -34 l -23,-11"
       id="path714" />
    <path
       d="m 58019,34345 -23,11 h -45 l -22,-11 -12,-11 -11,-23 v -67 l 11,-23 12,-11 22,-11 h 45 l 23,11"
       id="path716" />
    <path
       d="m 58131,34356 v -157"
       id="path718" />
    <path
       d="m 58131,34244 11,-23 12,-11 22,-11 h 23"
       id="path720" />
    <path
       d="m 58379,34356 v -123 l -12,-23 -22,-11 h -45 l -23,11"
       id="path722" />
    <path
       d="m 58379,34345 -23,11 h -56 l -23,-11 -11,-22 v -23 l 11,-22 23,-12 h 56 l 23,-11"
       id="path724" />
    <path
       d="m 58491,34356 v -157"
       id="path726" />
    <path
       d="m 58491,34221 11,-11 23,-11 h 34 l 22,11 11,23 v 123"
       id="path728" />
    <path
       d="m 58592,34233 12,-23 22,-11 h 34 l 22,11 12,23 v 123"
       id="path730" />
    <text
       x="56750"
       y="33137.801"
       textLength="430.54001"
       font-size="314.961px"
       lengthAdjust="spacingAndGlyphs"
       text-anchor="middle"
       opacity="0"
       id="text732">J6</text>
    <path
       d="m 56671,32890 v 169 l -11,33 -23,23 -34,11 h -22"
       id="path734" />
    <path
       d="m 56884,32890 h -45 l -22,11 -11,11 -23,34 -11,45 v 90 l 11,23 11,11 23,11 h 45 l 22,-11 12,-11 11,-23 v -56 l -11,-23 -12,-11 -22,-11 h -45 l -23,11 -11,11 -11,23"
       id="path736" />
    <text
       x="54000"
       y="13368.1"
       textLength="4390.04"
       font-size="314.961px"
       lengthAdjust="spacingAndGlyphs"
       text-anchor="middle"
       opacity="0"
       id="text738">Barrel_Jack_MountingPin</text>
    <path
       d="m 51952,13233 34,11 11,11 11,23 v 33 l -11,23 -11,11 -22,11 h -90 v -236 h 78 l 23,11 11,12 11,22 v 23 l -11,22 -11,11 -23,12 h -78"
       id="path740" />
    <path
       d="m 52211,13356 v -123 l -11,-23 -23,-11 h -45 l -22,11"
       id="path742" />
    <path
       d="m 52211,13345 -23,11 h -56 l -22,-11 -12,-22 v -23 l 12,-22 22,-12 h 56 l 23,-11"
       id="path744" />
    <path
       d="m 52323,13356 v -157"
       id="path746" />
    <path
       d="m 52323,13244 12,-23 11,-11 22,-11 h 23"
       id="path748" />
    <path
       d="m 52470,13356 v -157"
       id="path750" />
    <path
       d="m 52470,13244 11,-23 11,-11 23,-11 h 22"
       id="path752" />
    <path
       d="m 52706,13345 -23,11 h -45 l -22,-11 -11,-22 v -90 l 11,-23 22,-11 h 45 l 23,11 11,23 v 22 l -112,23"
       id="path754" />
    <path
       d="m 52852,13356 -22,-11 -12,-22 v -203"
       id="path756" />
    <path
       d="m 52886,13379 h 180"
       id="path758" />
    <path
       d="m 53190,13120 v 169 l -12,34 -22,22 -34,11 h -22"
       id="path760" />
    <path
       d="m 53403,13356 v -123 l -11,-23 -22,-11 h -45 l -23,11"
       id="path762" />
    <path
       d="m 53403,13345 -22,11 h -56 l -23,-11 -11,-22 v -23 l 11,-22 23,-12 h 56 l 22,-11"
       id="path764" />
    <path
       d="m 53617,13345 -22,11 h -45 l -23,-11 -11,-11 -11,-23 v -67 l 11,-23 11,-11 23,-11 h 45 l 22,11"
       id="path766" />
    <path
       d="m 53718,13356 v -236"
       id="path768" />
    <path
       d="m 53741,13266 67,90"
       id="path770" />
    <path
       d="m 53808,13199 -90,90"
       id="path772" />
    <path
       d="m 53853,13379 h 180"
       id="path774" />
    <path
       d="m 54089,13356 v -236 l 79,169 79,-169 v 236"
       id="path776" />
    <path
       d="m 54393,13356 -22,-11 -12,-11 -11,-23 v -67 l 11,-23 12,-11 22,-11 h 34 l 22,11 12,11 11,23 v 67 l -11,23 -12,11 -22,11 h -34"
       id="path778" />
    <path
       d="m 54674,13199 v 157"
       id="path780" />
    <path
       d="m 54573,13199 v 124 l 11,22 23,11 h 34 l 22,-11 11,-11"
       id="path782" />
    <path
       d="m 54787,13199 v 157"
       id="path784" />
    <path
       d="m 54787,13221 11,-11 23,-11 h 33 l 23,11 11,23 v 123"
       id="path786" />
    <path
       d="m 54967,13199 h 90"
       id="path788" />
    <path
       d="m 55001,13120 v 203 l 11,22 22,11 h 23"
       id="path790" />
    <path
       d="m 55136,13356 v -157"
       id="path792" />
    <path
       d="m 55136,13120 -12,11 12,12 11,-12 -11,-11 v 23"
       id="path794" />
    <path
       d="m 55248,13199 v 157"
       id="path796" />
    <path
       d="m 55248,13221 11,-11 23,-11 h 34 l 22,11 11,23 v 123"
       id="path798" />
    <path
       d="m 55563,13199 v 191 l -11,23 -11,11 -23,11 h -34 l -22,-11"
       id="path800" />
    <path
       d="m 55563,13345 -22,11 h -45 l -23,-11 -11,-11 -11,-23 v -67 l 11,-23 11,-11 23,-11 h 45 l 22,11"
       id="path802" />
    <path
       d="m 55676,13356 v -236 h 90 l 22,11 11,12 12,22 v 34 l -12,22 -11,12 -22,11 h -90"
       id="path804" />
    <path
       d="m 55912,13356 v -157"
       id="path806" />
    <path
       d="m 55912,13120 -11,11 11,12 11,-12 -11,-11 v 23"
       id="path808" />
    <path
       d="m 56024,13199 v 157"
       id="path810" />
    <path
       d="m 56024,13221 11,-11 23,-11 h 34 l 22,11 11,23 v 123"
       id="path812" />
    <text
       x="54000"
       y="10618.1"
       textLength="430.54001"
       font-size="314.961px"
       lengthAdjust="spacingAndGlyphs"
       text-anchor="middle"
       opacity="0"
       id="text814">J5</text>
    <path
       d="m 53921,10370 v 169 l -11,34 -23,22 -34,11 h -22"
       id="path816" />
    <path
       d="m 54146,10370 h -113 l -11,113 11,-12 23,-11 h 56 l 22,11 12,12 11,22 v 56 l -11,23 -12,11 -22,11 h -56 l -23,-11 -11,-11"
       id="path818" />
    <text
       x="52000"
       y="33868.102"
       textLength="3613.8899"
       font-size="314.961px"
       lengthAdjust="spacingAndGlyphs"
       text-anchor="middle"
       opacity="0"
       id="text820">Conn_01x14_Female</text>
    <path
       d="m 50397,33834 -12,11 -33,11 h -23 l -34,-11 -22,-22 -11,-23 -12,-45 v -34 l 12,-45 11,-22 22,-23 34,-11 h 23 l 33,11 12,12"
       id="path822" />
    <path
       d="m 50532,33856 -23,-11 -11,-11 -11,-23 v -67 l 11,-23 11,-11 23,-11 h 33 l 23,11 11,11 11,23 v 67 l -11,23 -11,11 -23,11 h -33"
       id="path824" />
    <path
       d="m 50712,33699 v 157"
       id="path826" />
    <path
       d="m 50712,33721 11,-11 22,-11 h 34 l 23,11 11,23 v 123"
       id="path828" />
    <path
       d="m 50925,33699 v 157"
       id="path830" />
    <path
       d="m 50925,33721 12,-11 22,-11 h 34 l 22,11 11,23 v 123"
       id="path832" />
    <path
       d="m 51083,33879 h 180"
       id="path834" />
    <path
       d="m 51364,33620 h 22 l 23,11 11,12 11,22 12,45 v 56 l -12,45 -11,23 -11,11 -23,11 h -22 l -23,-11 -11,-11 -11,-23 -11,-45 v -56 l 11,-45 11,-22 11,-12 23,-11"
       id="path836" />
    <path
       d="m 51668,33856 h -135"
       id="path838" />
    <path
       d="m 51600,33856 v -236 l -22,34 -23,22 -22,12"
       id="path840" />
    <path
       d="m 51746,33856 124,-157"
       id="path842" />
    <path
       d="m 51746,33699 124,157"
       id="path844" />
    <path
       d="m 52084,33856 h -135"
       id="path846" />
    <path
       d="m 52016,33856 v -236 l -22,34 -23,22 -22,12"
       id="path848" />
    <path
       d="m 52286,33699 v 157"
       id="path850" />
    <path
       d="m 52230,33609 -56,169 h 146"
       id="path852" />
    <path
       d="m 52354,33879 h 180"
       id="path854" />
    <path
       d="m 52669,33733 h -79"
       id="path856" />
    <path
       d="m 52590,33856 v -236 h 113"
       id="path858" />
    <path
       d="m 52883,33845 -23,11 h -45 l -22,-11 -12,-22 v -90 l 12,-23 22,-11 h 45 l 23,11 11,23 v 22 l -113,23"
       id="path860" />
    <path
       d="m 52995,33856 v -157"
       id="path862" />
    <path
       d="m 52995,33721 11,-11 23,-11 h 33 l 23,11 11,23 v 123"
       id="path864" />
    <path
       d="m 53096,33733 11,-23 23,-11 h 34 l 22,11 11,23 v 123"
       id="path866" />
    <path
       d="m 53411,33856 v -123 l -11,-23 -23,-11 h -45 l -22,11"
       id="path868" />
    <path
       d="m 53411,33845 -22,11 h -57 l -22,-11 -11,-22 v -23 l 11,-22 22,-12 h 57 l 22,-11"
       id="path870" />
    <path
       d="m 53557,33856 -22,-11 -11,-22 v -203"
       id="path872" />
    <path
       d="m 53737,33845 -22,11 h -45 l -23,-11 -11,-22 v -90 l 11,-23 23,-11 h 45 l 22,11 12,23 v 22 l -113,23"
       id="path874" />
    <text
       x="52000"
       y="26618.1"
       textLength="430.54001"
       font-size="314.961px"
       lengthAdjust="spacingAndGlyphs"
       text-anchor="middle"
       opacity="0"
       id="text876">J1</text>
    <path
       d="m 51921,26370 v 169 l -11,34 -23,22 -34,11 h -22"
       id="path878" />
    <path
       d="m 52157,26606 h -135"
       id="path880" />
    <path
       d="m 52089,26606 v -236 l -22,34 -23,22 -22,12"
       id="path882" />
    <text
       x="71000"
       y="34818.102"
       textLength="3613.8899"
       font-size="314.961px"
       lengthAdjust="spacingAndGlyphs"
       text-anchor="middle"
       opacity="0"
       id="text884">Conn_01x18_Female</text>
    <path
       d="m 69397,34784 -12,11 -33,11 h -23 l -34,-11 -22,-22 -11,-23 -12,-45 v -34 l 12,-45 11,-22 22,-23 34,-11 h 23 l 33,11 12,12"
       id="path886" />
    <path
       d="m 69532,34806 -23,-11 -11,-11 -11,-23 v -67 l 11,-23 11,-11 23,-11 h 33 l 23,11 11,11 11,23 v 67 l -11,23 -11,11 -23,11 h -33"
       id="path888" />
    <path
       d="m 69712,34649 v 157"
       id="path890" />
    <path
       d="m 69712,34671 11,-11 22,-11 h 34 l 23,11 11,23 v 123"
       id="path892" />
    <path
       d="m 69925,34649 v 157"
       id="path894" />
    <path
       d="m 69925,34671 12,-11 22,-11 h 34 l 22,11 11,23 v 123"
       id="path896" />
    <path
       d="m 70083,34829 h 180"
       id="path898" />
    <path
       d="m 70364,34570 h 22 l 23,11 11,12 11,22 12,45 v 56 l -12,45 -11,23 -11,11 -23,11 h -22 l -23,-11 -11,-11 -11,-23 -11,-45 v -56 l 11,-45 11,-22 11,-12 23,-11"
       id="path900" />
    <path
       d="m 70668,34806 h -135"
       id="path902" />
    <path
       d="m 70600,34806 v -236 l -22,34 -23,22 -22,12"
       id="path904" />
    <path
       d="m 70746,34806 124,-157"
       id="path906" />
    <path
       d="m 70746,34649 124,157"
       id="path908" />
    <path
       d="m 71084,34806 h -135"
       id="path910" />
    <path
       d="m 71016,34806 v -236 l -22,34 -23,22 -22,12"
       id="path912" />
    <path
       d="m 71219,34671 -23,-11 -11,-11 -11,-23 v -11 l 11,-22 11,-12 23,-11 h 45 l 22,11 12,12 11,22 v 11 l -11,23 -12,11 -22,11 h -45 l -23,12 -11,11 -11,22 v 45 l 11,23 11,11 23,11 h 45 l 22,-11 12,-11 11,-23 v -45 l -11,-22 -12,-11 -22,-12"
       id="path914" />
    <path
       d="m 71354,34829 h 180"
       id="path916" />
    <path
       d="m 71669,34683 h -79"
       id="path918" />
    <path
       d="m 71590,34806 v -236 h 113"
       id="path920" />
    <path
       d="m 71883,34795 -23,11 h -45 l -22,-11 -12,-22 v -90 l 12,-23 22,-11 h 45 l 23,11 11,23 v 22 l -113,23"
       id="path922" />
    <path
       d="m 71995,34806 v -157"
       id="path924" />
    <path
       d="m 71995,34671 11,-11 23,-11 h 33 l 23,11 11,23 v 123"
       id="path926" />
    <path
       d="m 72096,34683 11,-23 23,-11 h 34 l 22,11 11,23 v 123"
       id="path928" />
    <path
       d="m 72411,34806 v -123 l -11,-23 -23,-11 h -45 l -22,11"
       id="path930" />
    <path
       d="m 72411,34795 -22,11 h -57 l -22,-11 -11,-22 v -23 l 11,-22 22,-12 h 57 l 22,-11"
       id="path932" />
    <path
       d="m 72557,34806 -22,-11 -11,-22 v -203"
       id="path934" />
    <path
       d="m 72737,34795 -22,11 h -45 l -23,-11 -11,-22 v -90 l 11,-23 23,-11 h 45 l 22,11 12,23 v 22 l -113,23"
       id="path936" />
    <text
       x="71000"
       y="25118.1"
       textLength="430.54001"
       font-size="314.961px"
       lengthAdjust="spacingAndGlyphs"
       text-anchor="middle"
       opacity="0"
       id="text938">J2</text>
    <path
       d="m 70921,24870 v 169 l -11,34 -23,22 -34,11 h -22"
       id="path940" />
    <path
       d="m 71022,24893 11,-12 23,-11 h 56 l 22,11 12,12 11,22 v 23 l -11,33 -135,135 h 146"
       id="path942" />
    <text
       x="59250"
       y="18618.1"
       textLength="2174.0701"
       font-size="314.961px"
       lengthAdjust="spacingAndGlyphs"
       text-anchor="middle"
       opacity="0"
       id="text944">Conn_01x06</text>
    <path
       d="m 58366,18584 -11,11 -34,11 h -22 l -34,-11 -22,-22 -11,-23 -12,-45 v -34 l 12,-45 11,-22 22,-23 34,-11 h 22 l 34,11 11,12"
       id="path946" />
    <path
       d="m 58501,18606 -22,-11 -11,-11 -12,-23 v -67 l 12,-23 11,-11 22,-11 h 34 l 23,11 11,11 11,23 v 67 l -11,23 -11,11 -23,11 h -34"
       id="path948" />
    <path
       d="m 58681,18449 v 157"
       id="path950" />
    <path
       d="m 58681,18471 12,-11 22,-11 h 34 l 22,11 12,23 v 123"
       id="path952" />
    <path
       d="m 58895,18449 v 157"
       id="path954" />
    <path
       d="m 58895,18471 11,-11 23,-11 h 34 l 22,11 11,23 v 123"
       id="path956" />
    <path
       d="m 59053,18629 h 180"
       id="path958" />
    <path
       d="m 59334,18370 h 22 l 23,11 11,12 11,22 12,45 v 56 l -12,45 -11,23 -11,11 -23,11 h -22 l -23,-11 -11,-11 -11,-23 -11,-45 v -56 l 11,-45 11,-22 11,-12 23,-11"
       id="path960" />
    <path
       d="m 59638,18606 h -135"
       id="path962" />
    <path
       d="m 59570,18606 v -236 l -22,34 -23,22 -22,12"
       id="path964" />
    <path
       d="m 59716,18606 124,-157"
       id="path966" />
    <path
       d="m 59716,18449 124,157"
       id="path968" />
    <path
       d="m 59975,18370 h 23 l 22,11 11,12 12,22 11,45 v 56 l -11,45 -12,23 -11,11 -22,11 h -23 l -22,-11 -12,-11 -11,-23 -11,-45 v -56 l 11,-45 11,-22 12,-12 22,-11"
       id="path970" />
    <path
       d="m 60256,18370 h -45 l -22,11 -11,12 -23,33 -11,45 v 90 l 11,23 11,11 23,11 h 45 l 22,-11 11,-11 12,-23 v -56 l -12,-22 -11,-12 -22,-11 h -45 l -23,11 -11,12 -11,22"
       id="path972" />
    <text
       x="59250"
       y="17868.1"
       textLength="430.54001"
       font-size="314.961px"
       lengthAdjust="spacingAndGlyphs"
       text-anchor="middle"
       opacity="0"
       id="text974">J3</text>
    <path
       d="m 59171,17620 v 169 l -11,34 -23,22 -34,11 h -22"
       id="path976" />
    <path
       d="m 59261,17620 h 146 l -79,90 h 34 l 22,11 12,12 11,22 v 56 l -11,23 -12,11 -22,11 h -68 l -22,-11 -11,-11"
       id="path978" />
    <text
       x="69650"
       y="29718.1"
       textLength="1622.89"
       font-size="314.961px"
       lengthAdjust="spacingAndGlyphs"
       text-anchor="middle"
       opacity="0"
       id="text980">10 kOhm</text>
    <path
       d="m 69031,29706 h -135"
       id="path982" />
    <path
       d="m 68963,29706 v -236 l -22,34 -23,22 -22,12"
       id="path984" />
    <path
       d="m 69177,29470 h 23 l 22,11 11,12 12,22 11,45 v 56 l -11,45 -12,23 -11,11 -22,11 h -23 l -22,-11 -12,-11 -11,-23 -11,-45 v -56 l 11,-45 11,-22 12,-12 22,-11"
       id="path986" />
    <path
       d="m 69537,29706 v -236"
       id="path988" />
    <path
       d="m 69560,29616 67,90"
       id="path990" />
    <path
       d="m 69627,29549 -90,90"
       id="path992" />
    <path
       d="m 69773,29470 h 45 l 23,11 22,23 11,45 v 79 l -11,45 -22,22 -23,11 h -45 l -22,-11 -23,-22 -11,-45 v -79 l 11,-45 23,-23 22,-11"
       id="path994" />
    <path
       d="m 69976,29706 v -236"
       id="path996" />
    <path
       d="m 70077,29706 v -123 l -11,-23 -23,-11 h -34 l -22,11 -11,11"
       id="path998" />
    <path
       d="m 70189,29706 v -157"
       id="path1000" />
    <path
       d="m 70189,29571 12,-11 22,-11 h 34 l 22,11 12,23 v 123"
       id="path1002" />
    <path
       d="m 70291,29583 11,-23 22,-11 h 34 l 23,11 11,23 v 123"
       id="path1004" />
    <text
       x="68400"
       y="29718.1"
       textLength="486.78299"
       font-size="314.961px"
       lengthAdjust="spacingAndGlyphs"
       text-anchor="middle"
       opacity="0"
       id="text1006">R6</text>
    <path
       d="m 68360,29706 -79,-112"
       id="path1008" />
    <path
       d="m 68225,29706 v -236 h 90 l 23,11 11,12 11,22 v 34 l -11,22 -11,12 -23,11 h -90"
       id="path1010" />
    <path
       d="m 68563,29470 h -45 l -23,11 -11,12 -23,33 -11,45 v 90 l 11,23 12,11 22,11 h 45 l 23,-11 11,-11 11,-23 v -56 l -11,-22 -11,-12 -23,-11 h -45 l -22,11 -12,12 -11,22"
       id="path1012" />
    <text
       x="64100"
       y="25368.1"
       textLength="1656.64"
       font-size="314.961px"
       lengthAdjust="spacingAndGlyphs"
       text-anchor="middle"
       opacity="0"
       id="text1014">100 Ohm</text>
    <path
       d="m 63464,25356 h -135"
       id="path1016" />
    <path
       d="m 63396,25356 v -236 l -22,34 -23,22 -22,12"
       id="path1018" />
    <path
       d="m 63610,25120 h 23 l 22,11 11,12 12,22 11,45 v 56 l -11,45 -12,23 -11,11 -22,11 h -23 l -22,-11 -12,-11 -11,-23 -11,-45 v -56 l 11,-45 11,-22 12,-12 22,-11"
       id="path1020" />
    <path
       d="m 63835,25120 h 23 l 22,11 11,12 12,22 11,45 v 56 l -11,45 -12,23 -11,11 -22,11 h -23 l -22,-11 -12,-11 -11,-23 -11,-45 v -56 l 11,-45 11,-22 12,-12 22,-11"
       id="path1022" />
    <path
       d="m 64240,25120 h 45 l 23,11 22,23 11,45 v 79 l -11,45 -22,22 -23,11 h -45 l -22,-11 -23,-22 -11,-45 v -79 l 11,-45 23,-23 22,-11"
       id="path1024" />
    <path
       d="m 64443,25356 v -236"
       id="path1026" />
    <path
       d="m 64544,25356 v -123 l -11,-23 -23,-11 h -34 l -22,11 -11,11"
       id="path1028" />
    <path
       d="m 64656,25356 v -157"
       id="path1030" />
    <path
       d="m 64656,25221 12,-11 22,-11 h 34 l 22,11 12,23 v 123"
       id="path1032" />
    <path
       d="m 64758,25233 11,-23 22,-11 h 34 l 23,11 11,23 v 123"
       id="path1034" />
    <text
       x="64100"
       y="24842.5"
       textLength="734.25201"
       font-size="314.961px"
       lengthAdjust="spacingAndGlyphs"
       text-anchor="middle"
       opacity="0"
       id="text1036">RN1</text>
    <path
       d="m 63936,24831 -78,-113"
       id="path1038" />
    <path
       d="m 63801,24831 v -236 h 90 l 23,11 11,11 11,23 v 33 l -11,23 -11,11 -23,11 h -90"
       id="path1040" />
    <path
       d="m 64038,24831 v -236 l 135,236 v -236"
       id="path1042" />
    <path
       d="m 64409,24831 h -135"
       id="path1044" />
    <path
       d="m 64341,24831 v -236 l -22,33 -23,23 -22,11"
       id="path1046" />
    <text
       x="66000"
       y="10618.1"
       textLength="2275.3101"
       font-size="314.961px"
       lengthAdjust="spacingAndGlyphs"
       text-anchor="middle"
       opacity="0"
       id="text1048">USB_B_Micro</text>
    <path
       d="m 64931,10370 v 191 l 11,23 11,11 23,11 h 45 l 22,-11 12,-11 11,-23 v -191"
       id="path1050" />
    <path
       d="m 65167,10595 34,11 h 56 l 23,-11 11,-11 11,-23 v -22 l -11,-23 -11,-11 -23,-11 -45,-11 -22,-12 -12,-11 -11,-22 v -23 l 11,-22 12,-12 22,-11 h 56 l 34,11"
       id="path1052" />
    <path
       d="m 65482,10483 34,11 11,11 11,23 v 33 l -11,23 -11,11 -23,11 h -90 v -236 h 79 l 23,11 11,12 11,22 v 23 l -11,22 -11,11 -23,12 h -79"
       id="path1054" />
    <path
       d="m 65583,10629 h 180"
       id="path1056" />
    <path
       d="m 65898,10483 34,11 11,11 12,23 v 33 l -12,23 -11,11 -22,11 h -90 v -236 h 78 l 23,11 11,12 11,22 v 23 l -11,22 -11,11 -23,12 h -78"
       id="path1058" />
    <path
       d="m 66000,10629 h 179"
       id="path1060" />
    <path
       d="m 66236,10606 v -236 l 78,169 79,-169 v 236"
       id="path1062" />
    <path
       d="m 66506,10606 v -157"
       id="path1064" />
    <path
       d="m 66506,10370 -12,11 12,12 11,-12 -11,-11 v 23"
       id="path1066" />
    <path
       d="m 66719,10595 -22,11 h -45 l -23,-11 -11,-11 -11,-23 v -67 l 11,-23 11,-11 23,-11 h 45 l 22,11"
       id="path1068" />
    <path
       d="m 66821,10606 v -157"
       id="path1070" />
    <path
       d="m 66821,10494 11,-23 11,-11 23,-11 h 22"
       id="path1072" />
    <path
       d="m 67001,10606 -23,-11 -11,-11 -11,-23 v -67 l 11,-23 11,-11 23,-11 h 33 l 23,11 11,11 11,23 v 67 l -11,23 -11,11 -23,11 h -33"
       id="path1074" />
    <text
       x="66000"
       y="9368.1104"
       textLength="430.54001"
       font-size="314.961px"
       lengthAdjust="spacingAndGlyphs"
       text-anchor="middle"
       opacity="0"
       id="text1076">J4</text>
    <path
       d="m 65921,9120 v 169 l -11,34 -23,22 -34,11 h -22"
       id="path1078" />
    <path
       d="m 66134,9199 v 157"
       id="path1080" />
    <path
       d="m 66078,9109 -56,169 h 146"
       id="path1082" />
    <text
       x="69650"
       y="30518.1"
       textLength="1622.89"
       font-size="314.961px"
       lengthAdjust="spacingAndGlyphs"
       text-anchor="middle"
       opacity="0"
       id="text1084">10 kOhm</text>
    <path
       d="m 69031,30506 h -135"
       id="path1086" />
    <path
       d="m 68963,30506 v -236 l -22,34 -23,22 -22,12"
       id="path1088" />
    <path
       d="m 69177,30270 h 23 l 22,11 11,12 12,22 11,45 v 56 l -11,45 -12,23 -11,11 -22,11 h -23 l -22,-11 -12,-11 -11,-23 -11,-45 v -56 l 11,-45 11,-22 12,-12 22,-11"
       id="path1090" />
    <path
       d="m 69537,30506 v -236"
       id="path1092" />
    <path
       d="m 69560,30416 67,90"
       id="path1094" />
    <path
       d="m 69627,30349 -90,90"
       id="path1096" />
    <path
       d="m 69773,30270 h 45 l 23,11 22,23 11,45 v 79 l -11,45 -22,22 -23,11 h -45 l -22,-11 -23,-22 -11,-45 v -79 l 11,-45 23,-23 22,-11"
       id="path1098" />
    <path
       d="m 69976,30506 v -236"
       id="path1100" />
    <path
       d="m 70077,30506 v -123 l -11,-23 -23,-11 h -34 l -22,11 -11,11"
       id="path1102" />
    <path
       d="m 70189,30506 v -157"
       id="path1104" />
    <path
       d="m 70189,30371 12,-11 22,-11 h 34 l 22,11 12,23 v 123"
       id="path1106" />
    <path
       d="m 70291,30383 11,-23 22,-11 h 34 l 23,11 11,23 v 123"
       id="path1108" />
    <text
       x="68406.297"
       y="30518.1"
       textLength="486.78299"
       font-size="314.961px"
       lengthAdjust="spacingAndGlyphs"
       text-anchor="middle"
       opacity="0"
       id="text1110">R5</text>
    <path
       d="m 68366,30506 -78,-112"
       id="path1112" />
    <path
       d="m 68231,30506 v -236 h 90 l 23,11 11,12 11,22 v 34 l -11,22 -11,12 -23,11 h -90"
       id="path1114" />
    <path
       d="m 68580,30270 h -112 l -12,113 12,-12 22,-11 h 56 l 23,11 11,12 11,22 v 56 l -11,23 -11,11 -23,11 h -56 l -22,-11 -12,-11"
       id="path1116" />
    <text
       x="63600"
       y="15168.1"
       textLength="1656.64"
       font-size="314.961px"
       lengthAdjust="spacingAndGlyphs"
       text-anchor="middle"
       opacity="0"
       id="text1118">220 Ohm</text>
    <path
       d="m 62829,14943 11,-12 23,-11 h 56 l 22,11 12,12 11,22 v 23 l -11,33 -135,135 h 146"
       id="path1120" />
    <path
       d="m 63054,14943 11,-12 23,-11 h 56 l 22,11 12,12 11,22 v 23 l -11,33 -135,135 h 146"
       id="path1122" />
    <path
       d="m 63335,14920 h 23 l 22,11 11,12 12,22 11,45 v 56 l -11,45 -12,23 -11,11 -22,11 h -23 l -22,-11 -12,-11 -11,-23 -11,-45 v -56 l 11,-45 11,-22 12,-12 22,-11"
       id="path1124" />
    <path
       d="m 63740,14920 h 45 l 23,11 22,23 11,45 v 79 l -11,45 -22,22 -23,11 h -45 l -22,-11 -23,-22 -11,-45 v -79 l 11,-45 23,-23 22,-11"
       id="path1126" />
    <path
       d="m 63943,15156 v -236"
       id="path1128" />
    <path
       d="m 64044,15156 v -123 l -11,-23 -23,-11 h -34 l -22,11 -11,11"
       id="path1130" />
    <path
       d="m 64156,15156 v -157"
       id="path1132" />
    <path
       d="m 64156,15021 12,-11 22,-11 h 34 l 22,11 12,23 v 123"
       id="path1134" />
    <path
       d="m 64258,15033 11,-23 22,-11 h 34 l 23,11 11,23 v 123"
       id="path1136" />
    <text
       x="62750"
       y="14511.8"
       textLength="486.78299"
       font-size="314.961px"
       lengthAdjust="spacingAndGlyphs"
       text-anchor="middle"
       opacity="0"
       id="text1138">R4</text>
    <path
       d="m 62710,14500 -79,-112"
       id="path1140" />
    <path
       d="m 62575,14500 v -236 h 90 l 23,11 11,11 11,23 v 34 l -11,22 -11,11 -23,12 h -90"
       id="path1142" />
    <path
       d="m 62913,14343 v 157"
       id="path1144" />
    <path
       d="m 62856,14253 -56,168 h 146"
       id="path1146" />
    <text
       x="61750"
       y="15168.1"
       textLength="1656.64"
       font-size="314.961px"
       lengthAdjust="spacingAndGlyphs"
       text-anchor="middle"
       opacity="0"
       id="text1148">220 Ohm</text>
    <path
       d="m 60979,14943 11,-12 23,-11 h 56 l 22,11 12,12 11,22 v 23 l -11,33 -135,135 h 146"
       id="path1150" />
    <path
       d="m 61204,14943 11,-12 23,-11 h 56 l 22,11 12,12 11,22 v 23 l -11,33 -135,135 h 146"
       id="path1152" />
    <path
       d="m 61485,14920 h 23 l 22,11 11,12 12,22 11,45 v 56 l -11,45 -12,23 -11,11 -22,11 h -23 l -22,-11 -12,-11 -11,-23 -11,-45 v -56 l 11,-45 11,-22 12,-12 22,-11"
       id="path1154" />
    <path
       d="m 61890,14920 h 45 l 23,11 22,23 11,45 v 79 l -11,45 -22,22 -23,11 h -45 l -22,-11 -23,-22 -11,-45 v -79 l 11,-45 23,-23 22,-11"
       id="path1156" />
    <path
       d="m 62093,15156 v -236"
       id="path1158" />
    <path
       d="m 62194,15156 v -123 l -11,-23 -23,-11 h -34 l -22,11 -11,11"
       id="path1160" />
    <path
       d="m 62306,15156 v -157"
       id="path1162" />
    <path
       d="m 62306,15021 12,-11 22,-11 h 34 l 22,11 12,23 v 123"
       id="path1164" />
    <path
       d="m 62408,15033 11,-23 22,-11 h 34 l 23,11 11,23 v 123"
       id="path1166" />
    <text
       x="61750"
       y="14511.8"
       textLength="486.78299"
       font-size="314.961px"
       lengthAdjust="spacingAndGlyphs"
       text-anchor="middle"
       opacity="0"
       id="text1168">R3</text>
    <path
       d="m 61710,14500 -79,-112"
       id="path1170" />
    <path
       d="m 61575,14500 v -236 h 90 l 23,11 11,11 11,23 v 34 l -11,22 -11,11 -23,12 h -90"
       id="path1172" />
    <path
       d="m 61789,14264 h 146 l -79,90 h 34 l 23,11 11,11 11,23 v 56 l -11,23 -11,11 -23,11 h -67 l -23,-11 -11,-11"
       id="path1174" />
    <g
       transform="rotate(-90,63250,12250)"
       id="g1178">
      <text
         x="63250"
         y="12368.1"
         textLength="3220.1899"
         font-size="314.961px"
         lengthAdjust="spacingAndGlyphs"
         text-anchor="middle"
         opacity="0"
         id="text1176">RF-YUS150TS-AE</text>
    </g>
    <path
       d="m 63356,13656 -112,78"
       id="path1180" />
    <path
       d="m 63356,13791 h -236 v -90 l 11,-23 12,-11 22,-11 h 34 l 22,11 12,11 11,23 v 90"
       id="path1182" />
    <path
       d="m 63233,13476 v 78"
       id="path1184" />
    <path
       d="m 63356,13554 h -236 v -112"
       id="path1186" />
    <path
       d="m 63266,13352 v -180"
       id="path1188" />
    <path
       d="m 63244,13014 h 112"
       id="path1190" />
    <path
       d="m 63120,13093 124,-79 -124,-78"
       id="path1192" />
    <path
       d="m 63120,12857 h 191 l 23,-11 11,-12 11,-22 v -45 l -11,-23 -11,-11 -23,-11 h -191"
       id="path1194" />
    <path
       d="m 63345,12621 11,-34 v -56 l -11,-23 -11,-11 -23,-11 h -22 l -23,11 -11,11 -11,23 -11,45 -12,22 -11,11 -22,12 h -23 l -22,-12 -12,-11 -11,-22 v -57 l 11,-33"
       id="path1196" />
    <path
       d="m 63356,12261 v 135"
       id="path1198" />
    <path
       d="m 63356,12328 h -236 l 34,23 22,22 12,23"
       id="path1200" />
    <path
       d="m 63120,12047 v 113 l 113,11 -12,-11 -11,-23 v -56 l 11,-23 12,-11 22,-11 h 56 l 23,11 11,11 11,23 v 56 l -11,23 -11,11"
       id="path1202" />
    <path
       d="m 63120,11890 v -23 l 11,-22 12,-12 22,-11 45,-11 h 56 l 45,11 23,11 11,12 11,22 v 23 l -11,22 -11,11 -23,12 -45,11 h -56 l -45,-11 -22,-12 -12,-11 -11,-22"
       id="path1204" />
    <path
       d="m 63120,11743 v -135"
       id="path1206" />
    <path
       d="m 63356,11676 h -236"
       id="path1208" />
    <path
       d="m 63345,11541 11,-34 v -56 l -11,-23 -11,-11 -23,-11 h -22 l -23,11 -11,11 -11,23 -11,45 -12,22 -11,12 -22,11 h -23 l -22,-11 -12,-12 -11,-22 v -56 l 11,-34"
       id="path1210" />
    <path
       d="m 63266,11305 v -180"
       id="path1212" />
    <path
       d="m 63289,11023 v -112"
       id="path1214" />
    <path
       d="m 63356,11046 -236,-79 236,-79"
       id="path1216" />
    <path
       d="m 63233,10810 v -79"
       id="path1218" />
    <path
       d="m 63356,10697 v 113 h -236 v -113"
       id="path1220" />
    <text
       x="62750"
       y="12203.7"
       textLength="486.78299"
       font-size="314.961px"
       lengthAdjust="spacingAndGlyphs"
       text-anchor="middle"
       opacity="0"
       id="text1222">D5</text>
    <path
       d="m 62575,12192 v -236 h 56 l 34,11 23,23 11,22 11,45 v 34 l -11,45 -11,22 -23,23 -34,11 h -56"
       id="path1224" />
    <path
       d="m 62924,11956 h -113 l -11,112 11,-11 23,-11 h 56 l 23,11 11,11 11,23 v 56 l -11,22 -11,12 -23,11 h -56 l -23,-11 -11,-12"
       id="path1226" />
    <g
       transform="rotate(-90,62250,12250)"
       id="g1230">
      <text
         x="62250"
         y="12368.1"
         textLength="3220.1899"
         font-size="314.961px"
         lengthAdjust="spacingAndGlyphs"
         text-anchor="middle"
         opacity="0"
         id="text1228">RF-YUS150TS-AE</text>
    </g>
    <path
       d="m 62356,13656 -112,78"
       id="path1232" />
    <path
       d="m 62356,13791 h -236 v -90 l 11,-23 12,-11 22,-11 h 34 l 22,11 12,11 11,23 v 90"
       id="path1234" />
    <path
       d="m 62233,13476 v 78"
       id="path1236" />
    <path
       d="m 62356,13554 h -236 v -112"
       id="path1238" />
    <path
       d="m 62266,13352 v -180"
       id="path1240" />
    <path
       d="m 62244,13014 h 112"
       id="path1242" />
    <path
       d="m 62120,13093 124,-79 -124,-78"
       id="path1244" />
    <path
       d="m 62120,12857 h 191 l 23,-11 11,-12 11,-22 v -45 l -11,-23 -11,-11 -23,-11 h -191"
       id="path1246" />
    <path
       d="m 62345,12621 11,-34 v -56 l -11,-23 -11,-11 -23,-11 h -22 l -23,11 -11,11 -11,23 -11,45 -12,22 -11,11 -22,12 h -23 l -22,-12 -12,-11 -11,-22 v -57 l 11,-33"
       id="path1248" />
    <path
       d="m 62356,12261 v 135"
       id="path1250" />
    <path
       d="m 62356,12328 h -236 l 34,23 22,22 12,23"
       id="path1252" />
    <path
       d="m 62120,12047 v 113 l 113,11 -12,-11 -11,-23 v -56 l 11,-23 12,-11 22,-11 h 56 l 23,11 11,11 11,23 v 56 l -11,23 -11,11"
       id="path1254" />
    <path
       d="m 62120,11890 v -23 l 11,-22 12,-12 22,-11 45,-11 h 56 l 45,11 23,11 11,12 11,22 v 23 l -11,22 -11,11 -23,12 -45,11 h -56 l -45,-11 -22,-12 -12,-11 -11,-22"
       id="path1256" />
    <path
       d="m 62120,11743 v -135"
       id="path1258" />
    <path
       d="m 62356,11676 h -236"
       id="path1260" />
    <path
       d="m 62345,11541 11,-34 v -56 l -11,-23 -11,-11 -23,-11 h -22 l -23,11 -11,11 -11,23 -11,45 -12,22 -11,12 -22,11 h -23 l -22,-11 -12,-12 -11,-22 v -56 l 11,-34"
       id="path1262" />
    <path
       d="m 62266,11305 v -180"
       id="path1264" />
    <path
       d="m 62289,11023 v -112"
       id="path1266" />
    <path
       d="m 62356,11046 -236,-79 236,-79"
       id="path1268" />
    <path
       d="m 62233,10810 v -79"
       id="path1270" />
    <path
       d="m 62356,10697 v 113 h -236 v -113"
       id="path1272" />
    <text
       x="61750"
       y="12203.7"
       textLength="486.78299"
       font-size="314.961px"
       lengthAdjust="spacingAndGlyphs"
       text-anchor="middle"
       opacity="0"
       id="text1274">D4</text>
    <path
       d="m 61575,12192 v -236 h 56 l 34,11 23,23 11,22 11,45 v 34 l -11,45 -11,22 -23,23 -34,11 h -56"
       id="path1276" />
    <path
       d="m 61913,12035 v 157"
       id="path1278" />
    <path
       d="m 61856,11945 -56,168 h 146"
       id="path1280" />
    <text
       x="55600"
       y="16618.1"
       textLength="891.73199"
       font-size="314.961px"
       lengthAdjust="spacingAndGlyphs"
       text-anchor="middle"
       opacity="0"
       id="text1282">47uF</text>
    <path
       d="m 55324,16449 v 157"
       id="path1284" />
    <path
       d="m 55268,16359 -57,169 h 147"
       id="path1286" />
    <path
       d="m 55425,16370 h 158 l -102,236"
       id="path1288" />
    <path
       d="m 55774,16449 v 157"
       id="path1290" />
    <path
       d="m 55673,16449 v 124 l 11,22 22,11 h 34 l 23,-11 11,-11"
       id="path1292" />
    <path
       d="m 55965,16483 h -79"
       id="path1294" />
    <path
       d="m 55886,16606 v -236 h 113"
       id="path1296" />
    <text
       x="54100"
       y="15868.1"
       textLength="486.78299"
       font-size="314.961px"
       lengthAdjust="spacingAndGlyphs"
       text-anchor="middle"
       opacity="0"
       id="text1298">C8</text>
    <path
       d="m 54060,15834 -11,11 -34,11 h -22 l -34,-11 -23,-22 -11,-23 -11,-45 v -34 l 11,-45 11,-22 23,-23 34,-11 h 22 l 34,11 11,12"
       id="path1300" />
    <path
       d="m 54195,15721 -22,-11 -12,-11 -11,-23 v -11 l 11,-22 12,-12 22,-11 h 45 l 23,11 11,12 11,22 v 11 l -11,23 -11,11 -23,11 h -45 l -22,12 -12,11 -11,22 v 45 l 11,23 12,11 22,11 h 45 l 23,-11 11,-11 11,-23 v -45 l -11,-22 -11,-11 -23,-12"
       id="path1302" />
    <text
       x="55650"
       y="19068.1"
       textLength="891.73199"
       font-size="314.961px"
       lengthAdjust="spacingAndGlyphs"
       text-anchor="middle"
       opacity="0"
       id="text1304">47uF</text>
    <path
       d="m 55374,18899 v 157"
       id="path1306" />
    <path
       d="m 55318,18809 -57,169 h 147"
       id="path1308" />
    <path
       d="m 55475,18820 h 158 l -102,236"
       id="path1310" />
    <path
       d="m 55824,18899 v 157"
       id="path1312" />
    <path
       d="m 55723,18899 v 124 l 11,22 22,11 h 34 l 23,-11 11,-11"
       id="path1314" />
    <path
       d="m 56015,18933 h -79"
       id="path1316" />
    <path
       d="m 55936,19056 v -236 h 113"
       id="path1318" />
    <text
       x="54100"
       y="18368.1"
       textLength="486.78299"
       font-size="314.961px"
       lengthAdjust="spacingAndGlyphs"
       text-anchor="middle"
       opacity="0"
       id="text1320">C7</text>
    <path
       d="m 54060,18334 -11,11 -34,11 h -22 l -34,-11 -23,-22 -11,-23 -11,-45 v -34 l 11,-45 11,-22 23,-23 34,-11 h 22 l 34,11 11,12"
       id="path1322" />
    <path
       d="m 54139,18120 h 157 l -101,236"
       id="path1324" />
    <text
       x="68250"
       y="15368.1"
       textLength="1004.22"
       font-size="314.961px"
       lengthAdjust="spacingAndGlyphs"
       text-anchor="middle"
       opacity="0"
       id="text1326">0.1uF</text>
    <path
       d="m 67861,15120 h 23 l 22,11 12,12 11,22 11,45 v 56 l -11,45 -11,23 -12,11 -22,11 h -23 l -22,-11 -11,-11 -12,-23 -11,-45 v -56 l 11,-45 12,-22 11,-12 22,-11"
       id="path1328" />
    <path
       d="m 68041,15334 12,11 -12,11 -11,-11 11,-11 v 22"
       id="path1330" />
    <path
       d="m 68278,15356 h -135"
       id="path1332" />
    <path
       d="m 68210,15356 v -236 l -22,34 -23,22 -22,12"
       id="path1334" />
    <path
       d="m 68480,15199 v 157"
       id="path1336" />
    <path
       d="m 68379,15199 v 124 l 11,22 23,11 h 33 l 23,-11 11,-11"
       id="path1338" />
    <path
       d="m 68671,15233 h -78"
       id="path1340" />
    <path
       d="m 68593,15356 v -236 h 112"
       id="path1342" />
    <g
       transform="rotate(-90,68250,14591.5)"
       id="g1346">
      <text
         x="68250"
         y="14709.6"
         textLength="711.755"
         font-size="314.961px"
         lengthAdjust="spacingAndGlyphs"
         text-anchor="middle"
         opacity="0"
         id="text1344">C11</text>
    </g>
    <path
       d="m 68334,14743 11,11 11,34 v 22 l -11,34 -22,23 -23,11 -45,11 h -34 l -45,-11 -22,-11 -23,-23 -11,-34 v -22 l 11,-34 12,-11"
       id="path1348" />
    <path
       d="m 68356,14518 v 135"
       id="path1350" />
    <path
       d="m 68356,14585 h -236 l 34,23 22,22 12,23"
       id="path1352" />
    <path
       d="m 68356,14293 v 135"
       id="path1354" />
    <path
       d="m 68356,14360 h -236 l 34,23 22,22 12,23"
       id="path1356" />
    <text
       x="65600"
       y="17268.1"
       textLength="1510.41"
       font-size="314.961px"
       lengthAdjust="spacingAndGlyphs"
       text-anchor="middle"
       opacity="0"
       id="text1358">FT232RL</text>
    <path
       d="m 64992,17133 h -79"
       id="path1360" />
    <path
       d="m 64913,17256 v -236 h 113"
       id="path1362" />
    <path
       d="m 65082,17020 h 135"
       id="path1364" />
    <path
       d="m 65150,17256 v -236"
       id="path1366" />
    <path
       d="m 65285,17043 11,-12 22,-11 h 57 l 22,11 11,12 12,22 v 23 l -12,33 -135,135 h 147"
       id="path1368" />
    <path
       d="m 65498,17020 h 146 l -78,90 h 34 l 22,11 11,12 11,22 v 56 l -11,23 -11,11 -22,11 h -68 l -22,-11 -12,-11"
       id="path1370" />
    <path
       d="m 65734,17043 12,-12 22,-11 h 56 l 23,11 11,12 11,22 v 23 l -11,33 -135,135 h 146"
       id="path1372" />
    <path
       d="m 66106,17256 -79,-112"
       id="path1374" />
    <path
       d="m 65971,17256 v -236 h 90 l 22,11 11,12 12,22 v 34 l -12,22 -11,12 -22,11 h -90"
       id="path1376" />
    <path
       d="m 66319,17256 h -112 v -236"
       id="path1378" />
    <text
       x="65582.703"
       y="14978.3"
       textLength="498.03101"
       font-size="314.961px"
       lengthAdjust="spacingAndGlyphs"
       text-anchor="middle"
       opacity="0"
       id="text1380">U5</text>
    <path
       d="m 65402,14730 v 192 l 11,22 12,11 22,12 h 45 l 23,-12 11,-11 11,-22 v -192"
       id="path1382" />
    <path
       d="m 65762,14730 h -112 l -12,113 12,-11 22,-12 h 56 l 23,12 11,11 11,22 v 57 l -11,22 -11,11 -23,12 h -56 l -22,-12 -12,-11"
       id="path1384" />
    <text
       x="68250"
       y="10118.1"
       textLength="891.73199"
       font-size="314.961px"
       lengthAdjust="spacingAndGlyphs"
       text-anchor="middle"
       opacity="0"
       id="text1386">22uF</text>
    <path
       d="m 67861,9893 12,-12 22,-11 h 56 l 23,11 11,12 11,22 v 23 l -11,33 -135,135 h 146"
       id="path1388" />
    <path
       d="m 68086,9893 12,-12 22,-11 h 56 l 23,11 11,12 11,22 v 23 l -11,33 -135,135 h 146"
       id="path1390" />
    <path
       d="m 68424,9949 v 157"
       id="path1392" />
    <path
       d="m 68323,9949 v 124 l 11,22 22,11 h 34 l 23,-11 11,-11"
       id="path1394" />
    <path
       d="m 68615,9983 h -79"
       id="path1396" />
    <path
       d="m 68536,10106 v -236 h 113"
       id="path1398" />
    <g
       transform="rotate(-90,68250,9408.46)"
       id="g1402">
      <text
         x="68250"
         y="9526.5703"
         textLength="711.755"
         font-size="314.961px"
         lengthAdjust="spacingAndGlyphs"
         text-anchor="middle"
         opacity="0"
         id="text1400">C10</text>
    </g>
    <path
       d="m 68334,9560 11,11 11,34 v 22 l -11,34 -22,23 -23,11 -45,11 h -34 l -45,-11 -22,-11 -23,-23 -11,-34 v -22 l 11,-34 12,-11"
       id="path1404" />
    <path
       d="m 68356,9335 v 135"
       id="path1406" />
    <path
       d="m 68356,9402 h -236 l 34,23 22,22 12,23"
       id="path1408" />
    <path
       d="m 68120,9189 v -23 l 11,-22 12,-12 22,-11 45,-11 h 56 l 45,11 23,11 11,12 11,22 v 23 l -11,22 -11,11 -23,12 -45,11 h -56 l -45,-11 -22,-12 -12,-11 -11,-22"
       id="path1410" />
    <text
       x="58250"
       y="16918.1"
       textLength="2500.28"
       font-size="314.961px"
       lengthAdjust="spacingAndGlyphs"
       text-anchor="middle"
       opacity="0"
       id="text1412">NCP1117-3.3</text>
    <path
       d="m 57068,16906 v -236 l 135,236 v -236"
       id="path1414" />
    <path
       d="m 57451,16884 -11,11 -34,11 h -23 l -33,-11 -23,-22 -11,-23 -11,-45 v -34 l 11,-45 11,-22 23,-23 33,-11 h 23 l 34,11 11,12"
       id="path1416" />
    <path
       d="m 57552,16906 v -236 h 90 l 23,11 11,12 11,22 v 34 l -11,22 -11,12 -23,11 h -90"
       id="path1418" />
    <path
       d="m 57912,16906 h -135"
       id="path1420" />
    <path
       d="m 57845,16906 v -236 l -23,34 -22,22 -23,12"
       id="path1422" />
    <path
       d="m 58137,16906 h -135"
       id="path1424" />
    <path
       d="m 58070,16906 v -236 l -23,34 -22,22 -23,12"
       id="path1426" />
    <path
       d="m 58362,16906 h -135"
       id="path1428" />
    <path
       d="m 58294,16906 v -236 l -22,34 -22,22 -23,12"
       id="path1430" />
    <path
       d="m 58441,16670 h 157 l -101,236"
       id="path1432" />
    <path
       d="m 58688,16816 h 180"
       id="path1434" />
    <path
       d="m 58958,16670 h 146 l -78,90 h 33 l 23,11 11,12 11,22 v 56 l -11,23 -11,11 -23,11 h -67 l -23,-11 -11,-11"
       id="path1436" />
    <path
       d="m 59206,16884 11,11 -11,11 -12,-11 12,-11 v 22"
       id="path1438" />
    <path
       d="m 59296,16670 h 146 l -79,90 h 34 l 22,11 12,12 11,22 v 56 l -11,23 -12,11 -22,11 h -68 l -22,-11 -11,-11"
       id="path1440" />
    <text
       x="58240.199"
       y="15368.1"
       textLength="498.03101"
       font-size="314.961px"
       lengthAdjust="spacingAndGlyphs"
       text-anchor="middle"
       opacity="0"
       id="text1442">U2</text>
    <path
       d="m 58060,15120 v 191 l 11,23 11,11 23,11 h 45 l 22,-11 11,-11 12,-23 v -191"
       id="path1444" />
    <path
       d="m 58296,15143 11,-12 23,-11 h 56 l 22,11 12,12 11,22 v 23 l -11,33 -135,135 h 146"
       id="path1446" />
    <text
       x="68350"
       y="17118.1"
       textLength="1634.14"
       font-size="314.961px"
       lengthAdjust="spacingAndGlyphs"
       text-anchor="middle"
       opacity="0"
       id="text1448">BCR129S</text>
    <path
       d="m 67680,16983 34,11 11,11 11,23 v 33 l -11,23 -11,11 -23,11 h -90 v -236 h 79 l 23,11 11,12 11,22 v 23 l -11,22 -11,11 -23,12 h -79"
       id="path1450" />
    <path
       d="m 67973,17084 -12,11 -33,11 h -23 l -34,-11 -22,-22 -11,-23 -12,-45 v -34 l 12,-45 11,-22 22,-23 34,-11 h 23 l 33,11 12,12"
       id="path1452" />
    <path
       d="m 68209,17106 -79,-112"
       id="path1454" />
    <path
       d="m 68074,17106 v -236 h 90 l 22,11 12,12 11,22 v 34 l -11,22 -12,12 -22,11 h -90"
       id="path1456" />
    <path
       d="m 68434,17106 h -135"
       id="path1458" />
    <path
       d="m 68366,17106 v -236 l -22,34 -23,22 -22,12"
       id="path1460" />
    <path
       d="m 68524,16893 11,-12 23,-11 h 56 l 22,11 12,12 11,22 v 23 l -11,33 -135,135 h 146"
       id="path1462" />
    <path
       d="m 68771,17106 h 45 l 23,-11 11,-11 23,-34 11,-45 v -90 l -11,-22 -12,-12 -22,-11 h -45 l -23,11 -11,12 -11,22 v 56 l 11,23 11,11 23,11 h 45 l 22,-11 12,-11 11,-23"
       id="path1464" />
    <path
       d="m 68974,17095 34,11 h 56 l 22,-11 12,-11 11,-23 v -22 l -11,-23 -12,-11 -22,-11 -45,-11 -23,-12 -11,-11 -11,-22 v -23 l 11,-22 11,-12 23,-11 h 56 l 34,11"
       id="path1466" />
    <text
       x="68374"
       y="16374"
       textLength="498.03101"
       font-size="314.961px"
       lengthAdjust="spacingAndGlyphs"
       text-anchor="middle"
       opacity="0"
       id="text1468">Q1</text>
    <path
       d="m 68351,16385 -22,-11 -23,-23 -34,-34 -22,-11 h -23"
       id="path1470" />
    <path
       d="m 68239,16362 -23,-11 -22,-22 -12,-45 v -79 l 12,-45 22,-23 23,-11 h 45 l 22,11 23,23 11,45 v 79 l -11,45 -23,22 -22,11 h -45"
       id="path1472" />
    <path
       d="m 68565,16362 h -135"
       id="path1474" />
    <path
       d="m 68497,16362 v -236 l -22,34 -23,22 -22,12"
       id="path1476" />
    <text
       x="58250"
       y="12368.1"
       textLength="3141.45"
       font-size="314.961px"
       lengthAdjust="spacingAndGlyphs"
       text-anchor="middle"
       opacity="0"
       id="text1478">NCP1117ST50T3G</text>
    <path
       d="m 56748,12356 v -236 l 135,236 v -236"
       id="path1480" />
    <path
       d="m 57130,12334 -11,11 -34,11 h -22 l -34,-11 -22,-22 -12,-23 -11,-45 v -34 l 11,-45 12,-22 22,-23 34,-11 h 22 l 34,11 11,12"
       id="path1482" />
    <path
       d="m 57232,12356 v -236 h 89 l 23,11 11,12 11,22 v 34 l -11,22 -11,12 -23,11 h -89"
       id="path1484" />
    <path
       d="m 57591,12356 h -135"
       id="path1486" />
    <path
       d="m 57524,12356 v -236 l -23,34 -22,22 -23,12"
       id="path1488" />
    <path
       d="m 57816,12356 h -135"
       id="path1490" />
    <path
       d="m 57749,12356 v -236 l -23,34 -22,22 -23,12"
       id="path1492" />
    <path
       d="m 58041,12356 h -135"
       id="path1494" />
    <path
       d="m 57974,12356 v -236 l -23,34 -22,22 -23,12"
       id="path1496" />
    <path
       d="m 58120,12120 h 158 l -102,236"
       id="path1498" />
    <path
       d="m 58356,12345 34,11 h 56 l 23,-11 11,-11 11,-23 v -22 l -11,-23 -11,-11 -23,-11 -45,-11 -22,-12 -11,-11 -12,-22 v -23 l 12,-22 11,-12 22,-11 h 57 l 33,11"
       id="path1500" />
    <path
       d="m 58559,12120 h 135"
       id="path1502" />
    <path
       d="m 58626,12356 v -236"
       id="path1504" />
    <path
       d="m 58885,12120 h -112 l -12,113 12,-12 22,-11 h 56 l 23,11 11,12 11,22 v 56 l -11,23 -11,11 -23,11 h -56 l -22,-11 -12,-11"
       id="path1506" />
    <path
       d="m 59043,12120 h 22 l 23,11 11,12 11,22 11,45 v 56 l -11,45 -11,23 -11,11 -23,11 h -22 l -23,-11 -11,-11 -11,-23 -12,-45 v -56 l 12,-45 11,-22 11,-12 23,-11"
       id="path1508" />
    <path
       d="m 59189,12120 h 135"
       id="path1510" />
    <path
       d="m 59256,12356 v -236"
       id="path1512" />
    <path
       d="m 59380,12120 h 146 l -79,90 h 34 l 23,11 11,12 11,22 v 56 l -11,23 -11,11 -23,11 h -67 l -23,-11 -11,-11"
       id="path1514" />
    <path
       d="m 59751,12131 -22,-11 h -34 l -34,11 -22,23 -12,22 -11,45 v 34 l 11,45 12,23 22,22 34,11 h 22 l 34,-11 11,-11 v -79 h -45"
       id="path1516" />
    <g
       transform="rotate(-90,58330.3,10750)"
       id="g1520">
      <text
         x="58330.301"
         y="10868.1"
         textLength="498.03101"
         font-size="314.961px"
         lengthAdjust="spacingAndGlyphs"
         text-anchor="middle"
         opacity="0"
         id="text1518">U3</text>
    </g>
    <path
       d="m 58200,10929 h 192 l 22,-11 11,-11 12,-23 v -45 l -12,-22 -11,-11 -22,-12 h -192"
       id="path1522" />
    <path
       d="m 58200,10705 v -147 l 90,79 v -34 l 12,-22 11,-11 22,-12 h 57 l 22,12 11,11 12,22 v 68 l -12,22 -11,12"
       id="path1524" />
    <text
       x="62750"
       y="9968.1104"
       textLength="2016.59"
       font-size="314.961px"
       lengthAdjust="spacingAndGlyphs"
       text-anchor="middle"
       opacity="0"
       id="text1526">STPS0520Z</text>
    <path
       d="m 61799,9945 34,11 h 56 l 22,-11 12,-11 11,-23 v -22 l -11,-23 -12,-11 -22,-11 -45,-11 -23,-12 -11,-11 -11,-22 v -23 l 11,-22 11,-12 23,-11 h 56 l 34,11"
       id="path1528" />
    <path
       d="m 62001,9720 h 135"
       id="path1530" />
    <path
       d="M 62069,9956 V 9720"
       id="path1532" />
    <path
       d="m 62215,9956 v -236 h 90 l 23,11 11,12 11,22 v 34 l -11,22 -11,12 -23,11 h -90"
       id="path1534" />
    <path
       d="m 62440,9945 34,11 h 56 l 23,-11 11,-11 11,-23 v -22 l -11,-23 -11,-11 -23,-11 -45,-11 -22,-12 -12,-11 -11,-22 v -23 l 11,-22 12,-12 22,-11 h 56 l 34,11"
       id="path1536" />
    <path
       d="m 62721,9720 h 23 l 22,11 12,12 11,22 11,45 v 56 l -11,45 -11,23 -12,11 -22,11 h -23 l -22,-11 -11,-11 -12,-23 -11,-45 v -56 l 11,-45 12,-22 11,-12 22,-11"
       id="path1538" />
    <path
       d="m 63014,9720 h -113 l -11,113 11,-12 23,-11 h 56 l 23,11 11,12 11,22 v 56 l -11,23 -11,11 -23,11 h -56 l -23,-11 -11,-11"
       id="path1540" />
    <path
       d="m 63115,9743 11,-12 23,-11 h 56 l 23,11 11,12 11,22 v 23 l -11,33 -135,135 h 146"
       id="path1542" />
    <path
       d="m 63396,9720 h 23 l 22,11 12,12 11,22 11,45 v 56 l -11,45 -11,23 -12,11 -22,11 h -23 l -22,-11 -11,-11 -12,-23 -11,-45 v -56 l 11,-45 12,-22 11,-12 22,-11"
       id="path1544" />
    <path
       d="m 63554,9720 h 157 l -157,236 h 157"
       id="path1546" />
    <text
       x="62800"
       y="8718.1104"
       textLength="486.78299"
       font-size="314.961px"
       lengthAdjust="spacingAndGlyphs"
       text-anchor="middle"
       opacity="0"
       id="text1548">D3</text>
    <path
       d="m 62625,8706 v -236 h 56 l 34,11 23,23 11,22 11,45 v 34 l -11,45 -11,23 -23,22 -34,11 h -56"
       id="path1550" />
    <path
       d="m 62839,8470 h 146 l -79,90 h 34 l 23,11 11,12 11,22 v 56 l -11,23 -11,11 -23,11 h -67 l -23,-11 -11,-11"
       id="path1552" />
    <text
       x="51800"
       y="18218.1"
       textLength="520.52899"
       font-size="314.961px"
       lengthAdjust="spacingAndGlyphs"
       text-anchor="middle"
       opacity="0"
       id="text1554">M7</text>
    <path
       d="m 51608,18206 v -236 l 79,169 79,-169 v 236"
       id="path1556" />
    <path
       d="m 51856,17970 h 157 l -101,236"
       id="path1558" />
    <text
       x="51800"
       y="15868.1"
       textLength="486.78299"
       font-size="314.961px"
       lengthAdjust="spacingAndGlyphs"
       text-anchor="middle"
       opacity="0"
       id="text1560">D2</text>
    <path
       d="m 51625,15856 v -236 h 56 l 34,11 23,23 11,22 11,45 v 34 l -11,45 -11,23 -23,22 -34,11 h -56"
       id="path1562" />
    <path
       d="m 51850,15643 11,-12 23,-11 h 56 l 23,11 11,12 11,22 v 23 l -11,33 -135,135 h 146"
       id="path1564" />
    <text
       x="59850"
       y="15168.1"
       textLength="1656.64"
       font-size="314.961px"
       lengthAdjust="spacingAndGlyphs"
       text-anchor="middle"
       opacity="0"
       id="text1566">220 Ohm</text>
    <path
       d="m 59079,14943 11,-12 23,-11 h 56 l 22,11 12,12 11,22 v 23 l -11,33 -135,135 h 146"
       id="path1568" />
    <path
       d="m 59304,14943 11,-12 23,-11 h 56 l 22,11 12,12 11,22 v 23 l -11,33 -135,135 h 146"
       id="path1570" />
    <path
       d="m 59585,14920 h 23 l 22,11 11,12 12,22 11,45 v 56 l -11,45 -12,23 -11,11 -22,11 h -23 l -22,-11 -12,-11 -11,-23 -11,-45 v -56 l 11,-45 11,-22 12,-12 22,-11"
       id="path1572" />
    <path
       d="m 59990,14920 h 45 l 23,11 22,23 11,45 v 79 l -11,45 -22,22 -23,11 h -45 l -22,-11 -23,-22 -11,-45 v -79 l 11,-45 23,-23 22,-11"
       id="path1574" />
    <path
       d="m 60193,15156 v -236"
       id="path1576" />
    <path
       d="m 60294,15156 v -123 l -11,-23 -23,-11 h -34 l -22,11 -11,11"
       id="path1578" />
    <path
       d="m 60406,15156 v -157"
       id="path1580" />
    <path
       d="m 60406,15021 12,-11 22,-11 h 34 l 22,11 12,23 v 123"
       id="path1582" />
    <path
       d="m 60508,15033 11,-23 22,-11 h 34 l 23,11 11,23 v 123"
       id="path1584" />
    <text
       x="60750"
       y="14511.8"
       textLength="486.78299"
       font-size="314.961px"
       lengthAdjust="spacingAndGlyphs"
       text-anchor="middle"
       opacity="0"
       id="text1586">R1</text>
    <path
       d="m 60710,14500 -79,-112"
       id="path1588" />
    <path
       d="m 60575,14500 v -236 h 90 l 23,11 11,11 11,23 v 34 l -11,22 -11,11 -23,12 h -90"
       id="path1590" />
    <path
       d="m 60935,14500 h -135"
       id="path1592" />
    <path
       d="m 60868,14500 v -236 l -23,34 -22,22 -23,11"
       id="path1594" />
    <g
       transform="rotate(-90,61250,12250)"
       id="g1598">
      <text
         x="61250"
         y="12368.1"
         textLength="3287.6799"
         font-size="314.961px"
         lengthAdjust="spacingAndGlyphs"
         text-anchor="middle"
         opacity="0"
         id="text1596">RF-GSS150TS-BC</text>
    </g>
    <path
       d="m 61356,13689 -112,79"
       id="path1600" />
    <path
       d="m 61356,13824 h -236 v -90 l 11,-22 12,-11 22,-12 h 34 l 22,12 12,11 11,22 v 90"
       id="path1602" />
    <path
       d="m 61233,13509 v 79"
       id="path1604" />
    <path
       d="m 61356,13588 h -236 v -112"
       id="path1606" />
    <path
       d="m 61266,13386 v -180"
       id="path1608" />
    <path
       d="m 61131,12969 -11,23 v 34 l 11,33 23,23 22,11 45,11 h 34 l 45,-11 23,-11 22,-23 11,-33 v -23 l -11,-34 -11,-11 h -79 v 45"
       id="path1610" />
    <path
       d="m 61345,12868 11,-34 v -56 l -11,-22 -11,-12 -23,-11 h -22 l -23,11 -11,12 -11,22 -11,45 -12,23 -11,11 -22,11 h -23 l -22,-11 -12,-11 -11,-23 v -56 l 11,-34"
       id="path1612" />
    <path
       d="m 61345,12643 11,-34 v -56 l -11,-22 -11,-12 -23,-11 h -22 l -23,11 -11,12 -11,22 -11,45 -12,23 -11,11 -22,11 h -23 l -22,-11 -12,-11 -11,-23 v -56 l 11,-34"
       id="path1614" />
    <path
       d="m 61356,12283 v 135"
       id="path1616" />
    <path
       d="m 61356,12351 h -236 l 34,22 22,23 12,22"
       id="path1618" />
    <path
       d="m 61120,12070 v 112 l 113,11 -12,-11 -11,-22 v -57 l 11,-22 12,-11 22,-12 h 56 l 23,12 11,11 11,22 v 57 l -11,22 -11,11"
       id="path1620" />
    <path
       d="m 61120,11912 v -22 l 11,-23 12,-11 22,-11 45,-12 h 56 l 45,12 23,11 11,11 11,23 v 22 l -11,23 -11,11 -23,11 -45,11 h -56 l -45,-11 -22,-11 -12,-11 -11,-23"
       id="path1622" />
    <path
       d="m 61120,11766 v -135"
       id="path1624" />
    <path
       d="m 61356,11698 h -236"
       id="path1626" />
    <path
       d="m 61345,11563 11,-33 v -57 l -11,-22 -11,-11 -23,-12 h -22 l -23,12 -11,11 -11,22 -11,45 -12,23 -11,11 -22,11 h -23 l -22,-11 -12,-11 -11,-23 v -56 l 11,-34"
       id="path1628" />
    <path
       d="m 61266,11327 v -180"
       id="path1630" />
    <path
       d="m 61233,10956 11,-34 11,-11 23,-11 h 33 l 23,11 11,11 11,23 v 90 h -236 v -79 l 11,-23 12,-11 22,-11 h 23 l 22,11 11,11 12,23 v 79"
       id="path1632" />
    <path
       d="m 61334,10663 11,12 11,33 v 23 l -11,34 -22,22 -23,11 -45,12 h -34 l -45,-12 -22,-11 -23,-22 -11,-34 v -23 l 11,-33 12,-12"
       id="path1634" />
    <text
       x="60750"
       y="12203.7"
       textLength="486.78299"
       font-size="314.961px"
       lengthAdjust="spacingAndGlyphs"
       text-anchor="middle"
       opacity="0"
       id="text1636">D1</text>
    <path
       d="m 60575,12192 v -236 h 56 l 34,11 23,23 11,22 11,45 v 34 l -11,45 -11,22 -23,23 -34,11 h -56"
       id="path1638" />
    <path
       d="m 60935,12192 h -135"
       id="path1640" />
    <path
       d="m 60868,12192 v -236 l -23,34 -22,22 -23,11"
       id="path1642" />
    <text
       x="57666.898"
       y="13618.1"
       textLength="891.73199"
       font-size="314.961px"
       lengthAdjust="spacingAndGlyphs"
       text-anchor="middle"
       opacity="0"
       id="text1644">22uF</text>
    <path
       d="m 57278,13393 12,-12 22,-11 h 56 l 23,11 11,12 11,22 v 23 l -11,33 -135,135 h 146"
       id="path1646" />
    <path
       d="m 57503,13393 12,-12 22,-11 h 56 l 23,11 11,12 11,22 v 23 l -11,33 -135,135 h 146"
       id="path1648" />
    <path
       d="m 57841,13449 v 157"
       id="path1650" />
    <path
       d="m 57740,13449 v 124 l 11,22 22,11 h 34 l 23,-11 11,-11"
       id="path1652" />
    <path
       d="m 58032,13483 h -79"
       id="path1654" />
    <path
       d="m 57953,13606 v -236 h 113"
       id="path1656" />
    <text
       x="57658.5"
       y="13118.1"
       textLength="486.78299"
       font-size="314.961px"
       lengthAdjust="spacingAndGlyphs"
       text-anchor="middle"
       opacity="0"
       id="text1658">C6</text>
    <path
       d="m 57619,13084 -12,11 -33,11 h -23 l -34,-11 -22,-22 -11,-23 -12,-45 v -34 l 12,-45 11,-22 22,-23 34,-11 h 23 l 33,11 12,12"
       id="path1660" />
    <path
       d="m 57821,12870 h -45 l -22,11 -12,12 -22,33 -11,45 v 90 l 11,23 11,11 23,11 h 45 l 22,-11 11,-11 12,-23 v -56 l -12,-22 -11,-12 -22,-11 h -45 l -23,11 -11,12 -11,22"
       id="path1662" />
    <text
       x="59500"
       y="13618.1"
       textLength="891.73199"
       font-size="314.961px"
       lengthAdjust="spacingAndGlyphs"
       text-anchor="middle"
       opacity="0"
       id="text1664">22uF</text>
    <path
       d="m 59111,13393 12,-12 22,-11 h 56 l 23,11 11,12 11,22 v 23 l -11,33 -135,135 h 146"
       id="path1666" />
    <path
       d="m 59336,13393 12,-12 22,-11 h 56 l 23,11 11,12 11,22 v 23 l -11,33 -135,135 h 146"
       id="path1668" />
    <path
       d="m 59674,13449 v 157"
       id="path1670" />
    <path
       d="m 59573,13449 v 124 l 11,22 22,11 h 34 l 23,-11 11,-11"
       id="path1672" />
    <path
       d="m 59865,13483 h -79"
       id="path1674" />
    <path
       d="m 59786,13606 v -236 h 113"
       id="path1676" />
    <text
       x="59341.5"
       y="13118.1"
       textLength="486.78299"
       font-size="314.961px"
       lengthAdjust="spacingAndGlyphs"
       text-anchor="middle"
       opacity="0"
       id="text1678">C5</text>
    <path
       d="m 59302,13084 -12,11 -33,11 h -23 l -34,-11 -22,-22 -11,-23 -12,-45 v -34 l 12,-45 11,-22 22,-23 34,-11 h 23 l 33,11 12,12"
       id="path1680" />
    <path
       d="m 59515,12870 h -112 l -11,113 11,-12 22,-11 h 57 l 22,11 11,12 12,22 v 56 l -12,23 -11,11 -22,11 h -57 l -22,-11 -11,-11"
       id="path1682" />
    <text
       x="60750"
       y="10368.1"
       textLength="1004.22"
       font-size="314.961px"
       lengthAdjust="spacingAndGlyphs"
       text-anchor="middle"
       opacity="0"
       id="text1684">0.1uF</text>
    <path
       d="m 60361,10120 h 23 l 22,11 12,12 11,22 11,45 v 56 l -11,45 -11,23 -12,11 -22,11 h -23 l -22,-11 -11,-11 -12,-23 -11,-45 v -56 l 11,-45 12,-22 11,-12 22,-11"
       id="path1686" />
    <path
       d="m 60541,10334 12,11 -12,11 -11,-11 11,-11 v 22"
       id="path1688" />
    <path
       d="m 60778,10356 h -135"
       id="path1690" />
    <path
       d="m 60710,10356 v -236 l -22,34 -23,22 -22,12"
       id="path1692" />
    <path
       d="m 60980,10199 v 157"
       id="path1694" />
    <path
       d="m 60879,10199 v 124 l 11,22 23,11 h 33 l 23,-11 11,-11"
       id="path1696" />
    <path
       d="m 61171,10233 h -78"
       id="path1698" />
    <path
       d="m 61093,10356 v -236 h 112"
       id="path1700" />
    <text
       x="60750"
       y="9776.5703"
       textLength="486.78299"
       font-size="314.961px"
       lengthAdjust="spacingAndGlyphs"
       text-anchor="middle"
       opacity="0"
       id="text1702">C9</text>
    <path
       d="m 60710,9742 -11,12 -34,11 h -22 l -34,-11 -23,-23 -11,-22 -11,-45 v -34 l 11,-45 11,-23 23,-22 34,-11 h 22 l 34,11 11,11"
       id="path1704" />
    <path
       d="m 60823,9765 h 45 l 22,-11 11,-12 23,-33 11,-45 v -90 l -11,-23 -11,-11 -23,-11 h -45 l -22,11 -12,11 -11,23 v 56 l 11,22 12,12 22,11 h 45 l 23,-11 11,-12 11,-22"
       id="path1706" />
    <text
       x="66900"
       y="12618.1"
       textLength="2590.27"
       font-size="314.961px"
       lengthAdjust="spacingAndGlyphs"
       text-anchor="middle"
       opacity="0"
       id="text1708">USBLC6-2SC6</text>
    <path
       d="m 65673,12370 v 191 l 12,23 11,11 22,11 h 45 l 23,-11 11,-11 11,-23 v -191"
       id="path1710" />
    <path
       d="m 65910,12595 33,11 h 57 l 22,-11 11,-11 12,-23 v -22 l -12,-23 -11,-11 -22,-11 -45,-11 -23,-12 -11,-11 -11,-22 v -23 l 11,-22 11,-12 23,-11 h 56 l 34,11"
       id="path1712" />
    <path
       d="m 66225,12483 33,11 12,11 11,23 v 33 l -11,23 -12,11 -22,11 h -90 v -236 h 79 l 22,11 11,12 12,22 v 23 l -12,22 -11,11 -22,12 h -79"
       id="path1714" />
    <path
       d="m 66495,12606 h -113 v -236"
       id="path1716" />
    <path
       d="m 66708,12584 -11,11 -34,11 h -22 l -34,-11 -22,-22 -12,-23 -11,-45 v -34 l 11,-45 12,-22 22,-23 34,-11 h 22 l 34,11 11,12"
       id="path1718" />
    <path
       d="m 66911,12370 h -45 l -23,11 -11,12 -22,33 -12,45 v 90 l 12,23 11,11 22,11 h 45 l 23,-11 11,-11 11,-23 v -56 l -11,-22 -11,-12 -23,-11 h -45 l -22,11 -11,12 -12,22"
       id="path1720" />
    <path
       d="m 67034,12516 h 180"
       id="path1722" />
    <path
       d="m 67316,12393 11,-12 22,-11 h 57 l 22,11 11,12 12,22 v 23 l -12,33 -135,135 h 147"
       id="path1724" />
    <path
       d="m 67541,12595 33,11 h 57 l 22,-11 11,-11 12,-23 v -22 l -12,-23 -11,-11 -22,-11 -45,-11 -23,-12 -11,-11 -11,-22 v -23 l 11,-22 11,-12 23,-11 h 56 l 34,11"
       id="path1726" />
    <path
       d="m 67912,12584 -11,11 -34,11 h -23 l -33,-11 -23,-22 -11,-23 -11,-45 v -34 l 11,-45 11,-22 23,-23 33,-11 h 23 l 34,11 11,12"
       id="path1728" />
    <path
       d="m 68114,12370 h -45 l -22,11 -11,12 -23,33 -11,45 v 90 l 11,23 11,11 23,11 h 45 l 22,-11 12,-11 11,-23 v -56 l -11,-22 -12,-12 -22,-11 h -45 l -23,11 -11,12 -11,22"
       id="path1730" />
    <g
       transform="rotate(-90,66126,11816.9)"
       id="g1734">
      <text
         x="66126"
         y="11935"
         textLength="498.03101"
         font-size="314.961px"
         lengthAdjust="spacingAndGlyphs"
         text-anchor="middle"
         opacity="0"
         id="text1732">U4</text>
    </g>
    <path
       d="m 65996,11996 h 191 l 23,-11 11,-11 11,-23 v -45 l -11,-22 -11,-11 -23,-12 h -191"
       id="path1736" />
    <path
       d="m 66075,11648 h 157"
       id="path1738" />
    <path
       d="m 65985,11704 169,56 v -146"
       id="path1740" />
    <text
       x="65350"
       y="12618.1"
       textLength="1735.38"
       font-size="314.961px"
       lengthAdjust="spacingAndGlyphs"
       text-anchor="end"
       opacity="0"
       id="text1742">2.2 kOhm</text>
    <path
       d="m 63672,12393 11,-12 23,-11 h 56 l 22,11 12,12 11,22 v 23 l -11,33 -135,135 h 146"
       id="path1744" />
    <path
       d="m 63908,12584 11,11 -11,11 -11,-11 11,-11 v 22"
       id="path1746" />
    <path
       d="m 64009,12393 12,-12 22,-11 h 56 l 23,11 11,12 11,22 v 23 l -11,33 -135,135 h 146"
       id="path1748" />
    <path
       d="m 64426,12606 v -236"
       id="path1750" />
    <path
       d="m 64448,12516 68,90"
       id="path1752" />
    <path
       d="m 64516,12449 -90,90"
       id="path1754" />
    <path
       d="m 64662,12370 h 45 l 22,11 23,23 11,45 v 79 l -11,45 -23,22 -22,11 h -45 l -23,-11 -22,-22 -11,-45 v -79 l 11,-45 22,-23 23,-11"
       id="path1756" />
    <path
       d="m 64864,12606 v -236"
       id="path1758" />
    <path
       d="m 64966,12606 v -123 l -12,-23 -22,-11 h -34 l -22,11 -12,11"
       id="path1760" />
    <path
       d="m 65078,12606 v -157"
       id="path1762" />
    <path
       d="m 65078,12471 11,-11 23,-11 h 33 l 23,11 11,23 v 123"
       id="path1764" />
    <path
       d="m 65179,12483 11,-23 23,-11 h 34 l 22,11 11,23 v 123"
       id="path1766" />
    <text
       x="64000"
       y="11924.4"
       textLength="486.78299"
       font-size="314.961px"
       lengthAdjust="spacingAndGlyphs"
       text-anchor="middle"
       opacity="0"
       id="text1768">R2</text>
    <path
       d="m 63960,11913 -79,-113"
       id="path1770" />
    <path
       d="m 63825,11913 v -237 h 90 l 23,12 11,11 11,22 v 34 l -11,23 -11,11 -23,11 h -90"
       id="path1772" />
    <path
       d="m 64050,11699 11,-11 23,-12 h 56 l 23,12 11,11 11,22 v 23 l -11,34 -135,135 h 146"
       id="path1774" />
    <text
       x="68750"
       y="13118.1"
       textLength="1004.22"
       font-size="314.961px"
       lengthAdjust="spacingAndGlyphs"
       text-anchor="middle"
       opacity="0"
       id="text1776">0.1uF</text>
    <path
       d="m 68361,12870 h 23 l 22,11 12,12 11,22 11,45 v 56 l -11,45 -11,23 -12,11 -22,11 h -23 l -22,-11 -11,-11 -12,-23 -11,-45 v -56 l 11,-45 12,-22 11,-12 22,-11"
       id="path1778" />
    <path
       d="m 68541,13084 12,11 -12,11 -11,-11 11,-11 v 22"
       id="path1780" />
    <path
       d="m 68778,13106 h -135"
       id="path1782" />
    <path
       d="m 68710,13106 v -236 l -22,34 -23,22 -22,12"
       id="path1784" />
    <path
       d="m 68980,12949 v 157"
       id="path1786" />
    <path
       d="m 68879,12949 v 124 l 11,22 23,11 h 33 l 23,-11 11,-11"
       id="path1788" />
    <path
       d="m 69171,12983 h -78"
       id="path1790" />
    <path
       d="m 69093,13106 v -236 h 112"
       id="path1792" />
    <g
       transform="rotate(-90,68750,12341.5)"
       id="g1796">
      <text
         x="68750"
         y="12459.6"
         textLength="486.78299"
         font-size="314.961px"
         lengthAdjust="spacingAndGlyphs"
         text-anchor="middle"
         opacity="0"
         id="text1794">C3</text>
    </g>
    <path
       d="m 68834,12380 11,12 11,33 v 23 l -11,34 -22,22 -23,11 -45,12 h -34 l -45,-12 -22,-11 -23,-22 -11,-34 v -23 l 11,-33 12,-12"
       id="path1798" />
    <path
       d="m 68620,12302 v -147 l 90,79 v -34 l 11,-22 12,-11 22,-12 h 56 l 23,12 11,11 11,22 v 68 l -11,22 -11,12"
       id="path1800" />
    <text
       x="66000"
       y="30968.1"
       textLength="1004.22"
       font-size="314.961px"
       lengthAdjust="spacingAndGlyphs"
       text-anchor="end"
       opacity="0"
       id="text1802">0.1uF</text>
    <path
       d="m 65109,30720 h 23 l 22,11 12,12 11,22 11,45 v 56 l -11,45 -11,23 -12,11 -22,11 h -23 l -22,-11 -11,-11 -12,-23 -11,-45 v -56 l 11,-45 12,-22 11,-12 22,-11"
       id="path1804" />
    <path
       d="m 65289,30934 12,11 -12,11 -11,-11 11,-11 v 22"
       id="path1806" />
    <path
       d="m 65526,30956 h -135"
       id="path1808" />
    <path
       d="m 65458,30956 v -236 l -22,34 -23,22 -22,12"
       id="path1810" />
    <path
       d="m 65728,30799 v 157"
       id="path1812" />
    <path
       d="m 65627,30799 v 124 l 11,22 22,11 h 34 l 23,-11 11,-11"
       id="path1814" />
    <path
       d="m 65919,30833 h -79"
       id="path1816" />
    <path
       d="m 65840,30956 v -236 h 113"
       id="path1818" />
    <text
       x="66000"
       y="30518.1"
       textLength="486.78299"
       font-size="314.961px"
       lengthAdjust="spacingAndGlyphs"
       text-anchor="middle"
       opacity="0"
       id="text1820">C2</text>
    <path
       d="m 65960,30484 -11,11 -34,11 h -22 l -34,-11 -23,-22 -11,-23 -11,-45 v -34 l 11,-45 11,-22 23,-23 34,-11 h 22 l 34,11 11,12"
       id="path1822" />
    <path
       d="m 66050,30293 11,-12 23,-11 h 56 l 23,11 11,12 11,22 v 23 l -11,33 -135,135 h 146"
       id="path1824" />
    <text
       x="54250"
       y="21368.1"
       textLength="1004.22"
       font-size="314.961px"
       lengthAdjust="spacingAndGlyphs"
       text-anchor="middle"
       opacity="0"
       id="text1826">0.1uF</text>
    <path
       d="m 53861,21120 h 23 l 22,11 12,12 11,22 11,45 v 56 l -11,45 -11,23 -12,11 -22,11 h -23 l -22,-11 -11,-11 -12,-23 -11,-45 v -56 l 11,-45 12,-22 11,-12 22,-11"
       id="path1828" />
    <path
       d="m 54041,21334 12,11 -12,11 -11,-11 11,-11 v 22"
       id="path1830" />
    <path
       d="m 54278,21356 h -135"
       id="path1832" />
    <path
       d="m 54210,21356 v -236 l -22,34 -23,22 -22,12"
       id="path1834" />
    <path
       d="m 54480,21199 v 157"
       id="path1836" />
    <path
       d="m 54379,21199 v 124 l 11,22 23,11 h 33 l 23,-11 11,-11"
       id="path1838" />
    <path
       d="m 54671,21233 h -78"
       id="path1840" />
    <path
       d="m 54593,21356 v -236 h 112"
       id="path1842" />
    <text
       x="54250"
       y="20509.6"
       textLength="486.78299"
       font-size="314.961px"
       lengthAdjust="spacingAndGlyphs"
       text-anchor="middle"
       opacity="0"
       id="text1844">C4</text>
    <path
       d="m 54210,20475 -11,12 -34,11 h -22 l -34,-11 -23,-23 -11,-22 -11,-45 v -34 l 11,-45 11,-23 23,-22 34,-11 h 22 l 34,11 11,11"
       id="path1846" />
    <path
       d="m 54413,20340 v 158"
       id="path1848" />
    <path
       d="m 54356,20250 -56,169 h 146"
       id="path1850" />
    <text
       x="63600"
       y="26918.1"
       textLength="1004.22"
       font-size="314.961px"
       lengthAdjust="spacingAndGlyphs"
       text-anchor="middle"
       opacity="0"
       id="text1852">4.7uF</text>
    <path
       d="m 63268,26749 v 157"
       id="path1854" />
    <path
       d="m 63211,26659 -56,169 h 146"
       id="path1856" />
    <path
       d="m 63391,26884 12,11 -12,11 -11,-11 11,-11 v 22"
       id="path1858" />
    <path
       d="m 63481,26670 h 158 l -101,236"
       id="path1860" />
    <path
       d="m 63830,26749 v 157"
       id="path1862" />
    <path
       d="m 63729,26749 v 124 l 11,22 23,11 h 33 l 23,-11 11,-11"
       id="path1864" />
    <path
       d="m 64021,26783 h -78"
       id="path1866" />
    <path
       d="m 63943,26906 v -236 h 112"
       id="path1868" />
    <text
       x="63600"
       y="26326.6"
       textLength="486.78299"
       font-size="314.961px"
       lengthAdjust="spacingAndGlyphs"
       text-anchor="middle"
       opacity="0"
       id="text1870">C1</text>
    <path
       d="m 63560,26292 -11,12 -34,11 h -22 l -34,-11 -23,-23 -11,-22 -11,-45 v -34 l 11,-45 11,-23 23,-22 34,-11 h 22 l 34,11 11,11"
       id="path1872" />
    <path
       d="m 63785,26315 h -135"
       id="path1874" />
    <path
       d="m 63718,26315 v -236 l -23,33 -22,23 -23,11"
       id="path1876" />
    <g
       id="g1878" />
  </g>
</svg>
