<?xml version="1.0" standalone="no"?>
 <!DOCTYPE svg PUBLIC "-//W3C//DTD SVG 1.1//EN" 
 "http://www.w3.org/Graphics/SVG/1.1/DTD/svg11.dtd"> 
<svg
  xmlns:svg="http://www.w3.org/2000/svg"
  xmlns="http://www.w3.org/2000/svg"
  xmlns:xlink="http://www.w3.org/1999/xlink"
  version="1.1"
  width="29.700220cm" height="21.000720cm" viewBox="0 0 116930 82680">
<title>SVG Picture created as esp-32-board-F_Fab.svg date 2021/07/14 22:00:40 </title>
  <desc>Picture generated by PCBNEW </desc>
<g style="fill:#000000; fill-opacity:1;stroke:#000000; stroke-opacity:1;
stroke-linecap:round; stroke-linejoin:round;"
 transform="translate(0 0) scale(1 1)">
</g>
<g style="fill:#000000; fill-opacity:0.0; 
stroke:#000000; stroke-width:-0.000393701; stroke-opacity:1; 
stroke-linecap:round; stroke-linejoin:round;">
</g>
<g style="fill:#000000; fill-opacity:0.0; 
stroke:#000000; stroke-width:39.3701; stroke-opacity:1; 
stroke-linecap:round; stroke-linejoin:round;">
<path d="M55706 19407
L55706 29448
" />
<path d="M62793 19407
L55706 19407
" />
<path d="M62793 29448
L62793 27194
" />
<path d="M62793 29448
L55706 29448
" />
<path d="M62793 26801
L62793 19407
" />
<path d="M62596 26998
L62793 27194
" />
<path d="M62793 26801
L62596 26998
" />
<circle cx="70485.8" cy="11235" r="689.257" /> 
<path d="M71666 12416
L71666 10053
" />
<path d="M69304 12416
L71666 12416
" />
<path d="M69304 10053
L69304 12416
" />
<path d="M71666 10053
L69304 10053
" />
<circle cx="67205" cy="32135.8" r="689.257" /> 
<path d="M66023 33316
L68386 33316
" />
<path d="M66023 30954
L66023 33316
" />
<path d="M68386 30954
L66023 30954
" />
<path d="M68386 33316
L68386 30954
" />
<path d="M62457 33551
L62457 33944
" />
<path d="M63707 33551
L62457 33551
" />
<path d="M63707 32488
L63707 33551
" />
<path d="M59592 32488
L63707 32488
" />
<path d="M59592 33551
L59592 32488
" />
<path d="M60842 33551
L59592 33551
" />
<path d="M60842 33944
L60842 33551
" />
<path d="M64100 33944
L59592 33944
" />
<path d="M64100 32094
L64100 33944
" />
<path d="M59199 32094
L64100 32094
" />
<path d="M59199 33551
L59199 32094
" />
<path d="M59592 33944
L59199 33551
" />
<path d="M57657 33551
L57657 33944
" />
<path d="M58407 33551
L57657 33551
" />
<path d="M58407 32488
L58407 33551
" />
<path d="M55292 32488
L58407 32488
" />
<path d="M55292 33551
L55292 32488
" />
<path d="M56042 33551
L55292 33551
" />
<path d="M56042 33944
L56042 33551
" />
<path d="M58800 33944
L55292 33944
" />
<path d="M58800 32094
L58800 33944
" />
<path d="M54899 32094
L58800 32094
" />
<path d="M54899 33551
L54899 32094
" />
<path d="M55292 33944
L54899 33551
" />
<path d="M55771 12500
L55771 7165
" />
<path d="M52228 12814
L55476 12814
" />
<path d="M52228 7165
L52228 12814
" />
<path d="M55771 7165
L52228 7165
" />
<path d="M55771 8366
L52228 8366
" />
<path d="M55773 12498
L55476 12814
" />
<path d="M51000 8500
L51000 34500
" />
<path d="M72000 8500
L51000 8500
" />
<path d="M72000 33901
L72000 8500
" />
<path d="M71401 34500
L72000 33901
" />
<path d="M52000 34500
L53000 35500
" />
<path d="M51000 34500
L52000 34500
" />
<path d="M65901 35500
L66901 34500
" />
<path d="M53000 35500
L65901 35500
" />
<path d="M66901 34500
L71401 34500
" />
<path d="M51500 19500
L52250 19500
" />
<path d="M52250 19500
L52500 19750
" />
<path d="M52500 19750
L52500 33500
" />
<path d="M52500 33500
L51500 33500
" />
<path d="M51500 33500
L51500 19500
" />
<path d="M70500 16000
L71250 16000
" />
<path d="M71250 16000
L71500 16250
" />
<path d="M71500 16250
L71500 34000
" />
<path d="M71500 34000
L70500 34000
" />
<path d="M70500 34000
L70500 16000
" />
<path d="M62250 17250
L62250 18000
" />
<path d="M62250 18000
L62000 18250
" />
<path d="M62000 18250
L56250 18250
" />
<path d="M56250 18250
L56250 17250
" />
<path d="M56250 17250
L62250 17250
" />
<path d="M68793 29353
L68793 29846
" />
<path d="M68793 29846
L68006 29846
" />
<path d="M68006 29846
L68006 29353
" />
<path d="M68006 29353
L68793 29353
" />
<path d="M64729 25039
L63470 25039
" />
<path d="M64729 24409
L64729 25039
" />
<path d="M63470 24409
L64729 24409
" />
<path d="M63470 25039
L63470 24409
" />
<path d="M67437 9816
L67043 10210
" />
<path d="M67437 8241
L67437 9816
" />
<path d="M64562 8241
L67437 8241
" />
<path d="M64562 10210
L64562 8241
" />
<path d="M67043 10210
L64562 10210
" />
<path d="M68800 30153
L68800 30646
" />
<path d="M68800 30646
L68012 30646
" />
<path d="M68012 30646
L68012 30153
" />
<path d="M68012 30153
L68800 30153
" />
<path d="M62503 14000
L62996 14000
" />
<path d="M62996 14000
L62996 14787
" />
<path d="M62996 14787
L62503 14787
" />
<path d="M62503 14787
L62503 14000
" />
<path d="M61503 14000
L61996 14000
" />
<path d="M61996 14000
L61996 14787
" />
<path d="M61996 14787
L61503 14787
" />
<path d="M61503 14787
L61503 14000
" />
<path d="M62435 11455
L62435 12558
" />
<path d="M62435 12558
L62592 12715
" />
<path d="M62592 12715
L63064 12715
" />
<path d="M63064 12715
L63064 11455
" />
<path d="M63064 11455
L62435 11455
" />
<path d="M61435 11455
L61435 12558
" />
<path d="M61435 12558
L61592 12715
" />
<path d="M61592 12715
L62064 12715
" />
<path d="M62064 12715
L62064 11455
" />
<path d="M62064 11455
L61435 11455
" />
<circle cx="54100" cy="15750" r="984.252" /> 
<path d="M53056 16793
L53056 14706
" />
<path d="M54749 16793
L53056 16793
" />
<path d="M54749 14706
L53056 14706
" />
<path d="M55143 16399
L55143 15100
" />
<path d="M55143 16399
L54749 16793
" />
<path d="M55143 15100
L54749 14706
" />
<path d="M54900 16222
L54703 16222
" />
<path d="M54802 16320
L54802 16124
" />
<circle cx="54100" cy="18250" r="984.252" /> 
<path d="M53056 19293
L53056 17206
" />
<path d="M54749 19293
L53056 19293
" />
<path d="M54749 17206
L53056 17206
" />
<path d="M55143 18899
L55143 17600
" />
<path d="M55143 18899
L54749 19293
" />
<path d="M55143 17600
L54749 17206
" />
<path d="M54900 18722
L54703 18722
" />
<path d="M54802 18820
L54802 18624
" />
<path d="M68496 14197
L68496 14985
" />
<path d="M68003 14197
L68496 14197
" />
<path d="M68003 14985
L68003 14197
" />
<path d="M68496 14985
L68003 14985
" />
</g>
<g style="fill:#000000; fill-opacity:0.0; 
stroke:#000000; stroke-width:59.0551; stroke-opacity:1; 
stroke-linecap:round; stroke-linejoin:round;">
<path d="M66232 16868
L64539 16868
" />
<path d="M64539 16868
L64539 12852
" />
<path d="M64539 12852
L66625 12852
" />
<path d="M66625 12852
L66625 16474
" />
<path d="M66625 16474
L66232 16868
" />
</g>
<g style="fill:#000000; fill-opacity:0.0; 
stroke:#000000; stroke-width:39.3701; stroke-opacity:1; 
stroke-linecap:round; stroke-linejoin:round;">
<path d="M68003 9014
L68496 9014
" />
<path d="M68496 9014
L68496 9802
" />
<path d="M68496 9802
L68003 9802
" />
<path d="M68003 9802
L68003 9014
" />
<path d="M58978 16175
L58584 16568
" />
<path d="M58978 16175
L58978 13931
" />
<path d="M58584 16568
L57521 16568
" />
<path d="M58978 13931
L57521 13931
" />
<path d="M57521 16568
L57521 13931
" />
<path d="M68639 15822
L68305 15822
" />
<path d="M68108 16019
L68108 16688
" />
<path d="M68639 15822
L68639 16688
" />
<path d="M68639 16688
L68108 16688
" />
<path d="M68305 15822
L68108 16019
" />
<path d="M57511 9824
L57905 9431
" />
<path d="M57511 9824
L57511 12068
" />
<path d="M57905 9431
L58968 9431
" />
<path d="M57511 12068
L58968 12068
" />
<path d="M58968 9431
L58968 12068
" />
<path d="M62848 9250
L63045 9250
" />
<path d="M62848 9407
L62612 9250
" />
<path d="M62848 9092
L62848 9407
" />
<path d="M62612 9250
L62848 9092
" />
<path d="M62612 9250
L62612 9466
" />
<path d="M62612 9250
L62612 9033
" />
<path d="M62454 9250
L62612 9250
" />
<path d="M62198 9604
L62198 8895
" />
<path d="M63301 9604
L62198 9604
" />
<path d="M63301 8895
L63301 9604
" />
<path d="M62198 8895
L63301 8895
" />
<path d="M52390 16010
L52390 17821
" />
<path d="M52390 17821
L51209 17821
" />
<path d="M51209 16010
L52390 16010
" />
<path d="M51209 16010
L51209 17821
" />
<path d="M51800 17171
L51800 17526
" />
<path d="M51800 16718
L51800 16325
" />
<path d="M51485 17171
L52115 17171
" />
<path d="M52095 16718
L51485 16718
" />
<path d="M51800 17171
L52095 16718
" />
<path d="M51800 17171
L51485 16718
" />
<path d="M60503 14000
L60996 14000
" />
<path d="M60996 14000
L60996 14787
" />
<path d="M60996 14787
L60503 14787
" />
<path d="M60503 14787
L60503 14000
" />
<path d="M60435 11455
L60435 12558
" />
<path d="M60435 12558
L60592 12715
" />
<path d="M60592 12715
L61064 12715
" />
<path d="M61064 12715
L61064 11455
" />
<path d="M61064 11455
L60435 11455
" />
<path d="M57264 13246
L57264 12753
" />
<path d="M57264 12753
L58052 12753
" />
<path d="M58052 12753
L58052 13246
" />
<path d="M58052 13246
L57264 13246
" />
<path d="M59735 12753
L59735 13246
" />
<path d="M59735 13246
L58947 13246
" />
<path d="M58947 13246
L58947 12753
" />
<path d="M58947 12753
L59735 12753
" />
<path d="M60503 9264
L60996 9264
" />
<path d="M60996 9264
L60996 10052
" />
<path d="M60996 10052
L60503 10052
" />
<path d="M60503 10052
L60503 9264
" />
<path d="M65771 12171
L65515 11915
" />
<path d="M65515 11462
L65515 11915
" />
<path d="M65771 12171
L66736 12171
" />
<path d="M66736 11462
L66736 12171
" />
<path d="M65515 11462
L66736 11462
" />
<path d="M64246 12200
L63753 12200
" />
<path d="M63753 12200
L63753 11412
" />
<path d="M63753 11412
L64246 11412
" />
<path d="M64246 11412
L64246 12200
" />
<path d="M68503 11947
L68996 11947
" />
<path d="M68996 11947
L68996 12735
" />
<path d="M68996 12735
L68503 12735
" />
<path d="M68503 12735
L68503 11947
" />
<path d="M66393 30153
L66393 30646
" />
<path d="M66393 30646
L65606 30646
" />
<path d="M65606 30646
L65606 30153
" />
<path d="M65606 30153
L66393 30153
" />
<path d="M54003 19997
L54496 19997
" />
<path d="M54496 19997
L54496 20785
" />
<path d="M54496 20785
L54003 20785
" />
<path d="M54003 20785
L54003 19997
" />
<path d="M63353 25814
L63846 25814
" />
<path d="M63846 25814
L63846 26602
" />
<path d="M63846 26602
L63353 26602
" />
<path d="M63353 26602
L63353 25814
" />
<g >
</g>
<g >
</g>
<g >
</g>
<g >
</g>
<g >
</g>
<g >
</g>
<g >
</g>
<g >
</g>
<g >
</g>
<g >
</g>
<g >
</g>
<g >
</g>
<g >
</g>
<g >
</g>
<g >
</g>
<g >
</g>
<g >
</g>
<g >
</g>
<g >
</g>
<g >
</g>
<g >
</g>
<g >
</g>
<g >
</g>
<g >
</g>
<g >
</g>
<g >
</g>
<g >
</g>
<g >
</g>
<g >
</g>
<g >
</g>
<g >
</g>
<g >
</g>
<g >
</g>
<g >
</g>
<g >
</g>
<g >
</g>
<g >
</g>
<g >
</g>
<g >
</g>
</g>
<g style="fill:#000000; fill-opacity:0.0; 
stroke:#000000; stroke-width:39.3701; stroke-opacity:1; 
stroke-linecap:round; stroke-linejoin:round;">
</g>
<g style="fill:#000000; fill-opacity:0.0; 
stroke:#000000; stroke-width:19.685; stroke-opacity:1; 
stroke-linecap:round; stroke-linejoin:round;">
<text x="59250" y="29868.1"
textLength="3507.59" font-size="314.961" lengthAdjust="spacingAndGlyphs"
text-anchor="middle" opacity="0">ESP32-WROOM-32</text>
<path d="M57590 29733
L57669 29733
" />
<path d="M57703 29856
L57590 29856
L57590 29620
L57703 29620
" />
<path d="M57793 29845
L57827 29856
L57883 29856
L57905 29845
L57917 29834
L57928 29811
L57928 29789
L57917 29766
L57905 29755
L57883 29744
L57838 29733
L57815 29721
L57804 29710
L57793 29688
L57793 29665
L57804 29643
L57815 29631
L57838 29620
L57894 29620
L57928 29631
" />
<path d="M58029 29856
L58029 29620
L58119 29620
L58142 29631
L58153 29643
L58164 29665
L58164 29699
L58153 29721
L58142 29733
L58119 29744
L58029 29744
" />
<path d="M58243 29620
L58389 29620
L58310 29710
L58344 29710
L58366 29721
L58378 29733
L58389 29755
L58389 29811
L58378 29834
L58366 29845
L58344 29856
L58276 29856
L58254 29845
L58243 29834
" />
<path d="M58479 29643
L58490 29631
L58513 29620
L58569 29620
L58591 29631
L58603 29643
L58614 29665
L58614 29688
L58603 29721
L58468 29856
L58614 29856
" />
<path d="M58715 29766
L58895 29766
" />
<path d="M58985 29620
L59041 29856
L59086 29688
L59131 29856
L59188 29620
" />
<path d="M59413 29856
L59334 29744
" />
<path d="M59278 29856
L59278 29620
L59368 29620
L59390 29631
L59401 29643
L59413 29665
L59413 29699
L59401 29721
L59390 29733
L59368 29744
L59278 29744
" />
<path d="M59559 29620
L59604 29620
L59626 29631
L59649 29654
L59660 29699
L59660 29778
L59649 29823
L59626 29845
L59604 29856
L59559 29856
L59536 29845
L59514 29823
L59503 29778
L59503 29699
L59514 29654
L59536 29631
L59559 29620
" />
<path d="M59806 29620
L59851 29620
L59874 29631
L59896 29654
L59908 29699
L59908 29778
L59896 29823
L59874 29845
L59851 29856
L59806 29856
L59784 29845
L59761 29823
L59750 29778
L59750 29699
L59761 29654
L59784 29631
L59806 29620
" />
<path d="M60009 29856
L60009 29620
L60088 29789
L60166 29620
L60166 29856
" />
<path d="M60279 29766
L60459 29766
" />
<path d="M60549 29620
L60695 29620
L60616 29710
L60650 29710
L60672 29721
L60684 29733
L60695 29755
L60695 29811
L60684 29834
L60672 29845
L60650 29856
L60582 29856
L60560 29845
L60549 29834
" />
<path d="M60785 29643
L60796 29631
L60819 29620
L60875 29620
L60897 29631
L60909 29643
L60920 29665
L60920 29688
L60909 29721
L60774 29856
L60920 29856
" />
<text x="59250" y="23368.1"
textLength="498.031" font-size="314.961" lengthAdjust="spacingAndGlyphs"
text-anchor="middle" opacity="0">U1</text>
<path d="M59070 23120
L59070 23311
L59081 23334
L59092 23345
L59115 23356
L59160 23356
L59182 23345
L59193 23334
L59205 23311
L59205 23120
" />
<path d="M59441 23356
L59306 23356
" />
<path d="M59373 23356
L59373 23120
L59351 23154
L59328 23176
L59306 23188
" />
<text x="70500" y="12868.1"
textLength="1555.4" font-size="314.961" lengthAdjust="spacingAndGlyphs"
text-anchor="middle" opacity="0">SW_Push</text>
<path d="M69780 12845
L69813 12856
L69870 12856
L69892 12845
L69903 12834
L69915 12811
L69915 12789
L69903 12766
L69892 12755
L69870 12744
L69825 12733
L69802 12721
L69791 12710
L69780 12688
L69780 12665
L69791 12643
L69802 12631
L69825 12620
L69881 12620
L69915 12631
" />
<path d="M69993 12620
L70050 12856
L70095 12688
L70140 12856
L70196 12620
" />
<path d="M70230 12879
L70410 12879
" />
<path d="M70466 12856
L70466 12620
L70556 12620
L70578 12631
L70589 12643
L70601 12665
L70601 12699
L70589 12721
L70578 12733
L70556 12744
L70466 12744
" />
<path d="M70803 12699
L70803 12856
" />
<path d="M70702 12699
L70702 12823
L70713 12845
L70736 12856
L70769 12856
L70792 12845
L70803 12834
" />
<path d="M70904 12845
L70927 12856
L70972 12856
L70994 12845
L71006 12823
L71006 12811
L70994 12789
L70972 12778
L70938 12778
L70916 12766
L70904 12744
L70904 12733
L70916 12710
L70938 12699
L70972 12699
L70994 12710
" />
<path d="M71107 12856
L71107 12620
" />
<path d="M71208 12856
L71208 12733
L71197 12710
L71174 12699
L71141 12699
L71118 12710
L71107 12721
" />
<text x="70485.8" y="11418.1"
textLength="745.5" font-size="314.961" lengthAdjust="spacingAndGlyphs"
text-anchor="middle" opacity="0">SW2</text>
<path d="M70170 11395
L70204 11406
L70260 11406
L70283 11395
L70294 11384
L70305 11361
L70305 11339
L70294 11316
L70283 11305
L70260 11294
L70215 11283
L70193 11271
L70182 11260
L70170 11238
L70170 11215
L70182 11193
L70193 11181
L70215 11170
L70272 11170
L70305 11181
" />
<path d="M70384 11170
L70440 11406
L70485 11238
L70530 11406
L70587 11170
" />
<path d="M70665 11193
L70677 11181
L70699 11170
L70755 11170
L70778 11181
L70789 11193
L70800 11215
L70800 11238
L70789 11271
L70654 11406
L70800 11406
" />
<text x="67250" y="33618.1"
textLength="1555.4" font-size="314.961" lengthAdjust="spacingAndGlyphs"
text-anchor="middle" opacity="0">SW_Push</text>
<path d="M66530 33595
L66563 33606
L66620 33606
L66642 33595
L66653 33584
L66665 33561
L66665 33539
L66653 33516
L66642 33505
L66620 33494
L66575 33483
L66552 33471
L66541 33460
L66530 33438
L66530 33415
L66541 33393
L66552 33381
L66575 33370
L66631 33370
L66665 33381
" />
<path d="M66743 33370
L66800 33606
L66845 33438
L66890 33606
L66946 33370
" />
<path d="M66980 33629
L67160 33629
" />
<path d="M67216 33606
L67216 33370
L67306 33370
L67328 33381
L67339 33393
L67351 33415
L67351 33449
L67339 33471
L67328 33483
L67306 33494
L67216 33494
" />
<path d="M67553 33449
L67553 33606
" />
<path d="M67452 33449
L67452 33573
L67463 33595
L67486 33606
L67519 33606
L67542 33595
L67553 33584
" />
<path d="M67654 33595
L67677 33606
L67722 33606
L67744 33595
L67756 33573
L67756 33561
L67744 33539
L67722 33528
L67688 33528
L67666 33516
L67654 33494
L67654 33483
L67666 33460
L67688 33449
L67722 33449
L67744 33460
" />
<path d="M67857 33606
L67857 33370
" />
<path d="M67958 33606
L67958 33483
L67947 33460
L67924 33449
L67891 33449
L67868 33460
L67857 33471
" />
<g transform="rotate(-90 67140 32135.8)">
<text x="67140" y="32253.9"
textLength="745.5" font-size="314.961" lengthAdjust="spacingAndGlyphs"
text-anchor="middle" opacity="0">SW1</text>
</g>
<path d="M67235 32450
L67246 32417
L67246 32360
L67235 32338
L67224 32327
L67201 32315
L67179 32315
L67156 32327
L67145 32338
L67134 32360
L67123 32405
L67111 32428
L67100 32439
L67078 32450
L67055 32450
L67033 32439
L67021 32428
L67010 32405
L67010 32349
L67021 32315
" />
<path d="M67010 32237
L67246 32180
L67078 32135
L67246 32090
L67010 32034
" />
<path d="M67246 31820
L67246 31955
" />
<path d="M67246 31888
L67010 31888
L67044 31910
L67066 31933
L67078 31955
" />
<text x="61750" y="34368.1"
textLength="3321.43" font-size="314.961" lengthAdjust="spacingAndGlyphs"
text-anchor="middle" opacity="0">ESP-PROG-Debug</text>
<path d="M60158 34233
L60237 34233
" />
<path d="M60270 34356
L60158 34356
L60158 34120
L60270 34120
" />
<path d="M60360 34345
L60394 34356
L60450 34356
L60473 34345
L60484 34334
L60495 34311
L60495 34289
L60484 34266
L60473 34255
L60450 34244
L60405 34233
L60383 34221
L60372 34210
L60360 34188
L60360 34165
L60372 34143
L60383 34131
L60405 34120
L60462 34120
L60495 34131
" />
<path d="M60597 34356
L60597 34120
L60687 34120
L60709 34131
L60720 34143
L60732 34165
L60732 34199
L60720 34221
L60709 34233
L60687 34244
L60597 34244
" />
<path d="M60833 34266
L61013 34266
" />
<path d="M61125 34356
L61125 34120
L61215 34120
L61238 34131
L61249 34143
L61260 34165
L61260 34199
L61249 34221
L61238 34233
L61215 34244
L61125 34244
" />
<path d="M61496 34356
L61418 34244
" />
<path d="M61361 34356
L61361 34120
L61451 34120
L61474 34131
L61485 34143
L61496 34165
L61496 34199
L61485 34221
L61474 34233
L61451 34244
L61361 34244
" />
<path d="M61643 34120
L61688 34120
L61710 34131
L61733 34154
L61744 34199
L61744 34278
L61733 34323
L61710 34345
L61688 34356
L61643 34356
L61620 34345
L61598 34323
L61586 34278
L61586 34199
L61598 34154
L61620 34131
L61643 34120
" />
<path d="M61969 34131
L61946 34120
L61913 34120
L61879 34131
L61856 34154
L61845 34176
L61834 34221
L61834 34255
L61845 34300
L61856 34323
L61879 34345
L61913 34356
L61935 34356
L61969 34345
L61980 34334
L61980 34255
L61935 34255
" />
<path d="M62081 34266
L62261 34266
" />
<path d="M62374 34356
L62374 34120
L62430 34120
L62464 34131
L62486 34154
L62498 34176
L62509 34221
L62509 34255
L62498 34300
L62486 34323
L62464 34345
L62430 34356
L62374 34356
" />
<path d="M62700 34345
L62678 34356
L62633 34356
L62610 34345
L62599 34323
L62599 34233
L62610 34210
L62633 34199
L62678 34199
L62700 34210
L62711 34233
L62711 34255
L62599 34278
" />
<path d="M62812 34356
L62812 34120
" />
<path d="M62812 34210
L62835 34199
L62880 34199
L62902 34210
L62914 34221
L62925 34244
L62925 34311
L62914 34334
L62902 34345
L62880 34356
L62835 34356
L62812 34345
" />
<path d="M63127 34199
L63127 34356
" />
<path d="M63026 34199
L63026 34323
L63037 34345
L63060 34356
L63094 34356
L63116 34345
L63127 34334
" />
<path d="M63341 34199
L63341 34390
L63330 34413
L63319 34424
L63296 34435
L63262 34435
L63240 34424
" />
<path d="M63341 34345
L63319 34356
L63274 34356
L63251 34345
L63240 34334
L63229 34311
L63229 34244
L63240 34221
L63251 34210
L63274 34199
L63319 34199
L63341 34210
" />
<text x="61650" y="33137.8"
textLength="430.54" font-size="314.961" lengthAdjust="spacingAndGlyphs"
text-anchor="middle" opacity="0">J7</text>
<path d="M61571 32890
L61571 33059
L61560 33092
L61537 33115
L61503 33126
L61481 33126
" />
<path d="M61661 32890
L61818 32890
L61717 33126
" />
<text x="56900" y="34368.1"
textLength="3726.38" font-size="314.961" lengthAdjust="spacingAndGlyphs"
text-anchor="middle" opacity="0">ESP-PROG-Program</text>
<path d="M55105 34233
L55184 34233
" />
<path d="M55218 34356
L55105 34356
L55105 34120
L55218 34120
" />
<path d="M55308 34345
L55342 34356
L55398 34356
L55420 34345
L55432 34334
L55443 34311
L55443 34289
L55432 34266
L55420 34255
L55398 34244
L55353 34233
L55330 34221
L55319 34210
L55308 34188
L55308 34165
L55319 34143
L55330 34131
L55353 34120
L55409 34120
L55443 34131
" />
<path d="M55544 34356
L55544 34120
L55634 34120
L55657 34131
L55668 34143
L55679 34165
L55679 34199
L55668 34221
L55657 34233
L55634 34244
L55544 34244
" />
<path d="M55780 34266
L55960 34266
" />
<path d="M56073 34356
L56073 34120
L56163 34120
L56185 34131
L56196 34143
L56208 34165
L56208 34199
L56196 34221
L56185 34233
L56163 34244
L56073 34244
" />
<path d="M56444 34356
L56365 34244
" />
<path d="M56309 34356
L56309 34120
L56399 34120
L56421 34131
L56433 34143
L56444 34165
L56444 34199
L56433 34221
L56421 34233
L56399 34244
L56309 34244
" />
<path d="M56590 34120
L56635 34120
L56658 34131
L56680 34154
L56691 34199
L56691 34278
L56680 34323
L56658 34345
L56635 34356
L56590 34356
L56568 34345
L56545 34323
L56534 34278
L56534 34199
L56545 34154
L56568 34131
L56590 34120
" />
<path d="M56916 34131
L56894 34120
L56860 34120
L56826 34131
L56804 34154
L56793 34176
L56781 34221
L56781 34255
L56793 34300
L56804 34323
L56826 34345
L56860 34356
L56883 34356
L56916 34345
L56928 34334
L56928 34255
L56883 34255
" />
<path d="M57029 34266
L57209 34266
" />
<path d="M57321 34356
L57321 34120
L57411 34120
L57434 34131
L57445 34143
L57456 34165
L57456 34199
L57445 34221
L57434 34233
L57411 34244
L57321 34244
" />
<path d="M57558 34356
L57558 34199
" />
<path d="M57558 34244
L57569 34221
L57580 34210
L57603 34199
L57625 34199
" />
<path d="M57738 34356
L57715 34345
L57704 34334
L57693 34311
L57693 34244
L57704 34221
L57715 34210
L57738 34199
L57771 34199
L57794 34210
L57805 34221
L57816 34244
L57816 34311
L57805 34334
L57794 34345
L57771 34356
L57738 34356
" />
<path d="M58019 34199
L58019 34390
L58007 34413
L57996 34424
L57974 34435
L57940 34435
L57917 34424
" />
<path d="M58019 34345
L57996 34356
L57951 34356
L57929 34345
L57917 34334
L57906 34311
L57906 34244
L57917 34221
L57929 34210
L57951 34199
L57996 34199
L58019 34210
" />
<path d="M58131 34356
L58131 34199
" />
<path d="M58131 34244
L58142 34221
L58154 34210
L58176 34199
L58199 34199
" />
<path d="M58379 34356
L58379 34233
L58367 34210
L58345 34199
L58300 34199
L58277 34210
" />
<path d="M58379 34345
L58356 34356
L58300 34356
L58277 34345
L58266 34323
L58266 34300
L58277 34278
L58300 34266
L58356 34266
L58379 34255
" />
<path d="M58491 34356
L58491 34199
" />
<path d="M58491 34221
L58502 34210
L58525 34199
L58559 34199
L58581 34210
L58592 34233
L58592 34356
" />
<path d="M58592 34233
L58604 34210
L58626 34199
L58660 34199
L58682 34210
L58694 34233
L58694 34356
" />
<text x="56750" y="33137.8"
textLength="430.54" font-size="314.961" lengthAdjust="spacingAndGlyphs"
text-anchor="middle" opacity="0">J6</text>
<path d="M56671 32890
L56671 33059
L56660 33092
L56637 33115
L56603 33126
L56581 33126
" />
<path d="M56884 32890
L56839 32890
L56817 32901
L56806 32912
L56783 32946
L56772 32991
L56772 33081
L56783 33104
L56794 33115
L56817 33126
L56862 33126
L56884 33115
L56896 33104
L56907 33081
L56907 33025
L56896 33002
L56884 32991
L56862 32980
L56817 32980
L56794 32991
L56783 33002
L56772 33025
" />
<text x="54000" y="13368.1"
textLength="4390.04" font-size="314.961" lengthAdjust="spacingAndGlyphs"
text-anchor="middle" opacity="0">Barrel_Jack_MountingPin</text>
<path d="M51952 13233
L51986 13244
L51997 13255
L52008 13278
L52008 13311
L51997 13334
L51986 13345
L51964 13356
L51874 13356
L51874 13120
L51952 13120
L51975 13131
L51986 13143
L51997 13165
L51997 13188
L51986 13210
L51975 13221
L51952 13233
L51874 13233
" />
<path d="M52211 13356
L52211 13233
L52200 13210
L52177 13199
L52132 13199
L52110 13210
" />
<path d="M52211 13345
L52188 13356
L52132 13356
L52110 13345
L52098 13323
L52098 13300
L52110 13278
L52132 13266
L52188 13266
L52211 13255
" />
<path d="M52323 13356
L52323 13199
" />
<path d="M52323 13244
L52335 13221
L52346 13210
L52368 13199
L52391 13199
" />
<path d="M52470 13356
L52470 13199
" />
<path d="M52470 13244
L52481 13221
L52492 13210
L52515 13199
L52537 13199
" />
<path d="M52706 13345
L52683 13356
L52638 13356
L52616 13345
L52605 13323
L52605 13233
L52616 13210
L52638 13199
L52683 13199
L52706 13210
L52717 13233
L52717 13255
L52605 13278
" />
<path d="M52852 13356
L52830 13345
L52818 13323
L52818 13120
" />
<path d="M52886 13379
L53066 13379
" />
<path d="M53190 13120
L53190 13289
L53178 13323
L53156 13345
L53122 13356
L53100 13356
" />
<path d="M53403 13356
L53403 13233
L53392 13210
L53370 13199
L53325 13199
L53302 13210
" />
<path d="M53403 13345
L53381 13356
L53325 13356
L53302 13345
L53291 13323
L53291 13300
L53302 13278
L53325 13266
L53381 13266
L53403 13255
" />
<path d="M53617 13345
L53595 13356
L53550 13356
L53527 13345
L53516 13334
L53505 13311
L53505 13244
L53516 13221
L53527 13210
L53550 13199
L53595 13199
L53617 13210
" />
<path d="M53718 13356
L53718 13120
" />
<path d="M53741 13266
L53808 13356
" />
<path d="M53808 13199
L53718 13289
" />
<path d="M53853 13379
L54033 13379
" />
<path d="M54089 13356
L54089 13120
L54168 13289
L54247 13120
L54247 13356
" />
<path d="M54393 13356
L54371 13345
L54359 13334
L54348 13311
L54348 13244
L54359 13221
L54371 13210
L54393 13199
L54427 13199
L54449 13210
L54461 13221
L54472 13244
L54472 13311
L54461 13334
L54449 13345
L54427 13356
L54393 13356
" />
<path d="M54674 13199
L54674 13356
" />
<path d="M54573 13199
L54573 13323
L54584 13345
L54607 13356
L54641 13356
L54663 13345
L54674 13334
" />
<path d="M54787 13199
L54787 13356
" />
<path d="M54787 13221
L54798 13210
L54821 13199
L54854 13199
L54877 13210
L54888 13233
L54888 13356
" />
<path d="M54967 13199
L55057 13199
" />
<path d="M55001 13120
L55001 13323
L55012 13345
L55034 13356
L55057 13356
" />
<path d="M55136 13356
L55136 13199
" />
<path d="M55136 13120
L55124 13131
L55136 13143
L55147 13131
L55136 13120
L55136 13143
" />
<path d="M55248 13199
L55248 13356
" />
<path d="M55248 13221
L55259 13210
L55282 13199
L55316 13199
L55338 13210
L55349 13233
L55349 13356
" />
<path d="M55563 13199
L55563 13390
L55552 13413
L55541 13424
L55518 13435
L55484 13435
L55462 13424
" />
<path d="M55563 13345
L55541 13356
L55496 13356
L55473 13345
L55462 13334
L55451 13311
L55451 13244
L55462 13221
L55473 13210
L55496 13199
L55541 13199
L55563 13210
" />
<path d="M55676 13356
L55676 13120
L55766 13120
L55788 13131
L55799 13143
L55811 13165
L55811 13199
L55799 13221
L55788 13233
L55766 13244
L55676 13244
" />
<path d="M55912 13356
L55912 13199
" />
<path d="M55912 13120
L55901 13131
L55912 13143
L55923 13131
L55912 13120
L55912 13143
" />
<path d="M56024 13199
L56024 13356
" />
<path d="M56024 13221
L56035 13210
L56058 13199
L56092 13199
L56114 13210
L56125 13233
L56125 13356
" />
<text x="54000" y="10618.1"
textLength="430.54" font-size="314.961" lengthAdjust="spacingAndGlyphs"
text-anchor="middle" opacity="0">J5</text>
<path d="M53921 10370
L53921 10539
L53910 10573
L53887 10595
L53853 10606
L53831 10606
" />
<path d="M54146 10370
L54033 10370
L54022 10483
L54033 10471
L54056 10460
L54112 10460
L54134 10471
L54146 10483
L54157 10505
L54157 10561
L54146 10584
L54134 10595
L54112 10606
L54056 10606
L54033 10595
L54022 10584
" />
<text x="52000" y="33868.1"
textLength="3613.89" font-size="314.961" lengthAdjust="spacingAndGlyphs"
text-anchor="middle" opacity="0">Conn_01x14_Female</text>
<path d="M50397 33834
L50385 33845
L50352 33856
L50329 33856
L50295 33845
L50273 33823
L50262 33800
L50250 33755
L50250 33721
L50262 33676
L50273 33654
L50295 33631
L50329 33620
L50352 33620
L50385 33631
L50397 33643
" />
<path d="M50532 33856
L50509 33845
L50498 33834
L50487 33811
L50487 33744
L50498 33721
L50509 33710
L50532 33699
L50565 33699
L50588 33710
L50599 33721
L50610 33744
L50610 33811
L50599 33834
L50588 33845
L50565 33856
L50532 33856
" />
<path d="M50712 33699
L50712 33856
" />
<path d="M50712 33721
L50723 33710
L50745 33699
L50779 33699
L50802 33710
L50813 33733
L50813 33856
" />
<path d="M50925 33699
L50925 33856
" />
<path d="M50925 33721
L50937 33710
L50959 33699
L50993 33699
L51015 33710
L51026 33733
L51026 33856
" />
<path d="M51083 33879
L51263 33879
" />
<path d="M51364 33620
L51386 33620
L51409 33631
L51420 33643
L51431 33665
L51443 33710
L51443 33766
L51431 33811
L51420 33834
L51409 33845
L51386 33856
L51364 33856
L51341 33845
L51330 33834
L51319 33811
L51308 33766
L51308 33710
L51319 33665
L51330 33643
L51341 33631
L51364 33620
" />
<path d="M51668 33856
L51533 33856
" />
<path d="M51600 33856
L51600 33620
L51578 33654
L51555 33676
L51533 33688
" />
<path d="M51746 33856
L51870 33699
" />
<path d="M51746 33699
L51870 33856
" />
<path d="M52084 33856
L51949 33856
" />
<path d="M52016 33856
L52016 33620
L51994 33654
L51971 33676
L51949 33688
" />
<path d="M52286 33699
L52286 33856
" />
<path d="M52230 33609
L52174 33778
L52320 33778
" />
<path d="M52354 33879
L52534 33879
" />
<path d="M52669 33733
L52590 33733
" />
<path d="M52590 33856
L52590 33620
L52703 33620
" />
<path d="M52883 33845
L52860 33856
L52815 33856
L52793 33845
L52781 33823
L52781 33733
L52793 33710
L52815 33699
L52860 33699
L52883 33710
L52894 33733
L52894 33755
L52781 33778
" />
<path d="M52995 33856
L52995 33699
" />
<path d="M52995 33721
L53006 33710
L53029 33699
L53062 33699
L53085 33710
L53096 33733
L53096 33856
" />
<path d="M53096 33733
L53107 33710
L53130 33699
L53164 33699
L53186 33710
L53197 33733
L53197 33856
" />
<path d="M53411 33856
L53411 33733
L53400 33710
L53377 33699
L53332 33699
L53310 33710
" />
<path d="M53411 33845
L53389 33856
L53332 33856
L53310 33845
L53299 33823
L53299 33800
L53310 33778
L53332 33766
L53389 33766
L53411 33755
" />
<path d="M53557 33856
L53535 33845
L53524 33823
L53524 33620
" />
<path d="M53737 33845
L53715 33856
L53670 33856
L53647 33845
L53636 33823
L53636 33733
L53647 33710
L53670 33699
L53715 33699
L53737 33710
L53749 33733
L53749 33755
L53636 33778
" />
<text x="52000" y="26618.1"
textLength="430.54" font-size="314.961" lengthAdjust="spacingAndGlyphs"
text-anchor="middle" opacity="0">J1</text>
<path d="M51921 26370
L51921 26539
L51910 26573
L51887 26595
L51853 26606
L51831 26606
" />
<path d="M52157 26606
L52022 26606
" />
<path d="M52089 26606
L52089 26370
L52067 26404
L52044 26426
L52022 26438
" />
<text x="71000" y="34818.1"
textLength="3613.89" font-size="314.961" lengthAdjust="spacingAndGlyphs"
text-anchor="middle" opacity="0">Conn_01x18_Female</text>
<path d="M69397 34784
L69385 34795
L69352 34806
L69329 34806
L69295 34795
L69273 34773
L69262 34750
L69250 34705
L69250 34671
L69262 34626
L69273 34604
L69295 34581
L69329 34570
L69352 34570
L69385 34581
L69397 34593
" />
<path d="M69532 34806
L69509 34795
L69498 34784
L69487 34761
L69487 34694
L69498 34671
L69509 34660
L69532 34649
L69565 34649
L69588 34660
L69599 34671
L69610 34694
L69610 34761
L69599 34784
L69588 34795
L69565 34806
L69532 34806
" />
<path d="M69712 34649
L69712 34806
" />
<path d="M69712 34671
L69723 34660
L69745 34649
L69779 34649
L69802 34660
L69813 34683
L69813 34806
" />
<path d="M69925 34649
L69925 34806
" />
<path d="M69925 34671
L69937 34660
L69959 34649
L69993 34649
L70015 34660
L70026 34683
L70026 34806
" />
<path d="M70083 34829
L70263 34829
" />
<path d="M70364 34570
L70386 34570
L70409 34581
L70420 34593
L70431 34615
L70443 34660
L70443 34716
L70431 34761
L70420 34784
L70409 34795
L70386 34806
L70364 34806
L70341 34795
L70330 34784
L70319 34761
L70308 34716
L70308 34660
L70319 34615
L70330 34593
L70341 34581
L70364 34570
" />
<path d="M70668 34806
L70533 34806
" />
<path d="M70600 34806
L70600 34570
L70578 34604
L70555 34626
L70533 34638
" />
<path d="M70746 34806
L70870 34649
" />
<path d="M70746 34649
L70870 34806
" />
<path d="M71084 34806
L70949 34806
" />
<path d="M71016 34806
L71016 34570
L70994 34604
L70971 34626
L70949 34638
" />
<path d="M71219 34671
L71196 34660
L71185 34649
L71174 34626
L71174 34615
L71185 34593
L71196 34581
L71219 34570
L71264 34570
L71286 34581
L71298 34593
L71309 34615
L71309 34626
L71298 34649
L71286 34660
L71264 34671
L71219 34671
L71196 34683
L71185 34694
L71174 34716
L71174 34761
L71185 34784
L71196 34795
L71219 34806
L71264 34806
L71286 34795
L71298 34784
L71309 34761
L71309 34716
L71298 34694
L71286 34683
L71264 34671
" />
<path d="M71354 34829
L71534 34829
" />
<path d="M71669 34683
L71590 34683
" />
<path d="M71590 34806
L71590 34570
L71703 34570
" />
<path d="M71883 34795
L71860 34806
L71815 34806
L71793 34795
L71781 34773
L71781 34683
L71793 34660
L71815 34649
L71860 34649
L71883 34660
L71894 34683
L71894 34705
L71781 34728
" />
<path d="M71995 34806
L71995 34649
" />
<path d="M71995 34671
L72006 34660
L72029 34649
L72062 34649
L72085 34660
L72096 34683
L72096 34806
" />
<path d="M72096 34683
L72107 34660
L72130 34649
L72164 34649
L72186 34660
L72197 34683
L72197 34806
" />
<path d="M72411 34806
L72411 34683
L72400 34660
L72377 34649
L72332 34649
L72310 34660
" />
<path d="M72411 34795
L72389 34806
L72332 34806
L72310 34795
L72299 34773
L72299 34750
L72310 34728
L72332 34716
L72389 34716
L72411 34705
" />
<path d="M72557 34806
L72535 34795
L72524 34773
L72524 34570
" />
<path d="M72737 34795
L72715 34806
L72670 34806
L72647 34795
L72636 34773
L72636 34683
L72647 34660
L72670 34649
L72715 34649
L72737 34660
L72749 34683
L72749 34705
L72636 34728
" />
<text x="71000" y="25118.1"
textLength="430.54" font-size="314.961" lengthAdjust="spacingAndGlyphs"
text-anchor="middle" opacity="0">J2</text>
<path d="M70921 24870
L70921 25039
L70910 25073
L70887 25095
L70853 25106
L70831 25106
" />
<path d="M71022 24893
L71033 24881
L71056 24870
L71112 24870
L71134 24881
L71146 24893
L71157 24915
L71157 24938
L71146 24971
L71011 25106
L71157 25106
" />
<text x="59250" y="18618.1"
textLength="2174.07" font-size="314.961" lengthAdjust="spacingAndGlyphs"
text-anchor="middle" opacity="0">Conn_01x06</text>
<path d="M58366 18584
L58355 18595
L58321 18606
L58299 18606
L58265 18595
L58243 18573
L58232 18550
L58220 18505
L58220 18471
L58232 18426
L58243 18404
L58265 18381
L58299 18370
L58321 18370
L58355 18381
L58366 18393
" />
<path d="M58501 18606
L58479 18595
L58468 18584
L58456 18561
L58456 18494
L58468 18471
L58479 18460
L58501 18449
L58535 18449
L58558 18460
L58569 18471
L58580 18494
L58580 18561
L58569 18584
L58558 18595
L58535 18606
L58501 18606
" />
<path d="M58681 18449
L58681 18606
" />
<path d="M58681 18471
L58693 18460
L58715 18449
L58749 18449
L58771 18460
L58783 18483
L58783 18606
" />
<path d="M58895 18449
L58895 18606
" />
<path d="M58895 18471
L58906 18460
L58929 18449
L58963 18449
L58985 18460
L58996 18483
L58996 18606
" />
<path d="M59053 18629
L59233 18629
" />
<path d="M59334 18370
L59356 18370
L59379 18381
L59390 18393
L59401 18415
L59413 18460
L59413 18516
L59401 18561
L59390 18584
L59379 18595
L59356 18606
L59334 18606
L59311 18595
L59300 18584
L59289 18561
L59278 18516
L59278 18460
L59289 18415
L59300 18393
L59311 18381
L59334 18370
" />
<path d="M59638 18606
L59503 18606
" />
<path d="M59570 18606
L59570 18370
L59548 18404
L59525 18426
L59503 18438
" />
<path d="M59716 18606
L59840 18449
" />
<path d="M59716 18449
L59840 18606
" />
<path d="M59975 18370
L59998 18370
L60020 18381
L60031 18393
L60043 18415
L60054 18460
L60054 18516
L60043 18561
L60031 18584
L60020 18595
L59998 18606
L59975 18606
L59953 18595
L59941 18584
L59930 18561
L59919 18516
L59919 18460
L59930 18415
L59941 18393
L59953 18381
L59975 18370
" />
<path d="M60256 18370
L60211 18370
L60189 18381
L60178 18393
L60155 18426
L60144 18471
L60144 18561
L60155 18584
L60166 18595
L60189 18606
L60234 18606
L60256 18595
L60267 18584
L60279 18561
L60279 18505
L60267 18483
L60256 18471
L60234 18460
L60189 18460
L60166 18471
L60155 18483
L60144 18505
" />
<text x="59250" y="17868.1"
textLength="430.54" font-size="314.961" lengthAdjust="spacingAndGlyphs"
text-anchor="middle" opacity="0">J3</text>
<path d="M59171 17620
L59171 17789
L59160 17823
L59137 17845
L59103 17856
L59081 17856
" />
<path d="M59261 17620
L59407 17620
L59328 17710
L59362 17710
L59384 17721
L59396 17733
L59407 17755
L59407 17811
L59396 17834
L59384 17845
L59362 17856
L59294 17856
L59272 17845
L59261 17834
" />
<text x="69650" y="29718.1"
textLength="1622.89" font-size="314.961" lengthAdjust="spacingAndGlyphs"
text-anchor="middle" opacity="0">10 kOhm</text>
<path d="M69031 29706
L68896 29706
" />
<path d="M68963 29706
L68963 29470
L68941 29504
L68918 29526
L68896 29538
" />
<path d="M69177 29470
L69200 29470
L69222 29481
L69233 29493
L69245 29515
L69256 29560
L69256 29616
L69245 29661
L69233 29684
L69222 29695
L69200 29706
L69177 29706
L69155 29695
L69143 29684
L69132 29661
L69121 29616
L69121 29560
L69132 29515
L69143 29493
L69155 29481
L69177 29470
" />
<path d="M69537 29706
L69537 29470
" />
<path d="M69560 29616
L69627 29706
" />
<path d="M69627 29549
L69537 29639
" />
<path d="M69773 29470
L69818 29470
L69841 29481
L69863 29504
L69874 29549
L69874 29628
L69863 29673
L69841 29695
L69818 29706
L69773 29706
L69751 29695
L69728 29673
L69717 29628
L69717 29549
L69728 29504
L69751 29481
L69773 29470
" />
<path d="M69976 29706
L69976 29470
" />
<path d="M70077 29706
L70077 29583
L70066 29560
L70043 29549
L70009 29549
L69987 29560
L69976 29571
" />
<path d="M70189 29706
L70189 29549
" />
<path d="M70189 29571
L70201 29560
L70223 29549
L70257 29549
L70279 29560
L70291 29583
L70291 29706
" />
<path d="M70291 29583
L70302 29560
L70324 29549
L70358 29549
L70381 29560
L70392 29583
L70392 29706
" />
<text x="68400" y="29718.1"
textLength="486.783" font-size="314.961" lengthAdjust="spacingAndGlyphs"
text-anchor="middle" opacity="0">R6</text>
<path d="M68360 29706
L68281 29594
" />
<path d="M68225 29706
L68225 29470
L68315 29470
L68338 29481
L68349 29493
L68360 29515
L68360 29549
L68349 29571
L68338 29583
L68315 29594
L68225 29594
" />
<path d="M68563 29470
L68518 29470
L68495 29481
L68484 29493
L68461 29526
L68450 29571
L68450 29661
L68461 29684
L68473 29695
L68495 29706
L68540 29706
L68563 29695
L68574 29684
L68585 29661
L68585 29605
L68574 29583
L68563 29571
L68540 29560
L68495 29560
L68473 29571
L68461 29583
L68450 29605
" />
<text x="64100" y="25368.1"
textLength="1656.64" font-size="314.961" lengthAdjust="spacingAndGlyphs"
text-anchor="middle" opacity="0">100 Ohm</text>
<path d="M63464 25356
L63329 25356
" />
<path d="M63396 25356
L63396 25120
L63374 25154
L63351 25176
L63329 25188
" />
<path d="M63610 25120
L63633 25120
L63655 25131
L63666 25143
L63678 25165
L63689 25210
L63689 25266
L63678 25311
L63666 25334
L63655 25345
L63633 25356
L63610 25356
L63588 25345
L63576 25334
L63565 25311
L63554 25266
L63554 25210
L63565 25165
L63576 25143
L63588 25131
L63610 25120
" />
<path d="M63835 25120
L63858 25120
L63880 25131
L63891 25143
L63903 25165
L63914 25210
L63914 25266
L63903 25311
L63891 25334
L63880 25345
L63858 25356
L63835 25356
L63813 25345
L63801 25334
L63790 25311
L63779 25266
L63779 25210
L63790 25165
L63801 25143
L63813 25131
L63835 25120
" />
<path d="M64240 25120
L64285 25120
L64308 25131
L64330 25154
L64341 25199
L64341 25278
L64330 25323
L64308 25345
L64285 25356
L64240 25356
L64218 25345
L64195 25323
L64184 25278
L64184 25199
L64195 25154
L64218 25131
L64240 25120
" />
<path d="M64443 25356
L64443 25120
" />
<path d="M64544 25356
L64544 25233
L64533 25210
L64510 25199
L64476 25199
L64454 25210
L64443 25221
" />
<path d="M64656 25356
L64656 25199
" />
<path d="M64656 25221
L64668 25210
L64690 25199
L64724 25199
L64746 25210
L64758 25233
L64758 25356
" />
<path d="M64758 25233
L64769 25210
L64791 25199
L64825 25199
L64848 25210
L64859 25233
L64859 25356
" />
<text x="64100" y="24842.5"
textLength="734.252" font-size="314.961" lengthAdjust="spacingAndGlyphs"
text-anchor="middle" opacity="0">RN1</text>
<path d="M63936 24831
L63858 24718
" />
<path d="M63801 24831
L63801 24595
L63891 24595
L63914 24606
L63925 24617
L63936 24640
L63936 24673
L63925 24696
L63914 24707
L63891 24718
L63801 24718
" />
<path d="M64038 24831
L64038 24595
L64173 24831
L64173 24595
" />
<path d="M64409 24831
L64274 24831
" />
<path d="M64341 24831
L64341 24595
L64319 24628
L64296 24651
L64274 24662
" />
<text x="66000" y="10618.1"
textLength="2275.31" font-size="314.961" lengthAdjust="spacingAndGlyphs"
text-anchor="middle" opacity="0">USB_B_Micro</text>
<path d="M64931 10370
L64931 10561
L64942 10584
L64953 10595
L64976 10606
L65021 10606
L65043 10595
L65055 10584
L65066 10561
L65066 10370
" />
<path d="M65167 10595
L65201 10606
L65257 10606
L65280 10595
L65291 10584
L65302 10561
L65302 10539
L65291 10516
L65280 10505
L65257 10494
L65212 10483
L65190 10471
L65178 10460
L65167 10438
L65167 10415
L65178 10393
L65190 10381
L65212 10370
L65268 10370
L65302 10381
" />
<path d="M65482 10483
L65516 10494
L65527 10505
L65538 10528
L65538 10561
L65527 10584
L65516 10595
L65493 10606
L65403 10606
L65403 10370
L65482 10370
L65505 10381
L65516 10393
L65527 10415
L65527 10438
L65516 10460
L65505 10471
L65482 10483
L65403 10483
" />
<path d="M65583 10629
L65763 10629
" />
<path d="M65898 10483
L65932 10494
L65943 10505
L65955 10528
L65955 10561
L65943 10584
L65932 10595
L65910 10606
L65820 10606
L65820 10370
L65898 10370
L65921 10381
L65932 10393
L65943 10415
L65943 10438
L65932 10460
L65921 10471
L65898 10483
L65820 10483
" />
<path d="M66000 10629
L66179 10629
" />
<path d="M66236 10606
L66236 10370
L66314 10539
L66393 10370
L66393 10606
" />
<path d="M66506 10606
L66506 10449
" />
<path d="M66506 10370
L66494 10381
L66506 10393
L66517 10381
L66506 10370
L66506 10393
" />
<path d="M66719 10595
L66697 10606
L66652 10606
L66629 10595
L66618 10584
L66607 10561
L66607 10494
L66618 10471
L66629 10460
L66652 10449
L66697 10449
L66719 10460
" />
<path d="M66821 10606
L66821 10449
" />
<path d="M66821 10494
L66832 10471
L66843 10460
L66866 10449
L66888 10449
" />
<path d="M67001 10606
L66978 10595
L66967 10584
L66956 10561
L66956 10494
L66967 10471
L66978 10460
L67001 10449
L67034 10449
L67057 10460
L67068 10471
L67079 10494
L67079 10561
L67068 10584
L67057 10595
L67034 10606
L67001 10606
" />
<text x="66000" y="9368.11"
textLength="430.54" font-size="314.961" lengthAdjust="spacingAndGlyphs"
text-anchor="middle" opacity="0">J4</text>
<path d="M65921 9120
L65921 9289
L65910 9323
L65887 9345
L65853 9356
L65831 9356
" />
<path d="M66134 9199
L66134 9356
" />
<path d="M66078 9109
L66022 9278
L66168 9278
" />
<text x="69650" y="30518.1"
textLength="1622.89" font-size="314.961" lengthAdjust="spacingAndGlyphs"
text-anchor="middle" opacity="0">10 kOhm</text>
<path d="M69031 30506
L68896 30506
" />
<path d="M68963 30506
L68963 30270
L68941 30304
L68918 30326
L68896 30338
" />
<path d="M69177 30270
L69200 30270
L69222 30281
L69233 30293
L69245 30315
L69256 30360
L69256 30416
L69245 30461
L69233 30484
L69222 30495
L69200 30506
L69177 30506
L69155 30495
L69143 30484
L69132 30461
L69121 30416
L69121 30360
L69132 30315
L69143 30293
L69155 30281
L69177 30270
" />
<path d="M69537 30506
L69537 30270
" />
<path d="M69560 30416
L69627 30506
" />
<path d="M69627 30349
L69537 30439
" />
<path d="M69773 30270
L69818 30270
L69841 30281
L69863 30304
L69874 30349
L69874 30428
L69863 30473
L69841 30495
L69818 30506
L69773 30506
L69751 30495
L69728 30473
L69717 30428
L69717 30349
L69728 30304
L69751 30281
L69773 30270
" />
<path d="M69976 30506
L69976 30270
" />
<path d="M70077 30506
L70077 30383
L70066 30360
L70043 30349
L70009 30349
L69987 30360
L69976 30371
" />
<path d="M70189 30506
L70189 30349
" />
<path d="M70189 30371
L70201 30360
L70223 30349
L70257 30349
L70279 30360
L70291 30383
L70291 30506
" />
<path d="M70291 30383
L70302 30360
L70324 30349
L70358 30349
L70381 30360
L70392 30383
L70392 30506
" />
<text x="68406.3" y="30518.1"
textLength="486.783" font-size="314.961" lengthAdjust="spacingAndGlyphs"
text-anchor="middle" opacity="0">R5</text>
<path d="M68366 30506
L68288 30394
" />
<path d="M68231 30506
L68231 30270
L68321 30270
L68344 30281
L68355 30293
L68366 30315
L68366 30349
L68355 30371
L68344 30383
L68321 30394
L68231 30394
" />
<path d="M68580 30270
L68468 30270
L68456 30383
L68468 30371
L68490 30360
L68546 30360
L68569 30371
L68580 30383
L68591 30405
L68591 30461
L68580 30484
L68569 30495
L68546 30506
L68490 30506
L68468 30495
L68456 30484
" />
<text x="63600" y="15168.1"
textLength="1656.64" font-size="314.961" lengthAdjust="spacingAndGlyphs"
text-anchor="middle" opacity="0">220 Ohm</text>
<path d="M62829 14943
L62840 14931
L62863 14920
L62919 14920
L62941 14931
L62953 14943
L62964 14965
L62964 14988
L62953 15021
L62818 15156
L62964 15156
" />
<path d="M63054 14943
L63065 14931
L63088 14920
L63144 14920
L63166 14931
L63178 14943
L63189 14965
L63189 14988
L63178 15021
L63043 15156
L63189 15156
" />
<path d="M63335 14920
L63358 14920
L63380 14931
L63391 14943
L63403 14965
L63414 15010
L63414 15066
L63403 15111
L63391 15134
L63380 15145
L63358 15156
L63335 15156
L63313 15145
L63301 15134
L63290 15111
L63279 15066
L63279 15010
L63290 14965
L63301 14943
L63313 14931
L63335 14920
" />
<path d="M63740 14920
L63785 14920
L63808 14931
L63830 14954
L63841 14999
L63841 15078
L63830 15123
L63808 15145
L63785 15156
L63740 15156
L63718 15145
L63695 15123
L63684 15078
L63684 14999
L63695 14954
L63718 14931
L63740 14920
" />
<path d="M63943 15156
L63943 14920
" />
<path d="M64044 15156
L64044 15033
L64033 15010
L64010 14999
L63976 14999
L63954 15010
L63943 15021
" />
<path d="M64156 15156
L64156 14999
" />
<path d="M64156 15021
L64168 15010
L64190 14999
L64224 14999
L64246 15010
L64258 15033
L64258 15156
" />
<path d="M64258 15033
L64269 15010
L64291 14999
L64325 14999
L64348 15010
L64359 15033
L64359 15156
" />
<text x="62750" y="14511.8"
textLength="486.783" font-size="314.961" lengthAdjust="spacingAndGlyphs"
text-anchor="middle" opacity="0">R4</text>
<path d="M62710 14500
L62631 14388
" />
<path d="M62575 14500
L62575 14264
L62665 14264
L62688 14275
L62699 14286
L62710 14309
L62710 14343
L62699 14365
L62688 14376
L62665 14388
L62575 14388
" />
<path d="M62913 14343
L62913 14500
" />
<path d="M62856 14253
L62800 14421
L62946 14421
" />
<text x="61750" y="15168.1"
textLength="1656.64" font-size="314.961" lengthAdjust="spacingAndGlyphs"
text-anchor="middle" opacity="0">220 Ohm</text>
<path d="M60979 14943
L60990 14931
L61013 14920
L61069 14920
L61091 14931
L61103 14943
L61114 14965
L61114 14988
L61103 15021
L60968 15156
L61114 15156
" />
<path d="M61204 14943
L61215 14931
L61238 14920
L61294 14920
L61316 14931
L61328 14943
L61339 14965
L61339 14988
L61328 15021
L61193 15156
L61339 15156
" />
<path d="M61485 14920
L61508 14920
L61530 14931
L61541 14943
L61553 14965
L61564 15010
L61564 15066
L61553 15111
L61541 15134
L61530 15145
L61508 15156
L61485 15156
L61463 15145
L61451 15134
L61440 15111
L61429 15066
L61429 15010
L61440 14965
L61451 14943
L61463 14931
L61485 14920
" />
<path d="M61890 14920
L61935 14920
L61958 14931
L61980 14954
L61991 14999
L61991 15078
L61980 15123
L61958 15145
L61935 15156
L61890 15156
L61868 15145
L61845 15123
L61834 15078
L61834 14999
L61845 14954
L61868 14931
L61890 14920
" />
<path d="M62093 15156
L62093 14920
" />
<path d="M62194 15156
L62194 15033
L62183 15010
L62160 14999
L62126 14999
L62104 15010
L62093 15021
" />
<path d="M62306 15156
L62306 14999
" />
<path d="M62306 15021
L62318 15010
L62340 14999
L62374 14999
L62396 15010
L62408 15033
L62408 15156
" />
<path d="M62408 15033
L62419 15010
L62441 14999
L62475 14999
L62498 15010
L62509 15033
L62509 15156
" />
<text x="61750" y="14511.8"
textLength="486.783" font-size="314.961" lengthAdjust="spacingAndGlyphs"
text-anchor="middle" opacity="0">R3</text>
<path d="M61710 14500
L61631 14388
" />
<path d="M61575 14500
L61575 14264
L61665 14264
L61688 14275
L61699 14286
L61710 14309
L61710 14343
L61699 14365
L61688 14376
L61665 14388
L61575 14388
" />
<path d="M61789 14264
L61935 14264
L61856 14354
L61890 14354
L61913 14365
L61924 14376
L61935 14399
L61935 14455
L61924 14478
L61913 14489
L61890 14500
L61823 14500
L61800 14489
L61789 14478
" />
<g transform="rotate(-90 63250 12250)">
<text x="63250" y="12368.1"
textLength="3220.19" font-size="314.961" lengthAdjust="spacingAndGlyphs"
text-anchor="middle" opacity="0">RF-YUS150TS-AE</text>
</g>
<path d="M63356 13656
L63244 13734
" />
<path d="M63356 13791
L63120 13791
L63120 13701
L63131 13678
L63143 13667
L63165 13656
L63199 13656
L63221 13667
L63233 13678
L63244 13701
L63244 13791
" />
<path d="M63233 13476
L63233 13554
" />
<path d="M63356 13554
L63120 13554
L63120 13442
" />
<path d="M63266 13352
L63266 13172
" />
<path d="M63244 13014
L63356 13014
" />
<path d="M63120 13093
L63244 13014
L63120 12936
" />
<path d="M63120 12857
L63311 12857
L63334 12846
L63345 12834
L63356 12812
L63356 12767
L63345 12744
L63334 12733
L63311 12722
L63120 12722
" />
<path d="M63345 12621
L63356 12587
L63356 12531
L63345 12508
L63334 12497
L63311 12486
L63289 12486
L63266 12497
L63255 12508
L63244 12531
L63233 12576
L63221 12598
L63210 12609
L63188 12621
L63165 12621
L63143 12609
L63131 12598
L63120 12576
L63120 12519
L63131 12486
" />
<path d="M63356 12261
L63356 12396
" />
<path d="M63356 12328
L63120 12328
L63154 12351
L63176 12373
L63188 12396
" />
<path d="M63120 12047
L63120 12160
L63233 12171
L63221 12160
L63210 12137
L63210 12081
L63221 12058
L63233 12047
L63255 12036
L63311 12036
L63334 12047
L63345 12058
L63356 12081
L63356 12137
L63345 12160
L63334 12171
" />
<path d="M63120 11890
L63120 11867
L63131 11845
L63143 11833
L63165 11822
L63210 11811
L63266 11811
L63311 11822
L63334 11833
L63345 11845
L63356 11867
L63356 11890
L63345 11912
L63334 11923
L63311 11935
L63266 11946
L63210 11946
L63165 11935
L63143 11923
L63131 11912
L63120 11890
" />
<path d="M63120 11743
L63120 11608
" />
<path d="M63356 11676
L63120 11676
" />
<path d="M63345 11541
L63356 11507
L63356 11451
L63345 11428
L63334 11417
L63311 11406
L63289 11406
L63266 11417
L63255 11428
L63244 11451
L63233 11496
L63221 11518
L63210 11530
L63188 11541
L63165 11541
L63143 11530
L63131 11518
L63120 11496
L63120 11440
L63131 11406
" />
<path d="M63266 11305
L63266 11125
" />
<path d="M63289 11023
L63289 10911
" />
<path d="M63356 11046
L63120 10967
L63356 10888
" />
<path d="M63233 10810
L63233 10731
" />
<path d="M63356 10697
L63356 10810
L63120 10810
L63120 10697
" />
<text x="62750" y="12203.7"
textLength="486.783" font-size="314.961" lengthAdjust="spacingAndGlyphs"
text-anchor="middle" opacity="0">D5</text>
<path d="M62575 12192
L62575 11956
L62631 11956
L62665 11967
L62688 11990
L62699 12012
L62710 12057
L62710 12091
L62699 12136
L62688 12158
L62665 12181
L62631 12192
L62575 12192
" />
<path d="M62924 11956
L62811 11956
L62800 12068
L62811 12057
L62834 12046
L62890 12046
L62913 12057
L62924 12068
L62935 12091
L62935 12147
L62924 12169
L62913 12181
L62890 12192
L62834 12192
L62811 12181
L62800 12169
" />
<g transform="rotate(-90 62250 12250)">
<text x="62250" y="12368.1"
textLength="3220.19" font-size="314.961" lengthAdjust="spacingAndGlyphs"
text-anchor="middle" opacity="0">RF-YUS150TS-AE</text>
</g>
<path d="M62356 13656
L62244 13734
" />
<path d="M62356 13791
L62120 13791
L62120 13701
L62131 13678
L62143 13667
L62165 13656
L62199 13656
L62221 13667
L62233 13678
L62244 13701
L62244 13791
" />
<path d="M62233 13476
L62233 13554
" />
<path d="M62356 13554
L62120 13554
L62120 13442
" />
<path d="M62266 13352
L62266 13172
" />
<path d="M62244 13014
L62356 13014
" />
<path d="M62120 13093
L62244 13014
L62120 12936
" />
<path d="M62120 12857
L62311 12857
L62334 12846
L62345 12834
L62356 12812
L62356 12767
L62345 12744
L62334 12733
L62311 12722
L62120 12722
" />
<path d="M62345 12621
L62356 12587
L62356 12531
L62345 12508
L62334 12497
L62311 12486
L62289 12486
L62266 12497
L62255 12508
L62244 12531
L62233 12576
L62221 12598
L62210 12609
L62188 12621
L62165 12621
L62143 12609
L62131 12598
L62120 12576
L62120 12519
L62131 12486
" />
<path d="M62356 12261
L62356 12396
" />
<path d="M62356 12328
L62120 12328
L62154 12351
L62176 12373
L62188 12396
" />
<path d="M62120 12047
L62120 12160
L62233 12171
L62221 12160
L62210 12137
L62210 12081
L62221 12058
L62233 12047
L62255 12036
L62311 12036
L62334 12047
L62345 12058
L62356 12081
L62356 12137
L62345 12160
L62334 12171
" />
<path d="M62120 11890
L62120 11867
L62131 11845
L62143 11833
L62165 11822
L62210 11811
L62266 11811
L62311 11822
L62334 11833
L62345 11845
L62356 11867
L62356 11890
L62345 11912
L62334 11923
L62311 11935
L62266 11946
L62210 11946
L62165 11935
L62143 11923
L62131 11912
L62120 11890
" />
<path d="M62120 11743
L62120 11608
" />
<path d="M62356 11676
L62120 11676
" />
<path d="M62345 11541
L62356 11507
L62356 11451
L62345 11428
L62334 11417
L62311 11406
L62289 11406
L62266 11417
L62255 11428
L62244 11451
L62233 11496
L62221 11518
L62210 11530
L62188 11541
L62165 11541
L62143 11530
L62131 11518
L62120 11496
L62120 11440
L62131 11406
" />
<path d="M62266 11305
L62266 11125
" />
<path d="M62289 11023
L62289 10911
" />
<path d="M62356 11046
L62120 10967
L62356 10888
" />
<path d="M62233 10810
L62233 10731
" />
<path d="M62356 10697
L62356 10810
L62120 10810
L62120 10697
" />
<text x="61750" y="12203.7"
textLength="486.783" font-size="314.961" lengthAdjust="spacingAndGlyphs"
text-anchor="middle" opacity="0">D4</text>
<path d="M61575 12192
L61575 11956
L61631 11956
L61665 11967
L61688 11990
L61699 12012
L61710 12057
L61710 12091
L61699 12136
L61688 12158
L61665 12181
L61631 12192
L61575 12192
" />
<path d="M61913 12035
L61913 12192
" />
<path d="M61856 11945
L61800 12113
L61946 12113
" />
<text x="55600" y="16618.1"
textLength="891.732" font-size="314.961" lengthAdjust="spacingAndGlyphs"
text-anchor="middle" opacity="0">47uF</text>
<path d="M55324 16449
L55324 16606
" />
<path d="M55268 16359
L55211 16528
L55358 16528
" />
<path d="M55425 16370
L55583 16370
L55481 16606
" />
<path d="M55774 16449
L55774 16606
" />
<path d="M55673 16449
L55673 16573
L55684 16595
L55706 16606
L55740 16606
L55763 16595
L55774 16584
" />
<path d="M55965 16483
L55886 16483
" />
<path d="M55886 16606
L55886 16370
L55999 16370
" />
<text x="54100" y="15868.1"
textLength="486.783" font-size="314.961" lengthAdjust="spacingAndGlyphs"
text-anchor="middle" opacity="0">C8</text>
<path d="M54060 15834
L54049 15845
L54015 15856
L53993 15856
L53959 15845
L53936 15823
L53925 15800
L53914 15755
L53914 15721
L53925 15676
L53936 15654
L53959 15631
L53993 15620
L54015 15620
L54049 15631
L54060 15643
" />
<path d="M54195 15721
L54173 15710
L54161 15699
L54150 15676
L54150 15665
L54161 15643
L54173 15631
L54195 15620
L54240 15620
L54263 15631
L54274 15643
L54285 15665
L54285 15676
L54274 15699
L54263 15710
L54240 15721
L54195 15721
L54173 15733
L54161 15744
L54150 15766
L54150 15811
L54161 15834
L54173 15845
L54195 15856
L54240 15856
L54263 15845
L54274 15834
L54285 15811
L54285 15766
L54274 15744
L54263 15733
L54240 15721
" />
<text x="55650" y="19068.1"
textLength="891.732" font-size="314.961" lengthAdjust="spacingAndGlyphs"
text-anchor="middle" opacity="0">47uF</text>
<path d="M55374 18899
L55374 19056
" />
<path d="M55318 18809
L55261 18978
L55408 18978
" />
<path d="M55475 18820
L55633 18820
L55531 19056
" />
<path d="M55824 18899
L55824 19056
" />
<path d="M55723 18899
L55723 19023
L55734 19045
L55756 19056
L55790 19056
L55813 19045
L55824 19034
" />
<path d="M56015 18933
L55936 18933
" />
<path d="M55936 19056
L55936 18820
L56049 18820
" />
<text x="54100" y="18368.1"
textLength="486.783" font-size="314.961" lengthAdjust="spacingAndGlyphs"
text-anchor="middle" opacity="0">C7</text>
<path d="M54060 18334
L54049 18345
L54015 18356
L53993 18356
L53959 18345
L53936 18323
L53925 18300
L53914 18255
L53914 18221
L53925 18176
L53936 18154
L53959 18131
L53993 18120
L54015 18120
L54049 18131
L54060 18143
" />
<path d="M54139 18120
L54296 18120
L54195 18356
" />
<text x="68250" y="15368.1"
textLength="1004.22" font-size="314.961" lengthAdjust="spacingAndGlyphs"
text-anchor="middle" opacity="0">0.1uF</text>
<path d="M67861 15120
L67884 15120
L67906 15131
L67918 15143
L67929 15165
L67940 15210
L67940 15266
L67929 15311
L67918 15334
L67906 15345
L67884 15356
L67861 15356
L67839 15345
L67828 15334
L67816 15311
L67805 15266
L67805 15210
L67816 15165
L67828 15143
L67839 15131
L67861 15120
" />
<path d="M68041 15334
L68053 15345
L68041 15356
L68030 15345
L68041 15334
L68041 15356
" />
<path d="M68278 15356
L68143 15356
" />
<path d="M68210 15356
L68210 15120
L68188 15154
L68165 15176
L68143 15188
" />
<path d="M68480 15199
L68480 15356
" />
<path d="M68379 15199
L68379 15323
L68390 15345
L68413 15356
L68446 15356
L68469 15345
L68480 15334
" />
<path d="M68671 15233
L68593 15233
" />
<path d="M68593 15356
L68593 15120
L68705 15120
" />
<g transform="rotate(-90 68250 14591.5)">
<text x="68250" y="14709.6"
textLength="711.755" font-size="314.961" lengthAdjust="spacingAndGlyphs"
text-anchor="middle" opacity="0">C11</text>
</g>
<path d="M68334 14743
L68345 14754
L68356 14788
L68356 14810
L68345 14844
L68323 14867
L68300 14878
L68255 14889
L68221 14889
L68176 14878
L68154 14867
L68131 14844
L68120 14810
L68120 14788
L68131 14754
L68143 14743
" />
<path d="M68356 14518
L68356 14653
" />
<path d="M68356 14585
L68120 14585
L68154 14608
L68176 14630
L68188 14653
" />
<path d="M68356 14293
L68356 14428
" />
<path d="M68356 14360
L68120 14360
L68154 14383
L68176 14405
L68188 14428
" />
<text x="65600" y="17268.1"
textLength="1510.41" font-size="314.961" lengthAdjust="spacingAndGlyphs"
text-anchor="middle" opacity="0">FT232RL</text>
<path d="M64992 17133
L64913 17133
" />
<path d="M64913 17256
L64913 17020
L65026 17020
" />
<path d="M65082 17020
L65217 17020
" />
<path d="M65150 17256
L65150 17020
" />
<path d="M65285 17043
L65296 17031
L65318 17020
L65375 17020
L65397 17031
L65408 17043
L65420 17065
L65420 17088
L65408 17121
L65273 17256
L65420 17256
" />
<path d="M65498 17020
L65644 17020
L65566 17110
L65600 17110
L65622 17121
L65633 17133
L65644 17155
L65644 17211
L65633 17234
L65622 17245
L65600 17256
L65532 17256
L65510 17245
L65498 17234
" />
<path d="M65734 17043
L65746 17031
L65768 17020
L65824 17020
L65847 17031
L65858 17043
L65869 17065
L65869 17088
L65858 17121
L65723 17256
L65869 17256
" />
<path d="M66106 17256
L66027 17144
" />
<path d="M65971 17256
L65971 17020
L66061 17020
L66083 17031
L66094 17043
L66106 17065
L66106 17099
L66094 17121
L66083 17133
L66061 17144
L65971 17144
" />
<path d="M66319 17256
L66207 17256
L66207 17020
" />
<text x="65582.7" y="14978.3"
textLength="498.031" font-size="314.961" lengthAdjust="spacingAndGlyphs"
text-anchor="middle" opacity="0">U5</text>
<path d="M65402 14730
L65402 14922
L65413 14944
L65425 14955
L65447 14967
L65492 14967
L65515 14955
L65526 14944
L65537 14922
L65537 14730
" />
<path d="M65762 14730
L65650 14730
L65638 14843
L65650 14832
L65672 14820
L65728 14820
L65751 14832
L65762 14843
L65773 14865
L65773 14922
L65762 14944
L65751 14955
L65728 14967
L65672 14967
L65650 14955
L65638 14944
" />
<text x="68250" y="10118.1"
textLength="891.732" font-size="314.961" lengthAdjust="spacingAndGlyphs"
text-anchor="middle" opacity="0">22uF</text>
<path d="M67861 9893
L67873 9881
L67895 9870
L67951 9870
L67974 9881
L67985 9893
L67996 9915
L67996 9938
L67985 9971
L67850 10106
L67996 10106
" />
<path d="M68086 9893
L68098 9881
L68120 9870
L68176 9870
L68199 9881
L68210 9893
L68221 9915
L68221 9938
L68210 9971
L68075 10106
L68221 10106
" />
<path d="M68424 9949
L68424 10106
" />
<path d="M68323 9949
L68323 10073
L68334 10095
L68356 10106
L68390 10106
L68413 10095
L68424 10084
" />
<path d="M68615 9983
L68536 9983
" />
<path d="M68536 10106
L68536 9870
L68649 9870
" />
<g transform="rotate(-90 68250 9408.46)">
<text x="68250" y="9526.57"
textLength="711.755" font-size="314.961" lengthAdjust="spacingAndGlyphs"
text-anchor="middle" opacity="0">C10</text>
</g>
<path d="M68334 9560
L68345 9571
L68356 9605
L68356 9627
L68345 9661
L68323 9684
L68300 9695
L68255 9706
L68221 9706
L68176 9695
L68154 9684
L68131 9661
L68120 9627
L68120 9605
L68131 9571
L68143 9560
" />
<path d="M68356 9335
L68356 9470
" />
<path d="M68356 9402
L68120 9402
L68154 9425
L68176 9447
L68188 9470
" />
<path d="M68120 9189
L68120 9166
L68131 9144
L68143 9132
L68165 9121
L68210 9110
L68266 9110
L68311 9121
L68334 9132
L68345 9144
L68356 9166
L68356 9189
L68345 9211
L68334 9222
L68311 9234
L68266 9245
L68210 9245
L68165 9234
L68143 9222
L68131 9211
L68120 9189
" />
<text x="58250" y="16918.1"
textLength="2500.28" font-size="314.961" lengthAdjust="spacingAndGlyphs"
text-anchor="middle" opacity="0">NCP1117-3.3</text>
<path d="M57068 16906
L57068 16670
L57203 16906
L57203 16670
" />
<path d="M57451 16884
L57440 16895
L57406 16906
L57383 16906
L57350 16895
L57327 16873
L57316 16850
L57305 16805
L57305 16771
L57316 16726
L57327 16704
L57350 16681
L57383 16670
L57406 16670
L57440 16681
L57451 16693
" />
<path d="M57552 16906
L57552 16670
L57642 16670
L57665 16681
L57676 16693
L57687 16715
L57687 16749
L57676 16771
L57665 16783
L57642 16794
L57552 16794
" />
<path d="M57912 16906
L57777 16906
" />
<path d="M57845 16906
L57845 16670
L57822 16704
L57800 16726
L57777 16738
" />
<path d="M58137 16906
L58002 16906
" />
<path d="M58070 16906
L58070 16670
L58047 16704
L58025 16726
L58002 16738
" />
<path d="M58362 16906
L58227 16906
" />
<path d="M58294 16906
L58294 16670
L58272 16704
L58250 16726
L58227 16738
" />
<path d="M58441 16670
L58598 16670
L58497 16906
" />
<path d="M58688 16816
L58868 16816
" />
<path d="M58958 16670
L59104 16670
L59026 16760
L59059 16760
L59082 16771
L59093 16783
L59104 16805
L59104 16861
L59093 16884
L59082 16895
L59059 16906
L58992 16906
L58969 16895
L58958 16884
" />
<path d="M59206 16884
L59217 16895
L59206 16906
L59194 16895
L59206 16884
L59206 16906
" />
<path d="M59296 16670
L59442 16670
L59363 16760
L59397 16760
L59419 16771
L59431 16783
L59442 16805
L59442 16861
L59431 16884
L59419 16895
L59397 16906
L59329 16906
L59307 16895
L59296 16884
" />
<text x="58240.2" y="15368.1"
textLength="498.031" font-size="314.961" lengthAdjust="spacingAndGlyphs"
text-anchor="middle" opacity="0">U2</text>
<path d="M58060 15120
L58060 15311
L58071 15334
L58082 15345
L58105 15356
L58150 15356
L58172 15345
L58183 15334
L58195 15311
L58195 15120
" />
<path d="M58296 15143
L58307 15131
L58330 15120
L58386 15120
L58408 15131
L58420 15143
L58431 15165
L58431 15188
L58420 15221
L58285 15356
L58431 15356
" />
<text x="68350" y="17118.1"
textLength="1634.14" font-size="314.961" lengthAdjust="spacingAndGlyphs"
text-anchor="middle" opacity="0">BCR129S</text>
<path d="M67680 16983
L67714 16994
L67725 17005
L67736 17028
L67736 17061
L67725 17084
L67714 17095
L67691 17106
L67601 17106
L67601 16870
L67680 16870
L67703 16881
L67714 16893
L67725 16915
L67725 16938
L67714 16960
L67703 16971
L67680 16983
L67601 16983
" />
<path d="M67973 17084
L67961 17095
L67928 17106
L67905 17106
L67871 17095
L67849 17073
L67838 17050
L67826 17005
L67826 16971
L67838 16926
L67849 16904
L67871 16881
L67905 16870
L67928 16870
L67961 16881
L67973 16893
" />
<path d="M68209 17106
L68130 16994
" />
<path d="M68074 17106
L68074 16870
L68164 16870
L68186 16881
L68198 16893
L68209 16915
L68209 16949
L68198 16971
L68186 16983
L68164 16994
L68074 16994
" />
<path d="M68434 17106
L68299 17106
" />
<path d="M68366 17106
L68366 16870
L68344 16904
L68321 16926
L68299 16938
" />
<path d="M68524 16893
L68535 16881
L68558 16870
L68614 16870
L68636 16881
L68648 16893
L68659 16915
L68659 16938
L68648 16971
L68513 17106
L68659 17106
" />
<path d="M68771 17106
L68816 17106
L68839 17095
L68850 17084
L68873 17050
L68884 17005
L68884 16915
L68873 16893
L68861 16881
L68839 16870
L68794 16870
L68771 16881
L68760 16893
L68749 16915
L68749 16971
L68760 16994
L68771 17005
L68794 17016
L68839 17016
L68861 17005
L68873 16994
L68884 16971
" />
<path d="M68974 17095
L69008 17106
L69064 17106
L69086 17095
L69098 17084
L69109 17061
L69109 17039
L69098 17016
L69086 17005
L69064 16994
L69019 16983
L68996 16971
L68985 16960
L68974 16938
L68974 16915
L68985 16893
L68996 16881
L69019 16870
L69075 16870
L69109 16881
" />
<text x="68374" y="16374"
textLength="498.031" font-size="314.961" lengthAdjust="spacingAndGlyphs"
text-anchor="middle" opacity="0">Q1</text>
<path d="M68351 16385
L68329 16374
L68306 16351
L68272 16317
L68250 16306
L68227 16306
" />
<path d="M68239 16362
L68216 16351
L68194 16329
L68182 16284
L68182 16205
L68194 16160
L68216 16137
L68239 16126
L68284 16126
L68306 16137
L68329 16160
L68340 16205
L68340 16284
L68329 16329
L68306 16351
L68284 16362
L68239 16362
" />
<path d="M68565 16362
L68430 16362
" />
<path d="M68497 16362
L68497 16126
L68475 16160
L68452 16182
L68430 16194
" />
<text x="58250" y="12368.1"
textLength="3141.45" font-size="314.961" lengthAdjust="spacingAndGlyphs"
text-anchor="middle" opacity="0">NCP1117ST50T3G</text>
<path d="M56748 12356
L56748 12120
L56883 12356
L56883 12120
" />
<path d="M57130 12334
L57119 12345
L57085 12356
L57063 12356
L57029 12345
L57007 12323
L56995 12300
L56984 12255
L56984 12221
L56995 12176
L57007 12154
L57029 12131
L57063 12120
L57085 12120
L57119 12131
L57130 12143
" />
<path d="M57232 12356
L57232 12120
L57321 12120
L57344 12131
L57355 12143
L57366 12165
L57366 12199
L57355 12221
L57344 12233
L57321 12244
L57232 12244
" />
<path d="M57591 12356
L57456 12356
" />
<path d="M57524 12356
L57524 12120
L57501 12154
L57479 12176
L57456 12188
" />
<path d="M57816 12356
L57681 12356
" />
<path d="M57749 12356
L57749 12120
L57726 12154
L57704 12176
L57681 12188
" />
<path d="M58041 12356
L57906 12356
" />
<path d="M57974 12356
L57974 12120
L57951 12154
L57929 12176
L57906 12188
" />
<path d="M58120 12120
L58278 12120
L58176 12356
" />
<path d="M58356 12345
L58390 12356
L58446 12356
L58469 12345
L58480 12334
L58491 12311
L58491 12289
L58480 12266
L58469 12255
L58446 12244
L58401 12233
L58379 12221
L58368 12210
L58356 12188
L58356 12165
L58368 12143
L58379 12131
L58401 12120
L58458 12120
L58491 12131
" />
<path d="M58559 12120
L58694 12120
" />
<path d="M58626 12356
L58626 12120
" />
<path d="M58885 12120
L58773 12120
L58761 12233
L58773 12221
L58795 12210
L58851 12210
L58874 12221
L58885 12233
L58896 12255
L58896 12311
L58885 12334
L58874 12345
L58851 12356
L58795 12356
L58773 12345
L58761 12334
" />
<path d="M59043 12120
L59065 12120
L59088 12131
L59099 12143
L59110 12165
L59121 12210
L59121 12266
L59110 12311
L59099 12334
L59088 12345
L59065 12356
L59043 12356
L59020 12345
L59009 12334
L58998 12311
L58986 12266
L58986 12210
L58998 12165
L59009 12143
L59020 12131
L59043 12120
" />
<path d="M59189 12120
L59324 12120
" />
<path d="M59256 12356
L59256 12120
" />
<path d="M59380 12120
L59526 12120
L59447 12210
L59481 12210
L59504 12221
L59515 12233
L59526 12255
L59526 12311
L59515 12334
L59504 12345
L59481 12356
L59414 12356
L59391 12345
L59380 12334
" />
<path d="M59751 12131
L59729 12120
L59695 12120
L59661 12131
L59639 12154
L59627 12176
L59616 12221
L59616 12255
L59627 12300
L59639 12323
L59661 12345
L59695 12356
L59717 12356
L59751 12345
L59762 12334
L59762 12255
L59717 12255
" />
<g transform="rotate(-90 58330.3 10750)">
<text x="58330.3" y="10868.1"
textLength="498.031" font-size="314.961" lengthAdjust="spacingAndGlyphs"
text-anchor="middle" opacity="0">U3</text>
</g>
<path d="M58200 10929
L58392 10929
L58414 10918
L58425 10907
L58437 10884
L58437 10839
L58425 10817
L58414 10806
L58392 10794
L58200 10794
" />
<path d="M58200 10705
L58200 10558
L58290 10637
L58290 10603
L58302 10581
L58313 10570
L58335 10558
L58392 10558
L58414 10570
L58425 10581
L58437 10603
L58437 10671
L58425 10693
L58414 10705
" />
<text x="62750" y="9968.11"
textLength="2016.59" font-size="314.961" lengthAdjust="spacingAndGlyphs"
text-anchor="middle" opacity="0">STPS0520Z</text>
<path d="M61799 9945
L61833 9956
L61889 9956
L61911 9945
L61923 9934
L61934 9911
L61934 9889
L61923 9866
L61911 9855
L61889 9844
L61844 9833
L61821 9821
L61810 9810
L61799 9788
L61799 9765
L61810 9743
L61821 9731
L61844 9720
L61900 9720
L61934 9731
" />
<path d="M62001 9720
L62136 9720
" />
<path d="M62069 9956
L62069 9720
" />
<path d="M62215 9956
L62215 9720
L62305 9720
L62328 9731
L62339 9743
L62350 9765
L62350 9799
L62339 9821
L62328 9833
L62305 9844
L62215 9844
" />
<path d="M62440 9945
L62474 9956
L62530 9956
L62553 9945
L62564 9934
L62575 9911
L62575 9889
L62564 9866
L62553 9855
L62530 9844
L62485 9833
L62463 9821
L62451 9810
L62440 9788
L62440 9765
L62451 9743
L62463 9731
L62485 9720
L62541 9720
L62575 9731
" />
<path d="M62721 9720
L62744 9720
L62766 9731
L62778 9743
L62789 9765
L62800 9810
L62800 9866
L62789 9911
L62778 9934
L62766 9945
L62744 9956
L62721 9956
L62699 9945
L62688 9934
L62676 9911
L62665 9866
L62665 9810
L62676 9765
L62688 9743
L62699 9731
L62721 9720
" />
<path d="M63014 9720
L62901 9720
L62890 9833
L62901 9821
L62924 9810
L62980 9810
L63003 9821
L63014 9833
L63025 9855
L63025 9911
L63014 9934
L63003 9945
L62980 9956
L62924 9956
L62901 9945
L62890 9934
" />
<path d="M63115 9743
L63126 9731
L63149 9720
L63205 9720
L63228 9731
L63239 9743
L63250 9765
L63250 9788
L63239 9821
L63104 9956
L63250 9956
" />
<path d="M63396 9720
L63419 9720
L63441 9731
L63453 9743
L63464 9765
L63475 9810
L63475 9866
L63464 9911
L63453 9934
L63441 9945
L63419 9956
L63396 9956
L63374 9945
L63363 9934
L63351 9911
L63340 9866
L63340 9810
L63351 9765
L63363 9743
L63374 9731
L63396 9720
" />
<path d="M63554 9720
L63711 9720
L63554 9956
L63711 9956
" />
<text x="62800" y="8718.11"
textLength="486.783" font-size="314.961" lengthAdjust="spacingAndGlyphs"
text-anchor="middle" opacity="0">D3</text>
<path d="M62625 8706
L62625 8470
L62681 8470
L62715 8481
L62738 8504
L62749 8526
L62760 8571
L62760 8605
L62749 8650
L62738 8673
L62715 8695
L62681 8706
L62625 8706
" />
<path d="M62839 8470
L62985 8470
L62906 8560
L62940 8560
L62963 8571
L62974 8583
L62985 8605
L62985 8661
L62974 8684
L62963 8695
L62940 8706
L62873 8706
L62850 8695
L62839 8684
" />
<text x="51800" y="18218.1"
textLength="520.529" font-size="314.961" lengthAdjust="spacingAndGlyphs"
text-anchor="middle" opacity="0">M7</text>
<path d="M51608 18206
L51608 17970
L51687 18139
L51766 17970
L51766 18206
" />
<path d="M51856 17970
L52013 17970
L51912 18206
" />
<text x="51800" y="15868.1"
textLength="486.783" font-size="314.961" lengthAdjust="spacingAndGlyphs"
text-anchor="middle" opacity="0">D2</text>
<path d="M51625 15856
L51625 15620
L51681 15620
L51715 15631
L51738 15654
L51749 15676
L51760 15721
L51760 15755
L51749 15800
L51738 15823
L51715 15845
L51681 15856
L51625 15856
" />
<path d="M51850 15643
L51861 15631
L51884 15620
L51940 15620
L51963 15631
L51974 15643
L51985 15665
L51985 15688
L51974 15721
L51839 15856
L51985 15856
" />
<text x="59850" y="15168.1"
textLength="1656.64" font-size="314.961" lengthAdjust="spacingAndGlyphs"
text-anchor="middle" opacity="0">220 Ohm</text>
<path d="M59079 14943
L59090 14931
L59113 14920
L59169 14920
L59191 14931
L59203 14943
L59214 14965
L59214 14988
L59203 15021
L59068 15156
L59214 15156
" />
<path d="M59304 14943
L59315 14931
L59338 14920
L59394 14920
L59416 14931
L59428 14943
L59439 14965
L59439 14988
L59428 15021
L59293 15156
L59439 15156
" />
<path d="M59585 14920
L59608 14920
L59630 14931
L59641 14943
L59653 14965
L59664 15010
L59664 15066
L59653 15111
L59641 15134
L59630 15145
L59608 15156
L59585 15156
L59563 15145
L59551 15134
L59540 15111
L59529 15066
L59529 15010
L59540 14965
L59551 14943
L59563 14931
L59585 14920
" />
<path d="M59990 14920
L60035 14920
L60058 14931
L60080 14954
L60091 14999
L60091 15078
L60080 15123
L60058 15145
L60035 15156
L59990 15156
L59968 15145
L59945 15123
L59934 15078
L59934 14999
L59945 14954
L59968 14931
L59990 14920
" />
<path d="M60193 15156
L60193 14920
" />
<path d="M60294 15156
L60294 15033
L60283 15010
L60260 14999
L60226 14999
L60204 15010
L60193 15021
" />
<path d="M60406 15156
L60406 14999
" />
<path d="M60406 15021
L60418 15010
L60440 14999
L60474 14999
L60496 15010
L60508 15033
L60508 15156
" />
<path d="M60508 15033
L60519 15010
L60541 14999
L60575 14999
L60598 15010
L60609 15033
L60609 15156
" />
<text x="60750" y="14511.8"
textLength="486.783" font-size="314.961" lengthAdjust="spacingAndGlyphs"
text-anchor="middle" opacity="0">R1</text>
<path d="M60710 14500
L60631 14388
" />
<path d="M60575 14500
L60575 14264
L60665 14264
L60688 14275
L60699 14286
L60710 14309
L60710 14343
L60699 14365
L60688 14376
L60665 14388
L60575 14388
" />
<path d="M60935 14500
L60800 14500
" />
<path d="M60868 14500
L60868 14264
L60845 14298
L60823 14320
L60800 14331
" />
<g transform="rotate(-90 61250 12250)">
<text x="61250" y="12368.1"
textLength="3287.68" font-size="314.961" lengthAdjust="spacingAndGlyphs"
text-anchor="middle" opacity="0">RF-GSS150TS-BC</text>
</g>
<path d="M61356 13689
L61244 13768
" />
<path d="M61356 13824
L61120 13824
L61120 13734
L61131 13712
L61143 13701
L61165 13689
L61199 13689
L61221 13701
L61233 13712
L61244 13734
L61244 13824
" />
<path d="M61233 13509
L61233 13588
" />
<path d="M61356 13588
L61120 13588
L61120 13476
" />
<path d="M61266 13386
L61266 13206
" />
<path d="M61131 12969
L61120 12992
L61120 13026
L61131 13059
L61154 13082
L61176 13093
L61221 13104
L61255 13104
L61300 13093
L61323 13082
L61345 13059
L61356 13026
L61356 13003
L61345 12969
L61334 12958
L61255 12958
L61255 13003
" />
<path d="M61345 12868
L61356 12834
L61356 12778
L61345 12756
L61334 12744
L61311 12733
L61289 12733
L61266 12744
L61255 12756
L61244 12778
L61233 12823
L61221 12846
L61210 12857
L61188 12868
L61165 12868
L61143 12857
L61131 12846
L61120 12823
L61120 12767
L61131 12733
" />
<path d="M61345 12643
L61356 12609
L61356 12553
L61345 12531
L61334 12519
L61311 12508
L61289 12508
L61266 12519
L61255 12531
L61244 12553
L61233 12598
L61221 12621
L61210 12632
L61188 12643
L61165 12643
L61143 12632
L61131 12621
L61120 12598
L61120 12542
L61131 12508
" />
<path d="M61356 12283
L61356 12418
" />
<path d="M61356 12351
L61120 12351
L61154 12373
L61176 12396
L61188 12418
" />
<path d="M61120 12070
L61120 12182
L61233 12193
L61221 12182
L61210 12160
L61210 12103
L61221 12081
L61233 12070
L61255 12058
L61311 12058
L61334 12070
L61345 12081
L61356 12103
L61356 12160
L61345 12182
L61334 12193
" />
<path d="M61120 11912
L61120 11890
L61131 11867
L61143 11856
L61165 11845
L61210 11833
L61266 11833
L61311 11845
L61334 11856
L61345 11867
L61356 11890
L61356 11912
L61345 11935
L61334 11946
L61311 11957
L61266 11968
L61210 11968
L61165 11957
L61143 11946
L61131 11935
L61120 11912
" />
<path d="M61120 11766
L61120 11631
" />
<path d="M61356 11698
L61120 11698
" />
<path d="M61345 11563
L61356 11530
L61356 11473
L61345 11451
L61334 11440
L61311 11428
L61289 11428
L61266 11440
L61255 11451
L61244 11473
L61233 11518
L61221 11541
L61210 11552
L61188 11563
L61165 11563
L61143 11552
L61131 11541
L61120 11518
L61120 11462
L61131 11428
" />
<path d="M61266 11327
L61266 11147
" />
<path d="M61233 10956
L61244 10922
L61255 10911
L61278 10900
L61311 10900
L61334 10911
L61345 10922
L61356 10945
L61356 11035
L61120 11035
L61120 10956
L61131 10933
L61143 10922
L61165 10911
L61188 10911
L61210 10922
L61221 10933
L61233 10956
L61233 11035
" />
<path d="M61334 10663
L61345 10675
L61356 10708
L61356 10731
L61345 10765
L61323 10787
L61300 10798
L61255 10810
L61221 10810
L61176 10798
L61154 10787
L61131 10765
L61120 10731
L61120 10708
L61131 10675
L61143 10663
" />
<text x="60750" y="12203.7"
textLength="486.783" font-size="314.961" lengthAdjust="spacingAndGlyphs"
text-anchor="middle" opacity="0">D1</text>
<path d="M60575 12192
L60575 11956
L60631 11956
L60665 11967
L60688 11990
L60699 12012
L60710 12057
L60710 12091
L60699 12136
L60688 12158
L60665 12181
L60631 12192
L60575 12192
" />
<path d="M60935 12192
L60800 12192
" />
<path d="M60868 12192
L60868 11956
L60845 11990
L60823 12012
L60800 12023
" />
<text x="57666.9" y="13618.1"
textLength="891.732" font-size="314.961" lengthAdjust="spacingAndGlyphs"
text-anchor="middle" opacity="0">22uF</text>
<path d="M57278 13393
L57290 13381
L57312 13370
L57368 13370
L57391 13381
L57402 13393
L57413 13415
L57413 13438
L57402 13471
L57267 13606
L57413 13606
" />
<path d="M57503 13393
L57515 13381
L57537 13370
L57593 13370
L57616 13381
L57627 13393
L57638 13415
L57638 13438
L57627 13471
L57492 13606
L57638 13606
" />
<path d="M57841 13449
L57841 13606
" />
<path d="M57740 13449
L57740 13573
L57751 13595
L57773 13606
L57807 13606
L57830 13595
L57841 13584
" />
<path d="M58032 13483
L57953 13483
" />
<path d="M57953 13606
L57953 13370
L58066 13370
" />
<text x="57658.5" y="13118.1"
textLength="486.783" font-size="314.961" lengthAdjust="spacingAndGlyphs"
text-anchor="middle" opacity="0">C6</text>
<path d="M57619 13084
L57607 13095
L57574 13106
L57551 13106
L57517 13095
L57495 13073
L57484 13050
L57472 13005
L57472 12971
L57484 12926
L57495 12904
L57517 12881
L57551 12870
L57574 12870
L57607 12881
L57619 12893
" />
<path d="M57821 12870
L57776 12870
L57754 12881
L57742 12893
L57720 12926
L57709 12971
L57709 13061
L57720 13084
L57731 13095
L57754 13106
L57799 13106
L57821 13095
L57832 13084
L57844 13061
L57844 13005
L57832 12983
L57821 12971
L57799 12960
L57754 12960
L57731 12971
L57720 12983
L57709 13005
" />
<text x="59500" y="13618.1"
textLength="891.732" font-size="314.961" lengthAdjust="spacingAndGlyphs"
text-anchor="middle" opacity="0">22uF</text>
<path d="M59111 13393
L59123 13381
L59145 13370
L59201 13370
L59224 13381
L59235 13393
L59246 13415
L59246 13438
L59235 13471
L59100 13606
L59246 13606
" />
<path d="M59336 13393
L59348 13381
L59370 13370
L59426 13370
L59449 13381
L59460 13393
L59471 13415
L59471 13438
L59460 13471
L59325 13606
L59471 13606
" />
<path d="M59674 13449
L59674 13606
" />
<path d="M59573 13449
L59573 13573
L59584 13595
L59606 13606
L59640 13606
L59663 13595
L59674 13584
" />
<path d="M59865 13483
L59786 13483
" />
<path d="M59786 13606
L59786 13370
L59899 13370
" />
<text x="59341.5" y="13118.1"
textLength="486.783" font-size="314.961" lengthAdjust="spacingAndGlyphs"
text-anchor="middle" opacity="0">C5</text>
<path d="M59302 13084
L59290 13095
L59257 13106
L59234 13106
L59200 13095
L59178 13073
L59167 13050
L59155 13005
L59155 12971
L59167 12926
L59178 12904
L59200 12881
L59234 12870
L59257 12870
L59290 12881
L59302 12893
" />
<path d="M59515 12870
L59403 12870
L59392 12983
L59403 12971
L59425 12960
L59482 12960
L59504 12971
L59515 12983
L59527 13005
L59527 13061
L59515 13084
L59504 13095
L59482 13106
L59425 13106
L59403 13095
L59392 13084
" />
<text x="60750" y="10368.1"
textLength="1004.22" font-size="314.961" lengthAdjust="spacingAndGlyphs"
text-anchor="middle" opacity="0">0.1uF</text>
<path d="M60361 10120
L60384 10120
L60406 10131
L60418 10143
L60429 10165
L60440 10210
L60440 10266
L60429 10311
L60418 10334
L60406 10345
L60384 10356
L60361 10356
L60339 10345
L60328 10334
L60316 10311
L60305 10266
L60305 10210
L60316 10165
L60328 10143
L60339 10131
L60361 10120
" />
<path d="M60541 10334
L60553 10345
L60541 10356
L60530 10345
L60541 10334
L60541 10356
" />
<path d="M60778 10356
L60643 10356
" />
<path d="M60710 10356
L60710 10120
L60688 10154
L60665 10176
L60643 10188
" />
<path d="M60980 10199
L60980 10356
" />
<path d="M60879 10199
L60879 10323
L60890 10345
L60913 10356
L60946 10356
L60969 10345
L60980 10334
" />
<path d="M61171 10233
L61093 10233
" />
<path d="M61093 10356
L61093 10120
L61205 10120
" />
<text x="60750" y="9776.57"
textLength="486.783" font-size="314.961" lengthAdjust="spacingAndGlyphs"
text-anchor="middle" opacity="0">C9</text>
<path d="M60710 9742
L60699 9754
L60665 9765
L60643 9765
L60609 9754
L60586 9731
L60575 9709
L60564 9664
L60564 9630
L60575 9585
L60586 9562
L60609 9540
L60643 9529
L60665 9529
L60699 9540
L60710 9551
" />
<path d="M60823 9765
L60868 9765
L60890 9754
L60901 9742
L60924 9709
L60935 9664
L60935 9574
L60924 9551
L60913 9540
L60890 9529
L60845 9529
L60823 9540
L60811 9551
L60800 9574
L60800 9630
L60811 9652
L60823 9664
L60845 9675
L60890 9675
L60913 9664
L60924 9652
L60935 9630
" />
<text x="66900" y="12618.1"
textLength="2590.27" font-size="314.961" lengthAdjust="spacingAndGlyphs"
text-anchor="middle" opacity="0">USBLC6-2SC6</text>
<path d="M65673 12370
L65673 12561
L65685 12584
L65696 12595
L65718 12606
L65763 12606
L65786 12595
L65797 12584
L65808 12561
L65808 12370
" />
<path d="M65910 12595
L65943 12606
L66000 12606
L66022 12595
L66033 12584
L66045 12561
L66045 12539
L66033 12516
L66022 12505
L66000 12494
L65955 12483
L65932 12471
L65921 12460
L65910 12438
L65910 12415
L65921 12393
L65932 12381
L65955 12370
L66011 12370
L66045 12381
" />
<path d="M66225 12483
L66258 12494
L66270 12505
L66281 12528
L66281 12561
L66270 12584
L66258 12595
L66236 12606
L66146 12606
L66146 12370
L66225 12370
L66247 12381
L66258 12393
L66270 12415
L66270 12438
L66258 12460
L66247 12471
L66225 12483
L66146 12483
" />
<path d="M66495 12606
L66382 12606
L66382 12370
" />
<path d="M66708 12584
L66697 12595
L66663 12606
L66641 12606
L66607 12595
L66585 12573
L66573 12550
L66562 12505
L66562 12471
L66573 12426
L66585 12404
L66607 12381
L66641 12370
L66663 12370
L66697 12381
L66708 12393
" />
<path d="M66911 12370
L66866 12370
L66843 12381
L66832 12393
L66810 12426
L66798 12471
L66798 12561
L66810 12584
L66821 12595
L66843 12606
L66888 12606
L66911 12595
L66922 12584
L66933 12561
L66933 12505
L66922 12483
L66911 12471
L66888 12460
L66843 12460
L66821 12471
L66810 12483
L66798 12505
" />
<path d="M67034 12516
L67214 12516
" />
<path d="M67316 12393
L67327 12381
L67349 12370
L67406 12370
L67428 12381
L67439 12393
L67451 12415
L67451 12438
L67439 12471
L67304 12606
L67451 12606
" />
<path d="M67541 12595
L67574 12606
L67631 12606
L67653 12595
L67664 12584
L67676 12561
L67676 12539
L67664 12516
L67653 12505
L67631 12494
L67586 12483
L67563 12471
L67552 12460
L67541 12438
L67541 12415
L67552 12393
L67563 12381
L67586 12370
L67642 12370
L67676 12381
" />
<path d="M67912 12584
L67901 12595
L67867 12606
L67844 12606
L67811 12595
L67788 12573
L67777 12550
L67766 12505
L67766 12471
L67777 12426
L67788 12404
L67811 12381
L67844 12370
L67867 12370
L67901 12381
L67912 12393
" />
<path d="M68114 12370
L68069 12370
L68047 12381
L68036 12393
L68013 12426
L68002 12471
L68002 12561
L68013 12584
L68024 12595
L68047 12606
L68092 12606
L68114 12595
L68126 12584
L68137 12561
L68137 12505
L68126 12483
L68114 12471
L68092 12460
L68047 12460
L68024 12471
L68013 12483
L68002 12505
" />
<g transform="rotate(-90 66126 11816.9)">
<text x="66126" y="11935"
textLength="498.031" font-size="314.961" lengthAdjust="spacingAndGlyphs"
text-anchor="middle" opacity="0">U4</text>
</g>
<path d="M65996 11996
L66187 11996
L66210 11985
L66221 11974
L66232 11951
L66232 11906
L66221 11884
L66210 11873
L66187 11861
L65996 11861
" />
<path d="M66075 11648
L66232 11648
" />
<path d="M65985 11704
L66154 11760
L66154 11614
" />
<text x="65350" y="12618.1"
textLength="1735.38" font-size="314.961" lengthAdjust="spacingAndGlyphs"
text-anchor="end" opacity="0">2.2 kOhm</text>
<path d="M63672 12393
L63683 12381
L63706 12370
L63762 12370
L63784 12381
L63796 12393
L63807 12415
L63807 12438
L63796 12471
L63661 12606
L63807 12606
" />
<path d="M63908 12584
L63919 12595
L63908 12606
L63897 12595
L63908 12584
L63908 12606
" />
<path d="M64009 12393
L64021 12381
L64043 12370
L64099 12370
L64122 12381
L64133 12393
L64144 12415
L64144 12438
L64133 12471
L63998 12606
L64144 12606
" />
<path d="M64426 12606
L64426 12370
" />
<path d="M64448 12516
L64516 12606
" />
<path d="M64516 12449
L64426 12539
" />
<path d="M64662 12370
L64707 12370
L64729 12381
L64752 12404
L64763 12449
L64763 12528
L64752 12573
L64729 12595
L64707 12606
L64662 12606
L64639 12595
L64617 12573
L64606 12528
L64606 12449
L64617 12404
L64639 12381
L64662 12370
" />
<path d="M64864 12606
L64864 12370
" />
<path d="M64966 12606
L64966 12483
L64954 12460
L64932 12449
L64898 12449
L64876 12460
L64864 12471
" />
<path d="M65078 12606
L65078 12449
" />
<path d="M65078 12471
L65089 12460
L65112 12449
L65145 12449
L65168 12460
L65179 12483
L65179 12606
" />
<path d="M65179 12483
L65190 12460
L65213 12449
L65247 12449
L65269 12460
L65280 12483
L65280 12606
" />
<text x="64000" y="11924.4"
textLength="486.783" font-size="314.961" lengthAdjust="spacingAndGlyphs"
text-anchor="middle" opacity="0">R2</text>
<path d="M63960 11913
L63881 11800
" />
<path d="M63825 11913
L63825 11676
L63915 11676
L63938 11688
L63949 11699
L63960 11721
L63960 11755
L63949 11778
L63938 11789
L63915 11800
L63825 11800
" />
<path d="M64050 11699
L64061 11688
L64084 11676
L64140 11676
L64163 11688
L64174 11699
L64185 11721
L64185 11744
L64174 11778
L64039 11913
L64185 11913
" />
<text x="68750" y="13118.1"
textLength="1004.22" font-size="314.961" lengthAdjust="spacingAndGlyphs"
text-anchor="middle" opacity="0">0.1uF</text>
<path d="M68361 12870
L68384 12870
L68406 12881
L68418 12893
L68429 12915
L68440 12960
L68440 13016
L68429 13061
L68418 13084
L68406 13095
L68384 13106
L68361 13106
L68339 13095
L68328 13084
L68316 13061
L68305 13016
L68305 12960
L68316 12915
L68328 12893
L68339 12881
L68361 12870
" />
<path d="M68541 13084
L68553 13095
L68541 13106
L68530 13095
L68541 13084
L68541 13106
" />
<path d="M68778 13106
L68643 13106
" />
<path d="M68710 13106
L68710 12870
L68688 12904
L68665 12926
L68643 12938
" />
<path d="M68980 12949
L68980 13106
" />
<path d="M68879 12949
L68879 13073
L68890 13095
L68913 13106
L68946 13106
L68969 13095
L68980 13084
" />
<path d="M69171 12983
L69093 12983
" />
<path d="M69093 13106
L69093 12870
L69205 12870
" />
<g transform="rotate(-90 68750 12341.5)">
<text x="68750" y="12459.6"
textLength="486.783" font-size="314.961" lengthAdjust="spacingAndGlyphs"
text-anchor="middle" opacity="0">C3</text>
</g>
<path d="M68834 12380
L68845 12392
L68856 12425
L68856 12448
L68845 12482
L68823 12504
L68800 12515
L68755 12527
L68721 12527
L68676 12515
L68654 12504
L68631 12482
L68620 12448
L68620 12425
L68631 12392
L68643 12380
" />
<path d="M68620 12302
L68620 12155
L68710 12234
L68710 12200
L68721 12178
L68733 12167
L68755 12155
L68811 12155
L68834 12167
L68845 12178
L68856 12200
L68856 12268
L68845 12290
L68834 12302
" />
<text x="66000" y="30968.1"
textLength="1004.22" font-size="314.961" lengthAdjust="spacingAndGlyphs"
text-anchor="end" opacity="0">0.1uF</text>
<path d="M65109 30720
L65132 30720
L65154 30731
L65166 30743
L65177 30765
L65188 30810
L65188 30866
L65177 30911
L65166 30934
L65154 30945
L65132 30956
L65109 30956
L65087 30945
L65076 30934
L65064 30911
L65053 30866
L65053 30810
L65064 30765
L65076 30743
L65087 30731
L65109 30720
" />
<path d="M65289 30934
L65301 30945
L65289 30956
L65278 30945
L65289 30934
L65289 30956
" />
<path d="M65526 30956
L65391 30956
" />
<path d="M65458 30956
L65458 30720
L65436 30754
L65413 30776
L65391 30788
" />
<path d="M65728 30799
L65728 30956
" />
<path d="M65627 30799
L65627 30923
L65638 30945
L65660 30956
L65694 30956
L65717 30945
L65728 30934
" />
<path d="M65919 30833
L65840 30833
" />
<path d="M65840 30956
L65840 30720
L65953 30720
" />
<text x="66000" y="30518.1"
textLength="486.783" font-size="314.961" lengthAdjust="spacingAndGlyphs"
text-anchor="middle" opacity="0">C2</text>
<path d="M65960 30484
L65949 30495
L65915 30506
L65893 30506
L65859 30495
L65836 30473
L65825 30450
L65814 30405
L65814 30371
L65825 30326
L65836 30304
L65859 30281
L65893 30270
L65915 30270
L65949 30281
L65960 30293
" />
<path d="M66050 30293
L66061 30281
L66084 30270
L66140 30270
L66163 30281
L66174 30293
L66185 30315
L66185 30338
L66174 30371
L66039 30506
L66185 30506
" />
<text x="54250" y="21368.1"
textLength="1004.22" font-size="314.961" lengthAdjust="spacingAndGlyphs"
text-anchor="middle" opacity="0">0.1uF</text>
<path d="M53861 21120
L53884 21120
L53906 21131
L53918 21143
L53929 21165
L53940 21210
L53940 21266
L53929 21311
L53918 21334
L53906 21345
L53884 21356
L53861 21356
L53839 21345
L53828 21334
L53816 21311
L53805 21266
L53805 21210
L53816 21165
L53828 21143
L53839 21131
L53861 21120
" />
<path d="M54041 21334
L54053 21345
L54041 21356
L54030 21345
L54041 21334
L54041 21356
" />
<path d="M54278 21356
L54143 21356
" />
<path d="M54210 21356
L54210 21120
L54188 21154
L54165 21176
L54143 21188
" />
<path d="M54480 21199
L54480 21356
" />
<path d="M54379 21199
L54379 21323
L54390 21345
L54413 21356
L54446 21356
L54469 21345
L54480 21334
" />
<path d="M54671 21233
L54593 21233
" />
<path d="M54593 21356
L54593 21120
L54705 21120
" />
<text x="54250" y="20509.6"
textLength="486.783" font-size="314.961" lengthAdjust="spacingAndGlyphs"
text-anchor="middle" opacity="0">C4</text>
<path d="M54210 20475
L54199 20487
L54165 20498
L54143 20498
L54109 20487
L54086 20464
L54075 20442
L54064 20397
L54064 20363
L54075 20318
L54086 20295
L54109 20273
L54143 20262
L54165 20262
L54199 20273
L54210 20284
" />
<path d="M54413 20340
L54413 20498
" />
<path d="M54356 20250
L54300 20419
L54446 20419
" />
<text x="63600" y="26918.1"
textLength="1004.22" font-size="314.961" lengthAdjust="spacingAndGlyphs"
text-anchor="middle" opacity="0">4.7uF</text>
<path d="M63268 26749
L63268 26906
" />
<path d="M63211 26659
L63155 26828
L63301 26828
" />
<path d="M63391 26884
L63403 26895
L63391 26906
L63380 26895
L63391 26884
L63391 26906
" />
<path d="M63481 26670
L63639 26670
L63538 26906
" />
<path d="M63830 26749
L63830 26906
" />
<path d="M63729 26749
L63729 26873
L63740 26895
L63763 26906
L63796 26906
L63819 26895
L63830 26884
" />
<path d="M64021 26783
L63943 26783
" />
<path d="M63943 26906
L63943 26670
L64055 26670
" />
<text x="63600" y="26326.6"
textLength="486.783" font-size="314.961" lengthAdjust="spacingAndGlyphs"
text-anchor="middle" opacity="0">C1</text>
<path d="M63560 26292
L63549 26304
L63515 26315
L63493 26315
L63459 26304
L63436 26281
L63425 26259
L63414 26214
L63414 26180
L63425 26135
L63436 26112
L63459 26090
L63493 26079
L63515 26079
L63549 26090
L63560 26101
" />
<path d="M63785 26315
L63650 26315
" />
<path d="M63718 26315
L63718 26079
L63695 26112
L63673 26135
L63650 26146
" />
<g >
</g>
</g> 
</svg>
