<!DOCTYPE svg PUBLIC "-//W3C//DTD SVG 1.1//EN" "http://www.w3.org/Graphics/SVG/1.1/DTD/svg11.dtd">
<svg xmlns="http://www.w3.org/2000/svg" version="1.1" width="2.54mm" height="66.04mm" viewBox="0 0 2.54 66.04">
            <title>Picture generated by PcbDraw </title>
            <desc>Picture generated by PcbDraw</desc>
        <rect id="origin" fill="red" width="1" height="1" x="1.27" y="1.27"/><g><rect fill="black" width="2.54" height="66.04" x="0" y="0"/><rect fill="#808080" width="1.27" height="1.27" x="0.635" y="0.635"/><rect fill="#808080" width="1.27" height="1.27" x="0.635" y="3.175"/><rect fill="#808080" width="1.27" height="1.27" x="0.635" y="5.715"/><rect fill="#808080" width="1.27" height="1.27" x="0.635" y="8.255"/><rect fill="#808080" width="1.27" height="1.27" x="0.635" y="10.795"/><rect fill="#808080" width="1.27" height="1.27" x="0.635" y="13.334999999999999"/><rect fill="#808080" width="1.27" height="1.27" x="0.635" y="15.875"/><rect fill="#808080" width="1.27" height="1.27" x="0.635" y="18.415000000000003"/><rect fill="#808080" width="1.27" height="1.27" x="0.635" y="20.955000000000002"/><rect fill="#808080" width="1.27" height="1.27" x="0.635" y="23.495"/><rect fill="#808080" width="1.27" height="1.27" x="0.635" y="26.035"/><rect fill="#808080" width="1.27" height="1.27" x="0.635" y="28.575000000000003"/><rect fill="#808080" width="1.27" height="1.27" x="0.635" y="31.115000000000002"/><rect fill="#808080" width="1.27" height="1.27" x="0.635" y="33.655"/><rect fill="#808080" width="1.27" height="1.27" x="0.635" y="36.195"/><rect fill="#808080" width="1.27" height="1.27" x="0.635" y="38.735"/><rect fill="#808080" width="1.27" height="1.27" x="0.635" y="41.275"/><rect fill="#808080" width="1.27" height="1.27" x="0.635" y="43.815"/><rect fill="#808080" width="1.27" height="1.27" x="0.635" y="46.355"/><rect fill="#808080" width="1.27" height="1.27" x="0.635" y="48.894999999999996"/><rect fill="#808080" width="1.27" height="1.27" x="0.635" y="51.434999999999995"/><rect fill="#808080" width="1.27" height="1.27" x="0.635" y="53.975"/><rect fill="#808080" width="1.27" height="1.27" x="0.635" y="56.515"/><rect fill="#808080" width="1.27" height="1.27" x="0.635" y="59.055"/><rect fill="#808080" width="1.27" height="1.27" x="0.635" y="61.595"/><rect fill="#808080" width="1.27" height="1.27" x="0.635" y="64.135"/></g></svg>